/* XPM */
static char *paint_xpm[] = {
  "50 48 12 1",
  "+ c none",
  ". c #bebebe",
  "# c #183c59",
  "a c #595959",
  "b c #ffffff",
  "c c #a2a2a2",
  "e c #ff6145",
  "f c #ff00ff",
  "g c #797979",
  "h c #ffff00",
  "i c #0000ff",
  "j c #00ff00",
  "++++++++++++++++++++++++++++++++++++++++++++++++++",
  "++++++++++++++++++++++++++++++++++++++++++++++++++",
  "++++++++++++++++++++++++++++++++++++++++++++++++++",
  "++++++++++++++++++++++++++++++++++++++++++++++++++",
  "+++++++#aaaaaaaaaaaaaaaaaaaaaaaaaaaaaaaaaaa+++++++",
  "+++++++#bbbbbbbbbbbbbbbbbbbbbbbbbbbbbbbbbbb+++++++",
  "+++++++#bccccccccccccccccccccccccccbbbbbb#b+++++++",
  "+++++++#bcccccccccccccccccccccccbbb......bbb++++++",
  "+++++++#bccbbbbbbbbbbbbbbbbbbbbb......eee...bbb+++",
  "+++++++#bccbcccccccccc#bccccbb.......eeeee.....bc+",
  "+++++++#bccbcccccccccc#bcccb...fff...eeeee.....#c+",
  "+++++++#bccbcccccccccc#bccb...fffff...eee.....#cc+",
  "+bbbbbbbbccbccbbbbbbcc#bcb....fffff..........#cc++",
  "+cccccccc#cbccbccccgcc#bb......fff..........#cc+++",
  "+ccccccccc#bccggggggcc#bb..................#cc++++",
  "+######ccc#bcccccccccc#bb..hhh.............bbbbb++",
  "+++++++bcc#bcccccccccc#bb.hhhhh........iii.....#c+",
  "+++++++bcc#b###########bb.hhhhh..jjj..iiiii....#c+",
  "+++++++bcc#b............b..hhh..jjjjj.iiiii...##c+",
  "+++++++bcc#bccccccccccccg##.....jjjjj..iii...##cc+",
  "++bbbbbbbbbbbbbbbccccccccg###....jjj........##cc++",
  "++b..............#ccccccccgg###c..........##ccc+++",
  "++b.bbbcbbbcbbbcc#acccccccccgg############ccc+++++",
  "++b.bbbabbbabbbac#agccbbbbbbbbbbbbbgggggg#cc++++++",
  "++b.bbbabbbabbbac#agccbbbbbbbbbbbbb#ggggc#b+++++++",
  "++b.bbbabbbabbbac#agccbb###bbb###bb#gcccc#b+++++++",
  "++b.bbbabbbabbbac#agccbb#ggbbb#ggbb#gcccc#b+++++++",
  "++bgggggggggggggc#agcc###gcbbb#cc###gcccc#b+++++++",
  "++b.............c#agcccgggcbbb#cccgggcccc#b+++++++",
  "++b.b.b.b.b.b.b.c#agcccccccbbb#cbbbbbbbbc#b+++++++",
  "++bbbbbbbbbbbbbbc#agcccccccbbb#cb##bb##bg#b+++++++",
  "++bbbbbbbbbbbbbbc#agcccccccbbb#cb#gbb#gbg#b+++++++",
  "++b.b.b.b.b.b.b.c#ag#######bbb#####bb#####b+++++++",
  "++b.............c#acbbbbbbbbbb#bbbbbb#bbbbb+++++++",
  "++b.............c#ac+++++++bbb#c+++bb#c+++++++++++",
  "++b.c.c.c.c.c.c.c#ac+++++++bbb#c+++bb#c+++++++++++",
  "++bcccccccccccccc#ac+++++bbbbbbb+++bb#c+bbbbb+++++",
  "++bcccccccccccccc#ac+++++bbbbbbb#++bb#c+b#b#b#++++",
  "++bgcgcgcgcgcgcgc#ac++++++#######c+bb#c+##b###c+++",
  "++bgggggggggggggg#ac+++++++cccccccbbbb#c++b#ccc+++",
  "++bgggggggggggggg#ac+++++++++++++++####c++b#c+++++",
  "++bgggggggggggggg#ac++++++++++++++++cccc++b#c+++++",
  "+++###############ac+++++++++++++++++++++bbb#+++++",
  "++++aaaaaaaaaaaaaacc++++++++++++++++++++++###c++++",
  "+++++cccccccccccccc++++++++++++++++++++++++ccc++++",
  "++++++++++++++++++++++++++++++++++++++++++++++++++",
  "++++++++++++++++++++++++++++++++++++++++++++++++++",
  "++++++++++++++++++++++++++++++++++++++++++++++++++"
};
