/* XPM */
static char *close_xpm[] = {
  "6 3 3 1",
  ". c none",
  "X c #303030",
  "o c #f0f0f0",
  "XXXXXo",
  "X....o",
  "Xooooo"
};
