/* XPM */
static char *diag_icon_xpm[] = {
/* width height num_colors chars_per_pixel */
  "    48    48        7            1",
/* colors */
  ". c #b6b6b6",
  "# c #a2a2a2",
  "a c #797979",
  "b c #183c59",
  "c c #ffffff",
  "d c #ff0000",
  "e c #000000",
/* pixels */
  "................................................",
  ".##############################################a",
  ".#########################bbbb###########bbbb##a",
  ".#######ccccccccc#########b...a##########b...a#a",
  ".#######cdddddddc#########b...a##########b...aaa",
  ".#######cdddddddc#######eeb...a##########b...eea",
  ".#######cdddddddc#######eeb##.a##########b##.eea",
  ".#######cdddddddc#######eeb##.a##########b##.eea",
  ".##ccccccdddddddcccccc##eebaa.a##########baa.eea",
  ".##cdddddddddddddddddc##eebaa.a##########baa.eea",
  ".##cdddddddddddddddddc###ebaa.a##########baa.eaa",
  ".##cdddddddddddddddddc###eb...a##########b...eaa",
  ".##cdddddddddddddddddc###eeaaaa###########aaeeaa",
  ".##cdddddddddddddddddc###eea################eeaa",
  ".##cdddddddddddddddddc####eea##############eeaaa",
  ".##ccccccdddddddcccccc####eeaa#############eea#a",
  ".#######cdddddddc##########eea############eea##a",
  ".#######cdddddddc###########ea############ea###a",
  ".#######cdddddddc############ea##########ea####a",
  ".#######cdddddddc#############eaa#######eaa####a",
  ".#######ccccccccc##############eea####eea######a",
  ".################################eeeeeaa#######a",
  ".#################################aeaa#########a",
  ".##################################ea##########a",
  ".#################eeee#############ea##########a",
  ".################eaaaae############ea##########a",
  ".###############ea#####e###########ea##########a",
  ".##############ea######ea##########ea##########a",
  ".#############ea#######ea##########ea##########a",
  ".#############ea########e#########ea###########a",
  ".############ea#########ea########ea###########a",
  ".############ea#########ea########ea###########a",
  ".############ea#########ea########ea###########a",
  ".############ea#########ea########ea###########a",
  ".############ea#########ea#######ea############a",
  ".##########eeeee########ea#######ea############a",
  ".#########e.....e########ea#####ea#############a",
  ".########e.......ea#######ea####ea#############a",
  ".########e......aea########ea##ea##############a",
  ".#######e...bbbaaaea########eeea###############a",
  ".#######e...bbbaaaea#########aa################a",
  ".#######e...bbbaaaea###########################a",
  ".########e..aaaaaeaa###########################a",
  ".########e.aaaaaaea############################a",
  ".#########eaaaaaea#############################a",
  ".##########eeeeea##############################a",
  ".###########aaaa###############################a",
  ".aaaaaaaaaaaaaaaaaaaaaaaaaaaaaaaaaaaaaaaaaaaaaaa"
};
