#define digits_width 234
#define digits_height 74
static unsigned char digits_bits[] = {
    0x0e, 0xe0, 0x38, 0x80, 0xe3, 0x38, 0x8e, 0xe3, 0x38, 0x00, 0x00, 0x00,
    0x00, 0x00, 0x00, 0x00, 0x00, 0x00, 0x00, 0x00, 0x00, 0x00, 0x00, 0x00,
    0x00, 0x00, 0x00, 0x00, 0x00, 0x00, 0x11, 0x04, 0x41, 0x51, 0x10, 0x40,
    0x51, 0x14, 0x45, 0x00, 0x00, 0x00, 0x00, 0x00, 0x00, 0x00, 0x00, 0x00,
    0x00, 0x00, 0x00, 0x00, 0x00, 0x00, 0x00, 0x00, 0x00, 0x00, 0x00, 0x00,
    0x11, 0x04, 0x41, 0x51, 0x10, 0x40, 0x51, 0x14, 0x45, 0x00, 0x00, 0x00,
    0x00, 0x00, 0x00, 0x00, 0x00, 0x00, 0x00, 0x0a, 0x04, 0x00, 0x00, 0x00,
    0x00, 0x00, 0x00, 0x00, 0x00, 0x00, 0x11, 0x04, 0x41, 0x51, 0x10, 0x40,
    0x51, 0x14, 0x45, 0x04, 0x00, 0x00, 0x00, 0x00, 0x04, 0xc1, 0x18, 0x43,
    0x70, 0x02, 0x00, 0xc0, 0x3b, 0x91, 0xf3, 0x10, 0x11, 0x00, 0x00, 0x00,
    0x00, 0xe0, 0x38, 0x8e, 0xe3, 0x00, 0x8e, 0xe3, 0x38, 0x04, 0x00, 0x00,
    0x00, 0x00, 0x62, 0x22, 0xa5, 0x64, 0x88, 0x2a, 0x25, 0x45, 0x44, 0x91,
    0x14, 0x11, 0x13, 0x00, 0x00, 0x00, 0x11, 0x14, 0x40, 0x10, 0x14, 0x41,
    0x11, 0x14, 0x05, 0x00, 0x00, 0x00, 0x00, 0x00, 0x12, 0x02, 0xa5, 0x44,
    0x88, 0x2a, 0x55, 0xc3, 0x45, 0x91, 0x14, 0x29, 0x15, 0x00, 0x00, 0x00,
    0x11, 0x14, 0x40, 0x10, 0x14, 0x41, 0x11, 0x14, 0x05, 0x04, 0x00, 0x00,
    0x00, 0x00, 0x12, 0x82, 0xa4, 0x44, 0x88, 0x2a, 0x75, 0x41, 0x44, 0x91,
    0x13, 0x39, 0x15, 0x00, 0x00, 0x00, 0x11, 0x14, 0x40, 0x10, 0x14, 0x41,
    0x11, 0x14, 0x05, 0x04, 0x00, 0x00, 0x00, 0x00, 0x12, 0x42, 0xa4, 0x44,
    0x88, 0xaa, 0x14, 0x41, 0x44, 0x91, 0x14, 0x45, 0x19, 0x00, 0x00, 0x00,
    0x0e, 0xe0, 0x38, 0x80, 0xe3, 0x00, 0x8e, 0x03, 0x00, 0x00, 0x00, 0x00,
    0x00, 0x00, 0x62, 0xe2, 0x19, 0x43, 0x70, 0x4a, 0x64, 0x41, 0x38, 0x8e,
    0xf4, 0x44, 0x11, 0x00, 0x00, 0x00, 0x00, 0x00, 0x00, 0x00, 0x00, 0x00,
    0x00, 0x00, 0x00, 0x00, 0x00, 0x00, 0x00, 0x00, 0x04, 0x01, 0x00, 0x00,
    0x00, 0x00, 0x00, 0x00, 0x00, 0x00, 0x00, 0x00, 0x00, 0x00, 0x00, 0x00,
    0x00, 0x00, 0x00, 0x00, 0x00, 0x00, 0x00, 0x00, 0x00, 0x00, 0x00, 0x00,
    0x00, 0x00, 0x00, 0x00, 0x00, 0x00, 0x00, 0x00, 0x00, 0x00, 0x00, 0x00,
    0x00, 0x00, 0x00, 0x00, 0x00, 0x00, 0x3e, 0x00, 0x3e, 0x3e, 0x00, 0x3e,
    0x3e, 0x3e, 0x3e, 0x3e, 0x3e, 0x3e, 0x00, 0x00, 0x00, 0x00, 0x00, 0x00,
    0x00, 0x00, 0x00, 0x00, 0x00, 0x00, 0x00, 0x00, 0x00, 0x00, 0x00, 0x00,
    0x5d, 0x40, 0x5c, 0x5c, 0x41, 0x1d, 0x1d, 0x5c, 0x5d, 0x5d, 0x5d, 0x5d,
    0x00, 0x00, 0x00, 0x00, 0x00, 0x00, 0x00, 0x00, 0x00, 0x00, 0x00, 0x00,
    0x00, 0x00, 0x00, 0x00, 0x00, 0x00, 0x63, 0x60, 0x60, 0x60, 0x63, 0x03,
    0x03, 0x60, 0x63, 0x63, 0x63, 0x63, 0x00, 0x00, 0x00, 0x00, 0x00, 0x00,
    0x00, 0x00, 0x00, 0x00, 0x00, 0x00, 0x00, 0x00, 0x00, 0x00, 0x00, 0x00,
    0x63, 0x60, 0x60, 0x60, 0x63, 0x03, 0x03, 0x60, 0x63, 0x63, 0x63, 0x63,
    0x18, 0x00, 0x00, 0x08, 0x05, 0x01, 0x10, 0x00, 0x10, 0x00, 0x00, 0x00,
    0x14, 0x00, 0x00, 0x00, 0x00, 0x00, 0x63, 0x60, 0x60, 0x60, 0x63, 0x03,
    0x03, 0x60, 0x63, 0x63, 0x63, 0x63, 0x18, 0x00, 0x1c, 0x08, 0x01, 0x01,
    0x10, 0x00, 0x10, 0x00, 0xc7, 0x11, 0x04, 0x00, 0x00, 0x00, 0x00, 0x00,
    0x41, 0x40, 0x5e, 0x5e, 0x5d, 0x3d, 0x3f, 0x40, 0x5d, 0x5d, 0x5d, 0x5d,
    0x18, 0x00, 0xa4, 0x3a, 0x65, 0x47, 0x1c, 0x75, 0x9c, 0x94, 0x40, 0x12,
    0x94, 0xc9, 0x31, 0x01, 0x00, 0x00, 0x41, 0x40, 0x3d, 0x7e, 0x7e, 0x5e,
    0x5d, 0x40, 0x7f, 0x7e, 0x7f, 0x3f, 0x00, 0x00, 0xa4, 0x4a, 0x15, 0xa9,
    0x12, 0x95, 0x52, 0x8d, 0x4c, 0x12, 0x54, 0x54, 0x8a, 0x02, 0x00, 0x00,
    0x63, 0x60, 0x03, 0x60, 0x60, 0x60, 0x63, 0x60, 0x63, 0x60, 0x63, 0x03,
    0x18, 0x00, 0x9c, 0x4a, 0x65, 0xe9, 0x12, 0x95, 0xd2, 0x85, 0xc8, 0x11,
    0x54, 0x5c, 0xb2, 0x03, 0x00, 0x00, 0x63, 0x60, 0x03, 0x60, 0x60, 0x60,
    0x63, 0x60, 0x63, 0x60, 0x63, 0x03, 0x18, 0x00, 0x84, 0x4a, 0x45, 0x29,
    0x12, 0x95, 0x52, 0x84, 0x48, 0x10, 0x54, 0x44, 0xa2, 0x00, 0x00, 0x00,
    0x63, 0x60, 0x03, 0x60, 0x60, 0x60, 0x63, 0x60, 0x63, 0x60, 0x63, 0x03,
    0x18, 0x00, 0x04, 0x3b, 0x35, 0xc9, 0x1c, 0x96, 0x9c, 0x05, 0x47, 0x70,
    0x94, 0x59, 0x1a, 0x03, 0x00, 0x00, 0x5d, 0x40, 0x1d, 0x5c, 0x40, 0x5c,
    0x5d, 0x40, 0x5d, 0x5c, 0x41, 0x01, 0x00, 0x00, 0x00, 0x00, 0x00, 0x00,
    0x00, 0x00, 0x00, 0x00, 0x00, 0x00, 0x00, 0x00, 0x00, 0x00, 0x00, 0x00,
    0x3e, 0x00, 0x3e, 0x3e, 0x00, 0x3e, 0x3e, 0x00, 0x3e, 0x3e, 0x00, 0x00,
    0x00, 0x00, 0x00, 0x00, 0x00, 0x00, 0x00, 0x00, 0x00, 0x00, 0x00, 0x00,
    0x00, 0x00, 0x00, 0x00, 0x00, 0x00, 0x00, 0x00, 0x00, 0x00, 0x00, 0x00,
    0x00, 0x00, 0x00, 0x00, 0x00, 0x00, 0x00, 0x00, 0x00, 0x00, 0x00, 0x00,
    0x00, 0x00, 0x00, 0x00, 0x00, 0x00, 0x00, 0x00, 0x00, 0x00, 0x00, 0x00,
    0x00, 0x00, 0x00, 0x00, 0x00, 0x00, 0x00, 0x00, 0x00, 0x00, 0x00, 0x00,
    0x00, 0x00, 0x00, 0x00, 0x00, 0x00, 0x00, 0x00, 0x00, 0x00, 0x00, 0x00,
    0x00, 0x00, 0x00, 0x00, 0x00, 0x00, 0xf8, 0x01, 0x00, 0xf8, 0x81, 0x1f,
    0x00, 0x80, 0x1f, 0xf8, 0x81, 0x1f, 0xf8, 0x81, 0x1f, 0xf8, 0x81, 0x1f,
    0x00, 0x00, 0x00, 0x00, 0x00, 0x00, 0x00, 0x00, 0x00, 0x00, 0x00, 0x00,
    0xf8, 0x01, 0x00, 0xf8, 0x81, 0x1f, 0x00, 0x80, 0x1f, 0xf8, 0x81, 0x1f,
    0xf8, 0x81, 0x1f, 0xf8, 0x81, 0x1f, 0x00, 0x00, 0x00, 0x00, 0x00, 0x00,
    0x00, 0x00, 0x00, 0x00, 0x00, 0x00, 0x06, 0x06, 0x60, 0x00, 0x06, 0x60,
    0x06, 0x66, 0x00, 0x06, 0x00, 0x60, 0x06, 0x66, 0x60, 0x06, 0x66, 0x60,
    0x00, 0x00, 0x00, 0x00, 0x00, 0x00, 0x00, 0x00, 0x00, 0x00, 0x00, 0x00,
    0x06, 0x06, 0x60, 0x00, 0x06, 0x60, 0x06, 0x66, 0x00, 0x06, 0x00, 0x60,
    0x06, 0x66, 0x60, 0x06, 0x66, 0x60, 0x00, 0x00, 0x00, 0x00, 0x00, 0x00,
    0x00, 0x00, 0x00, 0x00, 0x00, 0x00, 0x06, 0x06, 0x60, 0x00, 0x06, 0x60,
    0x06, 0x66, 0x00, 0x06, 0x00, 0x60, 0x06, 0x66, 0x60, 0x06, 0x66, 0x60,
    0x00, 0x00, 0x00, 0x00, 0x00, 0x00, 0x00, 0x00, 0x00, 0x00, 0x00, 0x00,
    0x06, 0x06, 0x60, 0x00, 0x06, 0x60, 0x06, 0x66, 0x00, 0x06, 0x00, 0x60,
    0x06, 0x66, 0x60, 0x06, 0x66, 0x60, 0x00, 0x00, 0x00, 0x00, 0x00, 0x00,
    0x00, 0x00, 0x00, 0x00, 0x00, 0x00, 0x06, 0x06, 0x60, 0x00, 0x06, 0x60,
    0x06, 0x66, 0x00, 0x06, 0x00, 0x60, 0x06, 0x66, 0x60, 0x06, 0x66, 0x60,
    0x00, 0x00, 0x00, 0x00, 0x00, 0x00, 0x00, 0x00, 0x00, 0x00, 0x00, 0x00,
    0x06, 0x06, 0x60, 0x00, 0x06, 0x60, 0x06, 0x66, 0x00, 0x06, 0x00, 0x60,
    0x06, 0x66, 0x60, 0x06, 0x66, 0x60, 0xc0, 0x00, 0x00, 0x00, 0x00, 0x00,
    0x00, 0x00, 0x00, 0x00, 0x00, 0x00, 0x00, 0x00, 0x00, 0xf8, 0x81, 0x1f,
    0xf8, 0x81, 0x1f, 0xf8, 0x01, 0x00, 0xf8, 0x81, 0x1f, 0xf8, 0x81, 0x1f,
    0xc0, 0x00, 0x00, 0x00, 0x00, 0x00, 0x00, 0x00, 0x00, 0x00, 0x00, 0x00,
    0x00, 0x00, 0x00, 0xf8, 0x81, 0x1f, 0xf8, 0x81, 0x1f, 0xf8, 0x01, 0x00,
    0xf8, 0x81, 0x1f, 0xf8, 0x81, 0x1f, 0xc0, 0x00, 0x00, 0x00, 0x00, 0x00,
    0x00, 0x00, 0x00, 0x00, 0x00, 0x00, 0x06, 0x06, 0x60, 0x06, 0x00, 0x60,
    0x00, 0x06, 0x60, 0x06, 0x06, 0x60, 0x06, 0x06, 0x60, 0x06, 0x66, 0x00,
    0x00, 0x00, 0x00, 0x00, 0x00, 0x00, 0x00, 0x00, 0x00, 0x00, 0x00, 0x00,
    0x06, 0x06, 0x60, 0x06, 0x00, 0x60, 0x00, 0x06, 0x60, 0x06, 0x06, 0x60,
    0x06, 0x06, 0x60, 0x06, 0x66, 0x00, 0x00, 0x00, 0x00, 0x00, 0x00, 0x00,
    0x00, 0x00, 0x00, 0x00, 0x00, 0x00, 0x06, 0x06, 0x60, 0x06, 0x00, 0x60,
    0x00, 0x06, 0x60, 0x06, 0x06, 0x60, 0x06, 0x06, 0x60, 0x06, 0x66, 0x00,
    0xc0, 0x00, 0x00, 0x00, 0x00, 0x00, 0x00, 0x00, 0x00, 0x00, 0x00, 0x00,
    0x06, 0x06, 0x60, 0x06, 0x00, 0x60, 0x00, 0x06, 0x60, 0x06, 0x06, 0x60,
    0x06, 0x06, 0x60, 0x06, 0x66, 0x00, 0xc0, 0x00, 0x00, 0x00, 0x00, 0x00,
    0x00, 0x00, 0x00, 0x00, 0x00, 0x00, 0x06, 0x06, 0x60, 0x06, 0x00, 0x60,
    0x00, 0x06, 0x60, 0x06, 0x06, 0x60, 0x06, 0x06, 0x60, 0x06, 0x66, 0x00,
    0xc0, 0x00, 0x00, 0x00, 0x00, 0x00, 0x00, 0x00, 0x00, 0x00, 0x00, 0x00,
    0x06, 0x06, 0x60, 0x06, 0x00, 0x60, 0x00, 0x06, 0x60, 0x06, 0x06, 0x60,
    0x06, 0x06, 0x60, 0x06, 0x66, 0x00, 0x00, 0x00, 0x00, 0x00, 0x00, 0x00,
    0x00, 0x00, 0x00, 0x00, 0x00, 0x00, 0xf8, 0x01, 0x00, 0xf8, 0x81, 0x1f,
    0x00, 0x80, 0x1f, 0xf8, 0x01, 0x00, 0xf8, 0x81, 0x1f, 0x00, 0x00, 0x00,
    0x00, 0x00, 0x00, 0x00, 0x00, 0x00, 0x00, 0x00, 0x00, 0x00, 0x00, 0x00,
    0xf8, 0x01, 0x00, 0xf8, 0x81, 0x1f, 0x00, 0x80, 0x1f, 0xf8, 0x01, 0x00,
    0xf8, 0x81, 0x1f, 0x00, 0x00, 0x00, 0x00, 0x00, 0x00, 0x00, 0x00, 0x00,
    0x00, 0x00, 0x00, 0x00, 0x00, 0x00, 0x00, 0x00, 0x00, 0x00, 0x00, 0x00,
    0x00, 0x00, 0x00, 0x00, 0x00, 0x00, 0x00, 0x00, 0x00, 0x00, 0x00, 0x00,
    0x00, 0x00, 0x00, 0x00, 0x00, 0x00, 0x00, 0x00, 0x00, 0x00, 0x00, 0x00,
    0xf0, 0x1f, 0x00, 0x00, 0x00, 0xff, 0x01, 0xfc, 0x07, 0x00, 0x00, 0xc0,
    0x7f, 0x00, 0xff, 0x01, 0xfc, 0x07, 0xf0, 0x1f, 0xc0, 0x7f, 0x00, 0xff,
    0x01, 0xfc, 0x07, 0x00, 0x00, 0x00, 0xf8, 0x3f, 0x00, 0x00, 0x80, 0xff,
    0x03, 0xfe, 0x0f, 0x00, 0x00, 0xe0, 0xff, 0x80, 0xff, 0x03, 0xfe, 0x0f,
    0xf8, 0x3f, 0xe0, 0xff, 0x80, 0xff, 0x03, 0xfe, 0x0f, 0x00, 0x00, 0x00,
    0xf4, 0x5f, 0x00, 0x00, 0x01, 0xff, 0x05, 0xfc, 0x17, 0x04, 0x40, 0xd0,
    0x7f, 0x40, 0xff, 0x01, 0xfc, 0x17, 0xf4, 0x5f, 0xd0, 0x7f, 0x41, 0xff,
    0x05, 0xfd, 0x17, 0x00, 0x00, 0x00, 0x0e, 0xe0, 0x00, 0x80, 0x03, 0x00,
    0x0e, 0x00, 0x38, 0x0e, 0xe0, 0x38, 0x00, 0xe0, 0x00, 0x00, 0x00, 0x38,
    0x0e, 0xe0, 0x38, 0x80, 0xe3, 0x00, 0x8e, 0x03, 0x38, 0x00, 0x00, 0x00,
    0x0e, 0xe0, 0x00, 0x80, 0x03, 0x00, 0x0e, 0x00, 0x38, 0x0e, 0xe0, 0x38,
    0x00, 0xe0, 0x00, 0x00, 0x00, 0x38, 0x0e, 0xe0, 0x38, 0x80, 0xe3, 0x00,
    0x8e, 0x03, 0x38, 0x00, 0x00, 0x00, 0x0e, 0xe0, 0x00, 0x80, 0x03, 0x00,
    0x0e, 0x00, 0x38, 0x0e, 0xe0, 0x38, 0x00, 0xe0, 0x00, 0x00, 0x00, 0x38,
    0x0e, 0xe0, 0x38, 0x80, 0xe3, 0x00, 0x8e, 0x03, 0x38, 0x00, 0x00, 0x00,
    0x0e, 0xe0, 0x00, 0x80, 0x03, 0x00, 0x0e, 0x00, 0x38, 0x0e, 0xe0, 0x38,
    0x00, 0xe0, 0x00, 0x00, 0x00, 0x38, 0x0e, 0xe0, 0x38, 0x80, 0xe3, 0x00,
    0x8e, 0x03, 0x38, 0x00, 0x00, 0x00, 0x0e, 0xe0, 0x00, 0x80, 0x03, 0x00,
    0x0e, 0x00, 0x38, 0x0e, 0xe0, 0x38, 0x00, 0xe0, 0x00, 0x00, 0x00, 0x38,
    0x0e, 0xe0, 0x38, 0x80, 0xe3, 0x00, 0x8e, 0x03, 0x38, 0x00, 0x00, 0x00,
    0x0e, 0xe0, 0x00, 0x80, 0x03, 0x00, 0x0e, 0x00, 0x38, 0x0e, 0xe0, 0x38,
    0x00, 0xe0, 0x00, 0x00, 0x00, 0x38, 0x0e, 0xe0, 0x38, 0x80, 0xe3, 0x00,
    0x8e, 0x03, 0x38, 0x00, 0x00, 0x00, 0x0e, 0xe0, 0x00, 0x80, 0x03, 0x00,
    0x0e, 0x00, 0x38, 0x0e, 0xe0, 0x38, 0x00, 0xe0, 0x00, 0x00, 0x00, 0x38,
    0x0e, 0xe0, 0x38, 0x80, 0xe3, 0x00, 0x8e, 0x03, 0x38, 0x00, 0x00, 0x00,
    0x0e, 0xe0, 0x00, 0x80, 0x03, 0x00, 0x0e, 0x00, 0x38, 0x0e, 0xe0, 0x38,
    0x00, 0xe0, 0x00, 0x00, 0x00, 0x38, 0x0e, 0xe0, 0x38, 0x80, 0xe3, 0x00,
    0x8e, 0x03, 0x38, 0x00, 0x00, 0x00, 0x0e, 0xe0, 0x00, 0x80, 0x03, 0x00,
    0x0e, 0x00, 0x38, 0x0e, 0xe0, 0x38, 0x00, 0xe0, 0x00, 0x00, 0x00, 0x38,
    0x0e, 0xe0, 0x38, 0x80, 0xe3, 0x00, 0x8e, 0x03, 0x38, 0x00, 0x00, 0x00,
    0x0e, 0xe0, 0x00, 0x80, 0x03, 0x00, 0x0e, 0x00, 0x38, 0x0e, 0xe0, 0x38,
    0x00, 0xe0, 0x00, 0x00, 0x00, 0x38, 0x0e, 0xe0, 0x38, 0x80, 0xe3, 0x00,
    0x8e, 0x03, 0x38, 0x80, 0x03, 0x00, 0x04, 0x40, 0x00, 0x00, 0x01, 0xff,
    0x05, 0xfc, 0x17, 0xf4, 0x5f, 0xd0, 0x7f, 0x40, 0xff, 0x01, 0x00, 0x10,
    0xf4, 0x5f, 0xd0, 0x7f, 0x41, 0xff, 0x05, 0xfd, 0x17, 0x80, 0x03, 0x00,
    0x00, 0x00, 0x00, 0x00, 0x80, 0xff, 0x03, 0xfe, 0x0f, 0xf8, 0x3f, 0xe0,
    0xff, 0x80, 0xff, 0x03, 0x00, 0x00, 0xf8, 0x3f, 0xe0, 0xff, 0x80, 0xff,
    0x03, 0xfe, 0x0f, 0x80, 0x03, 0x00, 0x04, 0x40, 0x00, 0x00, 0x41, 0xff,
    0x01, 0xfc, 0x17, 0xf0, 0x5f, 0xc0, 0x7f, 0x41, 0xff, 0x05, 0x00, 0x10,
    0xf4, 0x5f, 0xc0, 0x7f, 0x41, 0xff, 0x05, 0xfd, 0x07, 0x80, 0x03, 0x00,
    0x0e, 0xe0, 0x00, 0x80, 0xe3, 0x00, 0x00, 0x00, 0x38, 0x00, 0xe0, 0x00,
    0x80, 0xe3, 0x00, 0x0e, 0x00, 0x38, 0x0e, 0xe0, 0x00, 0x80, 0xe3, 0x00,
    0x8e, 0x03, 0x00, 0x80, 0x03, 0x00, 0x0e, 0xe0, 0x00, 0x80, 0xe3, 0x00,
    0x00, 0x00, 0x38, 0x00, 0xe0, 0x00, 0x80, 0xe3, 0x00, 0x0e, 0x00, 0x38,
    0x0e, 0xe0, 0x00, 0x80, 0xe3, 0x00, 0x8e, 0x03, 0x00, 0x00, 0x00, 0x00,
    0x0e, 0xe0, 0x00, 0x80, 0xe3, 0x00, 0x00, 0x00, 0x38, 0x00, 0xe0, 0x00,
    0x80, 0xe3, 0x00, 0x0e, 0x00, 0x38, 0x0e, 0xe0, 0x00, 0x80, 0xe3, 0x00,
    0x8e, 0x03, 0x00, 0x00, 0x00, 0x00, 0x0e, 0xe0, 0x00, 0x80, 0xe3, 0x00,
    0x00, 0x00, 0x38, 0x00, 0xe0, 0x00, 0x80, 0xe3, 0x00, 0x0e, 0x00, 0x38,
    0x0e, 0xe0, 0x00, 0x80, 0xe3, 0x00, 0x8e, 0x03, 0x00, 0x00, 0x00, 0x00,
    0x0e, 0xe0, 0x00, 0x80, 0xe3, 0x00, 0x00, 0x00, 0x38, 0x00, 0xe0, 0x00,
    0x80, 0xe3, 0x00, 0x0e, 0x00, 0x38, 0x0e, 0xe0, 0x00, 0x80, 0xe3, 0x00,
    0x8e, 0x03, 0x00, 0x80, 0x03, 0x00, 0x0e, 0xe0, 0x00, 0x80, 0xe3, 0x00,
    0x00, 0x00, 0x38, 0x00, 0xe0, 0x00, 0x80, 0xe3, 0x00, 0x0e, 0x00, 0x38,
    0x0e, 0xe0, 0x00, 0x80, 0xe3, 0x00, 0x8e, 0x03, 0x00, 0x80, 0x03, 0x00,
    0x0e, 0xe0, 0x00, 0x80, 0xe3, 0x00, 0x00, 0x00, 0x38, 0x00, 0xe0, 0x00,
    0x80, 0xe3, 0x00, 0x0e, 0x00, 0x38, 0x0e, 0xe0, 0x00, 0x80, 0xe3, 0x00,
    0x8e, 0x03, 0x00, 0x80, 0x03, 0x00, 0x0e, 0xe0, 0x00, 0x80, 0xe3, 0x00,
    0x00, 0x00, 0x38, 0x00, 0xe0, 0x00, 0x80, 0xe3, 0x00, 0x0e, 0x00, 0x38,
    0x0e, 0xe0, 0x00, 0x80, 0xe3, 0x00, 0x8e, 0x03, 0x00, 0x80, 0x03, 0x00,
    0x0e, 0xe0, 0x00, 0x80, 0xe3, 0x00, 0x00, 0x00, 0x38, 0x00, 0xe0, 0x00,
    0x80, 0xe3, 0x00, 0x0e, 0x00, 0x38, 0x0e, 0xe0, 0x00, 0x80, 0xe3, 0x00,
    0x8e, 0x03, 0x00, 0x80, 0x03, 0x00, 0x0e, 0xe0, 0x00, 0x80, 0xe3, 0x00,
    0x00, 0x00, 0x38, 0x00, 0xe0, 0x00, 0x80, 0xe3, 0x00, 0x0e, 0x00, 0x38,
    0x0e, 0xe0, 0x00, 0x80, 0xe3, 0x00, 0x8e, 0x03, 0x00, 0x00, 0x00, 0x00,
    0xf4, 0x5f, 0x00, 0x00, 0x41, 0xff, 0x01, 0xfc, 0x17, 0x00, 0x40, 0xc0,
    0x7f, 0x41, 0xff, 0x05, 0x00, 0x10, 0xf4, 0x5f, 0xc0, 0x7f, 0x41, 0x00,
    0x04, 0x01, 0x00, 0x00, 0x00, 0x00, 0xf8, 0x3f, 0x00, 0x00, 0x80, 0xff,
    0x03, 0xfe, 0x0f, 0x00, 0x00, 0xe0, 0xff, 0x80, 0xff, 0x03, 0x00, 0x00,
    0xf8, 0x3f, 0xe0, 0xff, 0x00, 0x00, 0x00, 0x00, 0x00, 0x00, 0x00, 0x00,
    0xf0, 0x1f, 0x00, 0x00, 0x00, 0xff, 0x01, 0xfc, 0x07, 0x00, 0x00, 0xc0,
    0x7f, 0x00, 0xff, 0x01, 0x00, 0x00, 0xf0, 0x1f, 0xc0, 0x7f, 0x00, 0x00,
    0x00, 0x00, 0x00, 0x00, 0x00, 0x00, 0x00, 0x00, 0x00, 0x00, 0x00, 0x00,
    0x00, 0x00, 0x00, 0x00, 0x00, 0x00, 0x00, 0x00, 0x00, 0x00, 0x00, 0x00,
    0x00, 0x00, 0x00, 0x00, 0x00, 0x00, 0x00, 0x00, 0x00, 0x00, 0x00, 0x00
};
