/* XPM */
static char *down_xpm[] = {
  "9 5 4 1",
  ". c none",
  "X c #f0f0f0",
  "o c #303030",
  "+ c yellow",
  "ooooooooX",
  ".o+++++X.",
  "..o+++X..",
  "...o+X...",
  "....o...."
};
