/* XPM */
static char *file1_xpm[] = {
  "48 48 12 1",
  "+ c none",
  ". c #bebebe",
  "# c #ffffff",
  "a c #ff00ff",
  "b c #aaa2a2",
  "c c #595959",
  "d c #ff0000",
  "e c #00ff00",
  "f c #0000ff",
  "g c #ffffff",
  "h c #183c59",
  "i c #ffff00",
  "+++++++++++++++++++++++++++###++++++++++++++++++",
  "+++++++++++++++++++++++++##aaa##++++++++++++++++",
  "+++++++++++++++++++++++##aaaaa###b++++++++++++++",
  "+++++++++++++++++++++##aaaaa###...b+++++++++++++",
  "+++++++++++++++++++++#aaaa###.....b+++++++++++++",
  "+++++++++++++++++++++#aa###........b++++++++++++",
  "++ccccccccccccccccccc####..........bccc+++++++++",
  "++cccccccccccccccccc###.............bcc+++++++++",
  "++cccccccccccccccc###...............bcc+++++++++",
  "++cccccccccccccc###..................bc+++++++++",
  "++cbccc#######################b......bc+++++++++",
  "++cbbc#ddddddd#eeeeeee#fffffff#b......b+++++++++",
  "++cbb#ddddddd#eeeeeee#fffffffff#b.....b+++++++++",
  "++cbbggggggggggggggggggggggggggggggggggggg++++++",
  "++cbbgbbbbbbbbbbbbbbbbbbbbbbbbbbbbbbbbbbbh++++++",
  "++cbbgbbbbbbbbbbbbbbbbbbbbbbbbbbbbbbbbbbbh++++++",
  "++ccbgbbbbbbbbbbbbbbbbbbbbbbbbbbbbbbbbbbbh++++++",
  "++cccgbbbbbbbbbbbbbbbbbbbbbbbbbbbbbbbbbbbh++++++",
  "++cccgbbbbbbbbbbbbbbbbbbbbbbbbbbbbbbbbbbbh++++++",
  "++cccgbbbbbbbbbb###############bbbbbbbbbbh++++++",
  "++cccgbbbbbbbbbb#bbbbbbbbbbbbb#cbbbbbbbbbhb+++++",
  "++cbcgbbbbbbbbbb#biiiiiiiiiiii#cbbbbbbbbbhbb++++",
  "++cbbgbbbbbbbbbb#biiiiiiiiiiii#cbbbbbbbbbhbbb+++",
  "++cbbgbbbbbbbbbb#biiiiiiiiiiii#cbbbbbbbbbhcbbb++",
  "++cbbgbbbbbbbbbb#hhhhhhhhhhhhh#cbbbbbbbbbhccbbb+",
  "++cbbgbbbbbbbbbb#hcccccccccccc#cbbbbbbbbbhcccbb+",
  "++cbbgbbbbbbbbbb#hbbbbbbbbbbbb#cbbbbbbbbbhcccbb+",
  "++ccbgbbbbbbbbbb###############cbbbbbbbbbhcccbb+",
  "++cccgbbbbbbbbbbbcccccccccccccccbbbbbbbbbhcccbb+",
  "++cccgbbbbbbbbbbbbbbbbbbbbbbbbbbbbbbbbbbbhcccbb+",
  "++cccgbbbbbbbbbbbbbbbbbbbbbbbbbbbbbbbbbbbhcccbb+",
  "++cccgbbbbbbbbbbbbbbbbbbbbbbbbbbbbbbbbbbbhcccbb+",
  "++cbcgbbbbbbbbbbbbbbbbbbbbbbbbbbbbbbbbbbbhcccbb+",
  "++cbbgbbbbbbbbbbbbbbbbbbbbbbbbbbbbbbbbbbbhcccbb+",
  "++cbbgbbbbbbbbbbbbbbbbbbbbbbbbbbbbbbbbbbbhcccbb+",
  "++cbbgbbbbbbbbbbbbbbbbbbbbbbbbbbbbbbbbbbbhcccbb+",
  "++cbbgbbbbbbbbbbbbbbbbbbbbbbbbbbbbbbbbbbbhcccbb+",
  "+++bbgbbbbbbbbbbbbbbbbbbbbbbbbbbbbbbbbbbbhcccbb+",
  "++++bgbbbbbbbbbbbbbbbbbbbbbbbbbbbbbbbbbbbhcccbb+",
  "+++++gbbbbbbbbbbbbbbbbbbbbbbbbbbbbbbbbbbbhcccbb+",
  "+++++gbbbbbbbbbbbbbbbbbbbbbbbbbbbbbbbbbbbhcccbb+",
  "+++++gbbbbbbbbbbbbbbbbbbbbbbbbbbbbbbbbbbbhcccbb+",
  "+++++ghhhhhhhhhhhhhhhhhhhhhhhhhhhhhhhhhhhhcccbb+",
  "+++++++++bbbcccccccccccccccccccccccccccccccccbb+",
  "++++++++++bbbccccccccccccccccccccccccccccccccbb+",
  "+++++++++++bbbcccccccccccccccccccccccccccccccbb+",
  "++++++++++++bbbbbbbbbbbbbbbbbbbbbbbbbbbbbbbbbbb+",
  "+++++++++++++bbbbbbbbbbbbbbbbbbbbbbbbbbbbbbbbbb+"
};
