/* XPM */
static char *iconify_xpm[] = {
  "3 3 3 1",
  ". c none",
  "X c #303030",
  "o c #f0f0f0",
  "XXo",
  "X.o",
  "Xoo"
};
