/* XPM */
static char *mail_xpm[] = {
  "48 48 10 1",
  "+ c none",
  ". c #bebebe",
  "# c #ffffff",
  "a c #595959",
  "c c #0000ff",
  "d c #ff0000",
  "e c #ff6145",
  "f c #a2a2a2",
  "g c #797979",
  "h c #183c59",
  "++++++++++++++++++++++++++++++++++++++++++++++++",
  "++++++++++++++++++++++++++++++++++++++++++++++++",
  "+++++++++++++++++++++++++++++#a+++++++++++++++++",
  "++++++++++++++++++++++++++++###a++++++++++++++++",
  "+++++++++++++++++++++++++++##c##a+++++++++++++++",
  "++++++++++++++++++++++++++##ccc.#a++++++++++++++",
  "+++++++++++++++++++++++++##ccccc.#a+++++++++++++",
  "++++++++++++++++++++++++##d#ccccc.#a++++++++++++",
  "+++++++++++++++++++++++##d###ccc##.#a+++++++++++",
  "++++++++++++++++++++++##d##d##c####.#a++++++++++",
  "+++++++++++++++++++++##e##d#########.#a+++++++++",
  "++++++++++++++++++++#####d###########.#a++++++++",
  "+++++++++++++++++++###################.#a+++++++",
  "++++++#################################.#a++++++",
  "++++++##fffffffff#######################.#a+++++",
  "+++++####################################.fa++++",
  "+++++##ffffffff#########################.fa+++++",
  "+++++#############################f####.faa+++++",
  "+++++#.......################f###fg###.faga+++++",
  "+++++#......###########f####fg##fg###.fagfa+++++",
  "+++++#.....###########fg###fg##fg###.fagffa+++++",
  "+++++#....##e#gf####fg####g##fg####.fagfffa+++++",
  "+++++#...###e#gf####g###f###fg####.fagffffa+++++",
  "+++++#..##c#e#gf#######fg###g####.fagfffffa+++++",
  "++++a#.###c#e#g#######fg########.fagffffffa#++++",
  "+++a##ff##c#e#########g##f#####.fagfffffffa+#+++",
  "++a#.#fff#c#e#gf########fg####.fagffffffffaf+#++",
  "+a#.fgggghf#e#g#########g####.fagfffffggggahf+#+",
  "a#.fgggggghf..##############.fagffffgggggggahf+#",
  "a#.##########f.############.fagffff###########f#",
  "a#..fffffffffaf.##########.fagfffff#ffffffggaah#",
  "a#..fffffffffaf..########.fagffffff#ffffffggaah#",
  "a#..fffffffffaf...######.fagfffffff#ffffffgaaah#",
  "a#..fffffffffahffffffffffaggggggggg#ffffffggaah#",
  "a#..ffffffffffahffffffffaaaaaaaaaa#fffffffgaaah#",
  "a#..fffffffffffaaaaaaaaaaaaaaaaaa#ffffffffggaah#",
  "a#..fffffffffff##################fffffffffgaaah#",
  "a#..ffffffffffffffffffffffffffffffffffffffggaah#",
  "a#..fffffffffffffffffffffffffffffffffffffggaaah#",
  "a#..ffffffffffffffffffffffffffffffffffffggggaah#",
  "a#...ffggggggggggggggggggggggggggggggggggaaaaah#",
  "a#..ffggggggggggggggggggggggggggggggggggggaaaah#",
  "a#.ffggggggggggggggggggggggggggggggggggggggaaa##",
  "++############################################++",
  "++++++++++++++++++++++++++++++++++++++++++++++++",
  "++++++++++++++++++++++++++++++++++++++++++++++++",
  "++++++++++++++++++++++++++++++++++++++++++++++++",
  "++++++++++++++++++++++++++++++++++++++++++++++++"
};
