/* XPM */
static char *menu_icon_xpm[] = {
  "50 50 6 1",
  ". c #dfdfdf",
  "# c #b6b6b6",
  "a c #616161",
  "b c #ff6145",
  "c c #ffffff",
  "d c #0000ff",
  "..................................................",
  ".################################################a",
  ".################################################a",
  ".##aaaaaaaaaaaaaaaaaaaaaaaaaaaaaaaaaaaaaaaaaaa###a",
  ".##a...........................................##a",
  ".##a.########################################a.##a",
  ".##a.###########..................###########a.##a",
  ".##a.###########.bbbbbbbbbbbbbbbba###########a.##a",
  ".##a.###########.bbbbbbbbbbbbbbbba###########a.##a",
  ".##a.###########.bbbbbbbbbbbbbbbba###########a.##a",
  ".##a.###########.b.............aba###########a.##a",
  ".##a.###########.b.############aba###########a.##a",
  ".##a.###########.b.############aba###########a.##a",
  ".##a.###########.b.aaaa########aba###########a.##a",
  ".##a.###########.b.a##.##c#####aba###########a.##a",
  ".##a.###########.b.a##.#cc#cc##aba###########a.##a",
  ".##a.###########.b.a...########aba###########a.##a",
  ".##a.###########.b.############aba###########a.##a",
  ".##a.###########.b.aaaa########aba###########a.##a",
  ".##a.###########.b.a##.###c####aba###########a.##a",
  ".##a.###########.b.a##.#cc#####aba###########a.##a",
  ".##a.###########.b.a...########aba###########a.##a",
  ".##a.###########.b.ddddddddddddaba###########a.##a",
  ".##a.###########.b.aaaaddddddddaba###########a.##a",
  ".##a.###########.b.a##.ddcddcddaba###########a.##a",
  ".##a.###########.b.a##.dcdccccdaba###########a.##a",
  ".##a.###########.b.a...ddddddddaba###########a.##a",
  ".##a.###########.b.ddddddddddddaba###########a.##a",
  ".##a.###########.b.aaaa########aba###########a.##a",
  ".##a.###########.b.a##.####c###aba###########a.##a",
  ".##a.###########.b.a##.#cc#c###aba###########a.##a",
  ".##a.###########.b.a...########aba###########a.##a",
  ".##a.###########.b.############aba###########a.##a",
  ".##a.###########.b.aaaa########aba###########a.##a",
  ".##a.###########.b.a##.#####c##aba###########a.##a",
  ".##a.###########.b.a##.#ccc#cc#aba###########a.##a",
  ".##a.###########.b.a...###c####aba###########a.##a",
  ".##a.###########.b.############aba###########a.##a",
  ".##a.###########.b.############aba###########a.##a",
  ".##a.###########.b.############aba###########a.##a",
  ".##a.###########.baaaaaaaaaaaaaaba###########a.##a",
  ".##a.###########.bbbbbbbbbbbbbbbba###########a.##a",
  ".##a.###########.aaaaaaaaaaaaaaaaa###########a.##a",
  ".##a.########################################a.##a",
  ".##a.########################################a.##a",
  ".##a.aaaaaaaaaaaaaaaaaaaaaaaaaaaaaaaaaaaaaaaaa.##a",
  ".###...........................................##a",
  ".################################################a",
  ".################################################a",
  "aaaaaaaaaaaaaaaaaaaaaaaaaaaaaaaaaaaaaaaaaaaaaaaaaa"
};
