/* XPM */
static char *nomail_xpm[] = {
  "48 48 7 1",
  ". c none",
  "# c #595959",
  "a c #ffffff",
  "b c #a2a2a2",
  "c c #bebebe",
  "d c #797979",
  "e c #183c59",
  "................................................",
  "................................................",
  "................................................",
  "................................................",
  "................................................",
  "................................................",
  "................................................",
  "................................................",
  "................................................",
  "................................................",
  "................................................",
  "................................................",
  "................................................",
  "................................................",
  "................................................",
  "................................................",
  "................................................",
  "...........##########################...........",
  "..........#aaaaaaaaaaaaaaaaaaaaaaaaaaa..........",
  ".........#abbbbbbbbbbbbbbbbbbbbbbbbbbba.........",
  "........#acbbbbbbbbbbbbbbbbbbbbbbbbbbbca........",
  ".......#ac#bbbbbbbbbbbbbbbbbbbbbbbbbbbdca.......",
  "......#ac##bbbbbbbbbbbbbbbbbbbbbbbbbbbddca......",
  ".....#ac###bbbbbbbbbbbbbbbbbbbbbbbbbbbdddca.....",
  "....#ac####bbbbbbbbbbbbbbbbbbbbbbbbbbbddddca....",
  "...#ac#####bbbbbbbbbbbbbbbbbbbbbbbbbbbdddddca...",
  "..#ac######bbbbbbbbbbbbbbbbbbbbbbbbbbbddddddca..",
  ".#ac#######bbbbbbbbbbbbbbbbbbbbbbbbbbbdddddddca.",
  "#ac#########bbbbbbbbbbbbbbbbbbbbbbbbbdddddddddca",
  "#acaaaaaaaaaabcccccccccccccccccccccaaaaaaaaaaaba",
  "#accbbbbbbbbb#bccccccccccccccccccccabbbbbbdd##ea",
  "#accbbbbbbbbb#bccccccccccccccccccccabbbbbbdd##ea",
  "#accbbbbbbbbb#bccccccccccccccccccccabbbbbbd###ea",
  "#accbbbbbbbbb#ecccccccccccccccccccdabbbbbbdd##ea",
  "#accbbbbbbbbbb#eccccccccccccccccc#abbbbbbbd###ea",
  "#accbbbbbbbbbbb##################abbbbbbbbdd##ea",
  "#accbbbbbbbbbbbaaaaaaaaaaaaaaaaaabbbbbbbbbd###ea",
  "#accbbbbbbbbbbbbbbbbbbbbbbbbbbbbbbbbbbbbbbdd##ea",
  "#accbbbbbbbbbbbbbbbbbbbbbbbbbbbbbbbbbbbbbdd###ea",
  "#accbbbbbbbbbbbbbbbbbbbbbbbbbbbbbbbbbbbbdddd##ea",
  "#acccbbdddddddddddddddddddddddddddddddddd#####ea",
  "#accbbdddddddddddddddddddddddddddddddddddd####ea",
  "#acbbdddddddddddddddddddddddddddddddddddddd###aa",
  "..aaaaaaaaaaaaaaaaaaaaaaaaaaaaaaaaaaaaaaaaaaaa..",
  "................................................",
  "................................................",
  "................................................",
  "................................................"
};
