/* XPM */
static char *oldmail_xpm[] = {
/* width height num_colors chars_per_pixel */
  "    48    48       10            1",
/* colors */
  ". c none",
  "# c #ffffff",
  "a c #595959",
  "b c #a2a2a2",
  "c c #bebebe",
  "d c #ff0000",
  "e c #0000ff",
  "f c #000000",
  "g c #797979",
  "h c #183c59",
/* pixels */
  "................................................",
  "................................................",
  "................................................",
  "................................................",
  "................................................",
  "................................................",
  "................................................",
  "................................................",
  "................................................",
  "................................................",
  "................................................",
  "................................................",
  "................................................",
  "......###################################a......",
  "......##bbbbbbbbbbbbbbbbbbbbbbbbbbbbbbbbba......",
  ".....####################################aa.....",
  ".....##bbbbbbbbbbbbbbbbbbbbbbbbbbbbbbbbbbba.....",
  ".....#c##################################ba.....",
  ".....#c###dd##ee################dddddeeeeba.....",
  ".....#c##dd##ee######################eeeeba.....",
  ".....#c#dd##ee##c################ddd#eeeeba.....",
  ".....#cdd##ee##c#####################eeeeba.....",
  ".....#cd##ee##cb#####################eeeeba.....",
  ".....#c##ee##############################ba.....",
  "....a#c#ee##c#####fg######f###gg#########ba#....",
  "...a##bee##cb#####fffffff#fffffgf########bac#...",
  "..a#c#be############g####################babc#..",
  ".a#cbgggggb##########################bggggahbc#.",
  "a#cbgggggghbbb####ff##############bggggggggahbc#",
  "a#c##########b####ff#fffff#ff#####b###########b#",
  "a#ccbbbbbbbbbab#####g#############b#bbbbbbggaah#",
  "a#ccbbbbbbbbbab###################b#bbbbbbggaah#",
  "a#ccbbbbbbbbbab###################b#bbbbbbgaaah#",
  "a#ccbbbbbbbbbahggcccccccccccccccggg#bbbbbbggaah#",
  "a#ccbbbbbbbbbbahaaaaaaaaaaaaaaaaaa#bbbbbbbgaaah#",
  "a#ccbbbbbbbbbbbaaaaaaaaaaaaaaaaaa#bbbbbbbbggaah#",
  "a#ccbbbbbbbbbbb##################bbbbbbbbbgaaah#",
  "a#ccbbbbbbbbbbbbbbbbbbbbbbbbbbbbbbbbbbbbbbggaah#",
  "a#ccbbbbbbbbbbbbbbbbbbbbbbbbbbbbbbbbbbbbbggaaah#",
  "a#ccbbbbbbbbbbbbbbbbbbbbbbbbbbbbbbbbbbbbggggaah#",
  "a#cccbbggggggggggggggggggggggggggggggggggaaaaah#",
  "a#ccbbggggggggggggggggggggggggggggggggggggaaaah#",
  "a#cbbggggggggggggggggggggggggggggggggggggggaaa##",
  "..############################################..",
  "................................................",
  "................................................",
  "................................................",
  "................................................"
};
