/* XPM */
static char * trash_full_xpm[] = {
"53 53 14 1",
" 	c None",
".	c #4E4E4E",
"+	c #FFFFFF",
"@	c #E1E1E1",
"#	c #646464",
"$	c #D1D1D1",
"%	c #C8C8C8",
"&	c #323232",
"*	c #4B4B4B",
"=	c #7D7D7D",
"-	c #AFAFAF",
";	c #989999",
">	c #969696",
",	c #000000",
"                                                     ",
"          .................................          ",
"          .+++++++@@+@@+@@@@@@@@@@@@@@@@@##$         ",
"          .%%%+%%%%%%%%%%%%%%%%%%%%%%%%%%##$         ",
"          .%%%+%%%%%%%%%%%%%%%%%%%%%%%%%%##$         ",
"          .%%%+%%%%%%%%%%%%%%%%%%%%%%%%%%##$         ",
"          .%%%@%%%%%%%%%%%%%%%%%%%%%%%%%%##$         ",
"          .%%%@%%%%%%%%%%%%%%%%%%%%%%%%%%##$         ",
"          .&&&&&&&&&&&&&&&&&&&&&&&&&&&&&&&&$         ",
"          .&**######=--=--=--=--=--=#####;;;         ",
"          .&**######=--=--=--=--=--=#####;;;         ",
"          .---*******+++%%+%%+***+++>>>>>...         ",
"          .---%%%%%%%%%+++%++*%%%%%%%%%%%%%$         ",
"          .---%%%%%%%%%+++%++*%%%%%%%%%%%%%$         ",
"          .>--%>>>>>>>>>+++**#==>>>>>>>>>**$         ",
"          .>--%>>>>>>>>>***##=>>>>>>>>>>>**$         ",
"          .>--%>>>>>>>>>***##=>>>>>>>>>>>**$         ",
"          .---%>>>>>>>>>>>###=>>>>>>>>>>>**$         ",
"          .---%>>>>>>>>>>>###=>>>>>>>>>>>**$         ",
"          .>--%>>>>>>>>>>>>==>>>>>>>>>>>>**$         ",
"          .---%>>>>>>>>>>>>>>>>>>>>>>>>>>**$         ",
"          .---%>>>>>>>>>>>>>>>>>>>>>>>>>>**$         ",
"          .>--%>>>>>>>>>>>>>>>>>>>>>>>>>>**$         ",
"          .---%>>>>>>>>>>>>>>>>>>>>>>>>>>**$         ",
"          .---%>>>>>>>>>>>>>>>>>>>>>>>>>>**$         ",
"          .>--%>>>>>>>>>>>>>>>>>>>>>>>>>>**$         ",
"          .---%>>>>>>>>>>>>>>>>>>>>>>>>>>**$         ",
"          .---%>>>>>>>>>>>>>>>>>>>>>>>>>>**$         ",
"          .>--%>>>>>>>>>>>>>>>>>>>>>>>>>>**$         ",
"          .---%>>>>>>>>>>>>>>>>>>>>>>>>>>**$         ",
"          .---%>>>>>>>>>>>>>>>>>>>>>>>>>>**$         ",
"          .>--%>>>>>>>>>>>>>>>>>>>>>>>>>>**$         ",
"          .---%>>>>>>>>>>>>>>>>>>>>>>>>>>**$         ",
"          .---%>>>>>>>>>>>>>>>>>>>>>>>>>>**$         ",
"          .>--%>>>>>>>>>>>>>>>>>>>>>>>>>>**$         ",
"          .---%>>>>>>>>>>>>>>>>>>>>>>>>>>**$         ",
"          .---%>>>>>>>>>>>>>>>>>>>>>>>>>>**$         ",
"          .>--%>>>>>>>>>>>>>>>>>>>>>>>>>>**$         ",
"          .---%>>>>>>>>>>>>>>>>>>>>>>>>>>**$         ",
"          .---%>>>>>>>>>>>>>>>>>>>>>>>>>>**$         ",
"          .>--%>>>>>>>>>>>>>>>>>>>>>>>>>>**$         ",
"          .---%>>>>>>>>>>>>>>>>>>>>>>>>>>**$         ",
"          .---%>>>>>>>>>>>>>>>>>>>>>>>>>>**$         ",
"          .>--%>>>>>>>>>>>>>>>>>>>>>>>>>>**$         ",
"          .---%>>>>>>>>>>>>>>>>>>>>>>>>>>**$         ",
"          .---%>>>>>>>>>>>>>>>>>>>>>>>>>>**$         ",
"          .>--%>>>>>>>>,,,,,,,,,>>>>>>>>>**$         ",
"          $,--%>>>>>>>>,@@@@@@@@@==>>>>>>**$         ",
"          $,--%>>>>>>>>,@@@@@@@@@==>>>>>>**$         ",
"           $,,%>>>>>>>>,,,,,,,,,===>>>>>>**$         ",
"            $$,,,,,,,,,,,,,,,,,,,,,,,,,,,,,$         ",
"            $$,,,,,,,,,,,,,,,,,,,,,,,,,,,,,$         ",
"              $$$$$$$$$$;;;;;;;;$$$$$$$$$$$$         "};
