/* XPM */
static char *up_xpm[] = {
  "9 5 3 1",
  ". c none",
  "X c #f0f0f0",
  "o c #303030",
  "....o....",
  "...o.X...",
  "..o...X..",
  ".o.....X.",
  "oXXXXXXXX"
};
