/* XPM */
static char *xfce_icon_xpm[] = {
  "50 50 12 1",
  "# c #b6b6b6",
  ". c #dfdfdf",
  "a c #616161",
  "b c #828282",
  "c c #96aec3",
  "d c #ff00ff",
  "e c #8a9aae",
  "f c #fb1441",
  "g c #3cfb34",
  "h c #ffff00",
  "i c #ffffff",
  "j c #3c3c3c",
  "..................................................",
  ".################################################a",
  ".################################################a",
  ".##aaaaaaaaaaaaaaaaaaaaaaaaaaaaaaaaaaaaaaaaaaa###a",
  ".##a...........................................##a",
  ".##a.########################################a.##a",
  ".##a.########################################a.##a",
  ".##a.########################################a.##a",
  ".##a.########################################a.##a",
  ".##a.########################################a.##a",
  ".##a.########################################a.##a",
  ".##a.########################################a.##a",
  ".##a.########################################a.##a",
  ".##a.########################################a.##a",
  ".##a.########################################a.##a",
  ".##a.########################################a.##a",
  ".##a.########################################a.##a",
  ".##a.#aaaaaaaaaaaaaaaaaaaaaaaaaaaaaaaaaaa.###a.##a",
  ".##a.#a.................................a.###a.##a",
  ".##a.#a.################################a.###a.##a",
  ".##a.#a.#bbbbbba#bbbbba#bbbbba#bbbbbbbbba..##a.##a",
  ".##a.#a.aaaaaaaaaaaaaaaaaaaaaaaaaaaaaaaaaa..#a.##a",
  ".##a.#a.ccccccccccccccdcccccccccccccc.cccaa.#a.##a",
  ".##a.#a.cceeeeeecccfgh.ccc.....ccccc.i#ccca.#a.##a",
  ".##a.#a.cce#eeeeccc####ccc.jjj.cccc.iii#cca.#a.##a",
  ".##a.#a.ccee#eeeccc####bcc.jjj.ccc......cca.#a.##a",
  ".##a.#a.cceee##eccc####bcc.....ccc.####bcca.#a.##a",
  ".##a.#a.cceeeeeeccc####bcccbbbcccc.####bcca..a.##a",
  ".##a.#a.cceeeeeeccccbbbbccbbbbbccc.bbbbbccaa.a.##a",
  ".##a.#a.ccccccccccccccccccccccccccccccccccca.a.##a",
  ".##a.#a.aaaaaaaaaaaaaaaaaaaaaaaaaaaaaaaaaaaa.a.##a",
  ".##a.##......................................a.##a",
  ".##a.########################################a.##a",
  ".##a.########################################a.##a",
  ".##a.########################################a.##a",
  ".##a.########################################a.##a",
  ".##a.########################################a.##a",
  ".##a.########################################a.##a",
  ".##a.########################################a.##a",
  ".##a.########################################a.##a",
  ".##a.########################################a.##a",
  ".##a.########################################a.##a",
  ".##a.########################################a.##a",
  ".##a.########################################a.##a",
  ".##a.########################################a.##a",
  ".##a.aaaaaaaaaaaaaaaaaaaaaaaaaaaaaaaaaaaaaaaaa.##a",
  ".###...........................................##a",
  ".################################################a",
  ".################################################a",
  "aaaaaaaaaaaaaaaaaaaaaaaaaaaaaaaaaaaaaaaaaaaaaaaaaa"
};
