<?xml version="1.0" encoding="UTF-8" standalone="no"?>
<svg
   inkscape:export-ydpi="144"
   inkscape:export-xdpi="144"
   inkscape:export-filename="/home/maug/Programming/xfce4-panem/48x48/org.xfce.panel.launcher.png"
   inkscape:version="1.2.2 (b0a8486541, 2022-12-01)"
   sodipodi:docname="org.xfce.panel.launcher.svg"
   viewBox="0 0 24 24"
   style="display:inline;enable-background:new"
   version="1.0"
   id="svg11300"
   height="24"
   width="24"
   xmlns:inkscape="http://www.inkscape.org/namespaces/inkscape"
   xmlns:sodipodi="http://sodipodi.sourceforge.net/DTD/sodipodi-0.dtd"
   xmlns="http://www.w3.org/2000/svg"
   xmlns:svg="http://www.w3.org/2000/svg"
   xmlns:rdf="http://www.w3.org/1999/02/22-rdf-syntax-ns#"
   xmlns:cc="http://creativecommons.org/ns#"
   xmlns:dc="http://purl.org/dc/elements/1.1/">
  <sodipodi:namedview
     inkscape:document-rotation="0"
     inkscape:guide-bbox="true"
     showguides="false"
     inkscape:lockguides="false"
     inkscape:current-layer="svg11300"
     inkscape:window-maximized="0"
     inkscape:window-y="616"
     inkscape:window-x="96"
     inkscape:cy="12.734142"
     inkscape:cx="0.052620421"
     inkscape:zoom="9.5020145"
     showgrid="false"
     id="namedview44"
     inkscape:window-height="411"
     inkscape:window-width="1322"
     inkscape:pageshadow="2"
     inkscape:pageopacity="0"
     guidetolerance="10"
     gridtolerance="10"
     objecttolerance="10"
     borderopacity="1"
     bordercolor="#666666"
     pagecolor="#ffffff"
     inkscape:showpageshadow="2"
     inkscape:pagecheckerboard="0"
     inkscape:deskcolor="#d1d1d1">
    <inkscape:grid
       empspacing="4"
       id="grid4761"
       type="xygrid"
       originx="0"
       originy="0" />
  </sodipodi:namedview>
  <title
     id="title4162">Adwaita Icon Template</title>
  <defs
     id="defs3">
    <linearGradient
       id="linearGradient1020"
       inkscape:swatch="gradient">
      <stop
         id="stop1016"
         offset="0"
         style="stop-color:#ffffff;stop-opacity:1;" />
      <stop
         id="stop1018"
         offset="1"
         style="stop-color:#ffffff;stop-opacity:0.09411765" />
    </linearGradient>
  </defs>
  <metadata
     id="metadata4">
    <rdf:RDF>
      <cc:Work
         rdf:about="">
        <dc:title>Adwaita Icon Template</dc:title>
      </cc:Work>
    </rdf:RDF>
  </metadata>
  <g
     id="g1063"
     transform="matrix(0.72444442,0,0,0.72444442,0.40888893,-122.74666)"
     style="stroke-width:1.38037" />
  <rect
     rx="1.5"
     ry="1.5"
     y="2.4838715"
     x="2.4838715"
     height="19.032257"
     width="19.032257"
     id="rect929-36-9-9-2"
     style="display:inline;opacity:1;vector-effect:none;fill:#00aade;fill-opacity:1;stroke:#006888;stroke-width:0.967745;stroke-linecap:butt;stroke-linejoin:miter;stroke-miterlimit:4;stroke-dasharray:none;stroke-dashoffset:0;stroke-opacity:1;marker:none;marker-start:none;marker-mid:none;marker-end:none;paint-order:normal;enable-background:new" />
  <path
     id="path864"
     style="display:inline;fill:#c1ebf7;fill-opacity:1;stroke:#006888;stroke-width:0.7;stroke-miterlimit:4;stroke-dasharray:none;stroke-opacity:1;enable-background:new"
     d="M 10.90665,4.3500002 10.056841,6.8994244 C 9.9584902,6.9365817 9.8611017,6.97662 9.7649357,7.020332 L 7.3640552,5.8181645 5.8181645,7.3640552 7.0220593,9.7683902 C 6.9770003,9.8640386 6.9336773,9.9587405 6.8942426,10.056841 L 4.3500002,10.90665 v 2.186701 l 2.5494242,0.849808 c 0.037152,0.09834 0.077194,0.195739 0.1209076,0.291906 l -1.2021675,2.40088 1.5458907,1.54589 2.404335,-1.203894 c 0.095073,0.04591 0.1900992,0.08847 0.2884508,0.127817 L 10.90665,19.65 h 2.186701 l 0.849808,-2.549424 c 0.09835,-0.03717 0.195741,-0.07718 0.291906,-0.120908 l 2.40088,1.202167 1.54589,-1.54589 -1.203894,-2.404335 c 0.0459,-0.09507 0.08847,-0.190098 0.127817,-0.288451 L 19.65,13.093351 V 10.90665 L 17.100576,10.056841 C 17.063344,9.9580755 17.022556,9.8613762 16.979668,9.7649357 L 18.181835,7.3640552 16.635945,5.8181645 14.23161,7.0220593 C 14.135969,6.9769959 14.041261,6.933672 13.943159,6.8942426 L 13.093351,4.3500002 Z M 12,9.1258524 A 2.8741476,2.8741476 0 0 1 14.874148,12 2.8741476,2.8741476 0 0 1 12,14.874148 2.8741476,2.8741476 0 0 1 9.1258524,12 2.8741476,2.8741476 0 0 1 12,9.1258524 Z" />
</svg>
