<?xml version="1.0" encoding="UTF-8" standalone="no"?>
<!-- Created with Inkscape (http://www.inkscape.org/) -->

<svg
   xmlns:dc="http://purl.org/dc/elements/1.1/"
   xmlns:cc="http://creativecommons.org/ns#"
   xmlns:rdf="http://www.w3.org/1999/02/22-rdf-syntax-ns#"
   xmlns:svg="http://www.w3.org/2000/svg"
   xmlns="http://www.w3.org/2000/svg"
   xmlns:sodipodi="http://sodipodi.sourceforge.net/DTD/sodipodi-0.dtd"
   xmlns:inkscape="http://www.inkscape.org/namespaces/inkscape"
   width="24"
   height="24"
   id="svg2"
   sodipodi:version="0.32"
   inkscape:version="0.92.4 (5da689c313, 2019-01-14)"
   version="1.0"
   sodipodi:docname="org.xfce.panel.applicationsmenu.svg"
   inkscape:output_extension="org.inkscape.output.svg.inkscape"
   inkscape:export-filename="/home/ochosi/Nerdstuff/xfce/xfce4-panel/icons/16x16/org.xfce.panel.applicationsmenu.png"
   inkscape:export-xdpi="96"
   inkscape:export-ydpi="96">
  <defs
     id="defs4">
    <linearGradient
       id="linearGradient3961">
      <stop
         id="stop3963"
         offset="0"
         style="stop-color:#cecece;stop-opacity:0.7019608;" />
      <stop
         id="stop3965"
         offset="1"
         style="stop-color:#1d1d1d;stop-opacity:0;" />
    </linearGradient>
    <clipPath
       clipPathUnits="userSpaceOnUse"
       id="clipPath1126">
      <rect
         style="opacity:0.5;vector-effect:none;fill:#ffffff;fill-opacity:1;fill-rule:nonzero;stroke:none;stroke-width:3.02543163;stroke-linecap:square;stroke-linejoin:miter;stroke-miterlimit:4;stroke-dasharray:none;stroke-dashoffset:0;stroke-opacity:1;paint-order:normal"
         id="rect1128"
         width="512"
         height="512"
         x="17.850052"
         y="549.14514" />
    </clipPath>
  </defs>
  <sodipodi:namedview
     id="base"
     pagecolor="#ffffff"
     bordercolor="#666666"
     borderopacity="1.0"
     gridtolerance="10000"
     guidetolerance="10"
     objecttolerance="10"
     inkscape:pageopacity="0.0"
     inkscape:pageshadow="2"
     inkscape:zoom="11.2"
     inkscape:cx="2.0173893"
     inkscape:cy="29.493206"
     inkscape:document-units="px"
     inkscape:current-layer="layer10"
     showgrid="false"
     inkscape:window-width="1617"
     inkscape:window-height="1109"
     inkscape:window-x="461"
     inkscape:window-y="206"
     inkscape:window-maximized="0" />
  <metadata
     id="metadata7">
    <rdf:RDF>
      <cc:Work
         rdf:about="">
        <dc:format>image/svg+xml</dc:format>
        <dc:type
           rdf:resource="http://purl.org/dc/dcmitype/StillImage" />
        <dc:title></dc:title>
      </cc:Work>
    </rdf:RDF>
  </metadata>
  <g
     inkscape:groupmode="layer"
     id="layer10"
     inkscape:label="Mouse_Path"
     style="display:inline"
     transform="translate(-27.365845,-1015.3254)">
    <path
       inkscape:connector-curvature="0"
       style="fill:#00aade;fill-opacity:1;stroke-width:0.68355101"
       d="m 31.394378,1035.8139 -2.028533,-2.0286 0.303741,-0.3127 c 0.338405,-0.3484 0.655037,-0.6807 1.362656,-1.4297 0.26328,-0.2787 0.721243,-0.7615 1.017697,-1.0729 0.296453,-0.3114 0.680843,-0.7163 0.8542,-0.8998 0.568833,-0.6022 1.208536,-1.2782 1.985287,-2.0982 l 0.764592,-0.8071 -0.202953,-0.2083 c -0.111629,-0.1143 -0.769023,-0.8219 -1.460886,-1.5717 -1.709001,-1.8526 -2.273277,-2.4635 -2.291371,-2.4806 -0.0084,-0.014 -0.396686,-0.4281 -0.862825,-0.9339 l -0.84753,-0.9194 1.094873,-1.0236 c 2.181125,-2.0392 2.406893,-2.2508 2.88385,-2.7012 l 0.484625,-0.4578 0.231004,0.2836 c 0.127057,0.156 0.872633,1.0736 1.656847,2.0389 2.850346,3.5087 3.140984,3.8613 3.173937,3.8507 0.03136,-0.014 0.566143,-0.6116 2.263407,-2.5452 0.742896,-0.8462 0.856617,-0.9754 0.904239,-1.0267 0.01644,-0.019 0.542611,-0.6167 1.169252,-1.331 l 1.13935,-1.2988 0.58594,0.5455 c 0.322268,0.3 1.269233,1.1766 2.104369,1.948 l 1.518426,1.4025 -0.532263,0.5403 c -0.637759,0.6472 -1.457832,1.4861 -2.939614,3.0065 -0.606258,0.6222 -1.418798,1.4516 -1.805643,1.8432 -0.386847,0.3915 -0.721593,0.737 -0.743882,0.7674 -0.03743,0.051 0.0094,0.1086 0.616175,0.7504 0.361182,0.3822 0.885162,0.9385 1.164397,1.2362 0.279235,0.2975 0.852683,0.906 1.274325,1.3517 0.421643,0.4457 0.950378,1.006 1.174965,1.2451 0.427447,0.455 0.569931,0.6055 1.431878,1.5123 l 0.526935,0.5543 -0.209513,0.2 c -0.115229,0.11 -0.366176,0.3447 -0.557652,0.5217 -1.291881,1.1933 -2.886788,2.6733 -3.285947,3.049 l -0.471836,0.444 -0.211265,-0.2391 c -0.323872,-0.3669 -1.539567,-1.787 -4.32761,-5.0553 -0.272234,-0.3192 -0.636742,-0.7466 -0.810017,-0.9502 -0.173277,-0.2034 -0.325585,-0.3698 -0.33846,-0.3698 -0.01286,0 -0.373467,0.4131 -0.801316,0.9181 -0.427846,0.505 -0.906596,1.0696 -1.06389,1.2547 -0.157296,0.1852 -0.407331,0.4803 -0.555639,0.6558 -0.282794,0.3347 -0.354501,0.4191 -1.638852,1.9301 -0.438797,0.5161 -0.976459,1.1491 -1.194802,1.4066 -0.218341,0.2574 -0.414795,0.4828 -0.436561,0.5008 -0.03159,0.026 -0.448686,-0.3763 -2.068107,-1.9958 z"
       id="path2626" />
    <g
       id="g914"
       transform="matrix(0.04529187,0,0,0.04529187,5.609503,987.61261)"
       style="fill:#070c0f;stroke-width:22.07901764">
      <path
         inkscape:export-ydpi="1026.8827"
         inkscape:export-xdpi="1026.8827"
         inkscape:export-filename="/home/knome/Stuff/xubuntu-mouse-draft-2.png"
         style="display:inline;fill:#070c0f;fill-opacity:1;fill-rule:evenodd;stroke:none;stroke-width:0.12138866pt;stroke-linecap:butt;stroke-linejoin:miter;stroke-opacity:1"
         id="path13-8"
         d="m 931.74544,775.79875 c -2.29194,-1.89582 -20.26506,26.46187 -16.29077,29.40465 2.38972,1.7878 17.31457,-28.39371 16.29077,-29.40465 z"
         inkscape:connector-curvature="0" />
      <path
         inkscape:export-ydpi="1026.8827"
         inkscape:export-xdpi="1026.8827"
         inkscape:export-filename="/home/knome/Stuff/xubuntu-mouse-draft-2.png"
         style="display:inline;fill:#070c0f;fill-opacity:1;fill-rule:evenodd;stroke:none;stroke-width:0.12138866pt;stroke-linecap:butt;stroke-linejoin:miter;stroke-opacity:1"
         id="path18-8"
         d="m 911.08398,771.82541 c -1.13435,-1.31705 -7.15369,29.24258 -4.37043,30.59564 2.3897,1.7878 6.55183,-29.00592 4.37043,-30.59564 z"
         inkscape:connector-curvature="0" />
      <path
         id="path14-8"
         d="m 490.39251,737.47244 c -2.3537,1.28875 18.83363,15.10215 58.42225,31.40062 39.59117,16.29847 94.28195,57.60761 89.99375,64.27515 -12.85922,18.11199 -20.44376,39.77441 -15.20901,76.87813 0.94406,6.53121 -19.35566,17.87183 -17.87913,27.72653 1.23475,7.49842 22.68907,-7.4337 25.03505,-4.4858 1.4354,5.29135 -11.47809,32.07149 -6.25876,33.9853 3.81738,1.13442 37.3757,-31.84431 39.32554,-31.29382 55.34179,16.73062 127.34835,4.09717 128.74256,3.56728 -0.13122,-0.29067 51.81438,24.42083 56.32887,21.46778 11.38784,-12.3319 -21.58193,-29.7126 -16.08481,-36.65543 2.4103,-3.63474 40.15723,13.64662 42.01702,8.92889 2.70617,-8.16723 -17.52752,-25.31623 -20.57061,-30.39666 -2.64699,-4.68427 -3.22116,-12.24882 3.56728,-16.98197 6.79101,-4.73314 76.22275,-31.2899 73.31085,-51.84307 -5.03414,-37.34552 -88.0554,-39.77075 -89.39566,-42.91418 -0.63017,-1.47654 3.65331,-53.40369 -20.57061,-43.81135 -14.91457,5.55115 -2.73759,38.63636 -1.77296,42.91419 0.89001,3.93828 -6.63573,3.52294 -8.05308,1.79432 -3.16396,-3.86368 -13.6106,-38.3492 -25.93222,-32.19098 -17.2811,9.52802 -1.01748,39.25808 -4.46444,40.2227 -6.4026,3.57816 -6.0399,12.31819 -11.17179,19.43848 -8.46299,12.12868 -71.7872,-5.68106 -92.25802,-6.92095 -14.98659,-0.88489 -29.32133,11.41139 -30.67435,9.84741 -18.24833,-18.27405 -56.0023,-50.09534 -97.36328,-60.66515 -23.19496,-6.29458 -57.70051,-24.51893 -59.08444,-24.28742 z m 361.91887,69.87172 c 3.95743,0 7.15593,3.65412 7.15593,8.15989 10e-6,4.50575 -3.1985,8.15989 -7.15593,8.15989 -3.95744,0 -7.17728,-3.65414 -7.17728,-8.15989 10e-6,-4.50577 3.21984,-8.15989 7.17728,-8.15989 z m -16.08481,4.95575 c 3.04559,13.14733 7.79958,17.33717 22.06588,16.91788 -18.15827,16.65089 -29.19393,-11.87861 -22.06588,-16.91788 z m 39.26146,34.36979 c 0.74297,0.0282 1.31493,0.19751 1.68752,0.55539 7.15367,2.59296 -30.74272,16.23854 -30.99475,14.31185 -0.39407,-1.37542 22.12522,-15.13943 29.30723,-14.86724 z m 3.84499,8.73664 c 0.39154,-0.0303 0.73626,0.0219 1.02532,0.17089 6.75243,6.70871 -21.37827,21.58409 -21.06191,21.06191 -2.26689,-1.36979 14.16329,-20.77712 20.03659,-21.2328 z"
         style="display:inline;fill:#070c0f;fill-opacity:1;fill-rule:evenodd;stroke:none;stroke-width:0.20231424pt;stroke-linecap:butt;stroke-linejoin:miter;stroke-opacity:1"
         inkscape:connector-curvature="0" />
    </g>
  </g>
</svg>
