<?xml version="1.0" encoding="UTF-8" standalone="no"?>
<!-- Created with Inkscape (http://www.inkscape.org/) -->

<svg
   width="24"
   height="24"
   id="svg2"
   sodipodi:version="0.32"
   inkscape:version="1.2.2 (b0a8486541, 2022-12-01)"
   version="1.0"
   sodipodi:docname="org.xfce.panel.applicationsmenu.svg"
   inkscape:output_extension="org.inkscape.output.svg.inkscape"
   inkscape:export-filename="/home/ochosi/Nerdstuff/xfce/xfce4-panel/icons/16x16/org.xfce.panel.applicationsmenu.png"
   inkscape:export-xdpi="96"
   inkscape:export-ydpi="96"
   xmlns:inkscape="http://www.inkscape.org/namespaces/inkscape"
   xmlns:sodipodi="http://sodipodi.sourceforge.net/DTD/sodipodi-0.dtd"
   xmlns="http://www.w3.org/2000/svg"
   xmlns:svg="http://www.w3.org/2000/svg"
   xmlns:rdf="http://www.w3.org/1999/02/22-rdf-syntax-ns#"
   xmlns:cc="http://creativecommons.org/ns#"
   xmlns:dc="http://purl.org/dc/elements/1.1/">
  <defs
     id="defs4">
    <linearGradient
       id="linearGradient3961">
      <stop
         id="stop3963"
         offset="0"
         style="stop-color:#cecece;stop-opacity:0.7019608;" />
      <stop
         id="stop3965"
         offset="1"
         style="stop-color:#1d1d1d;stop-opacity:0;" />
    </linearGradient>
    <clipPath
       clipPathUnits="userSpaceOnUse"
       id="clipPath1126">
      <rect
         style="opacity:0.5;vector-effect:none;fill:#ffffff;fill-opacity:1;fill-rule:nonzero;stroke:none;stroke-width:3.02543163;stroke-linecap:square;stroke-linejoin:miter;stroke-miterlimit:4;stroke-dasharray:none;stroke-dashoffset:0;stroke-opacity:1;paint-order:normal"
         id="rect1128"
         width="512"
         height="512"
         x="17.850052"
         y="549.14514" />
    </clipPath>
  </defs>
  <sodipodi:namedview
     id="base"
     pagecolor="#ffffff"
     bordercolor="#666666"
     borderopacity="1.0"
     gridtolerance="10000"
     guidetolerance="10"
     objecttolerance="10"
     inkscape:pageopacity="0.0"
     inkscape:pageshadow="2"
     inkscape:zoom="22.4"
     inkscape:cx="10.803571"
     inkscape:cy="11.473214"
     inkscape:document-units="px"
     inkscape:current-layer="layer10"
     showgrid="true"
     inkscape:window-width="1920"
     inkscape:window-height="1023"
     inkscape:window-x="0"
     inkscape:window-y="0"
     inkscape:window-maximized="1"
     inkscape:showpageshadow="2"
     inkscape:pagecheckerboard="0"
     inkscape:deskcolor="#d1d1d1">
    <inkscape:grid
       type="xygrid"
       id="grid244" />
  </sodipodi:namedview>
  <metadata
     id="metadata7">
    <rdf:RDF>
      <cc:Work
         rdf:about="">
        <dc:format>image/svg+xml</dc:format>
        <dc:type
           rdf:resource="http://purl.org/dc/dcmitype/StillImage" />
        <dc:title />
      </cc:Work>
    </rdf:RDF>
  </metadata>
  <g
     inkscape:groupmode="layer"
     id="layer10"
     inkscape:label="Mouse_Path"
     style="display:inline"
     transform="translate(-27.365845,-1015.3254)">
    <path
       inkscape:connector-curvature="0"
       style="fill:#00aade;fill-opacity:1;stroke-width:0.72341"
       d="m 31.855241,1036.4328 -2.117607,-2.1765 0.317079,-0.3355 c 0.353264,-0.3738 0.6838,-0.7303 1.422491,-1.5339 0.27484,-0.299 0.752913,-0.817 1.062384,-1.1511 0.309471,-0.3341 0.710739,-0.7686 0.891709,-0.9655 0.59381,-0.6461 1.261603,-1.3713 2.072462,-2.2511 l 0.798165,-0.866 -0.211865,-0.2235 c -0.11653,-0.1226 -0.802791,-0.8818 -1.525034,-1.6863 -1.784044,-1.9876 -2.373098,-2.6431 -2.391986,-2.6614 -0.0088,-0.015 -0.414105,-0.4593 -0.900712,-1.002 l -0.884746,-0.9865 1.14295,-1.0982 c 2.276899,-2.1879 2.512581,-2.4149 3.010481,-2.8981 l 0.505905,-0.4912 0.241148,0.3043 c 0.132636,0.1673 0.910951,1.1518 1.7296,2.1875 2.975506,3.7645 3.278906,4.1429 3.313306,4.1315 0.03274,-0.015 0.591003,-0.6562 2.362795,-2.7308 0.775516,-0.9079 0.894231,-1.0465 0.943944,-1.1016 0.01716,-0.02 0.566437,-0.6616 1.220595,-1.428 l 1.189379,-1.3935 0.611669,0.5853 c 0.336419,0.3218 1.324966,1.2624 2.196773,2.09 l 1.585101,1.5048 -0.555635,0.5797 c -0.665763,0.6943 -1.521846,1.5944 -3.068694,3.2257 -0.632879,0.6675 -1.481098,1.5574 -1.88493,1.9776 -0.403833,0.42 -0.753278,0.7907 -0.776546,0.8233 -0.03907,0.055 0.0098,0.1165 0.643231,0.8051 0.377042,0.4101 0.92403,1.007 1.215527,1.3264 0.291496,0.3192 0.890125,0.972 1.330281,1.4502 0.440158,0.4782 0.99211,1.0794 1.226558,1.3359 0.446217,0.4882 0.594957,0.6496 1.494753,1.6226 l 0.550073,0.5947 -0.218713,0.2146 c -0.120289,0.118 -0.382255,0.3698 -0.582139,0.5597 -1.348608,1.2803 -3.013548,2.8682 -3.430234,3.2713 l -0.492555,0.4764 -0.220542,-0.2566 c -0.338093,-0.3936 -1.60717,-1.9172 -4.517637,-5.4238 -0.284188,-0.3425 -0.664702,-0.8011 -0.845586,-1.0195 -0.180885,-0.2183 -0.339881,-0.3968 -0.353322,-0.3968 -0.01342,0 -0.389866,0.4432 -0.836502,0.9851 -0.446633,0.5418 -0.946405,1.1475 -1.110606,1.3461 -0.164203,0.1987 -0.425217,0.5154 -0.580037,0.7037 -0.295212,0.3591 -0.370068,0.4496 -1.710815,2.0708 -0.458065,0.5537 -1.019336,1.2329 -1.247267,1.5091 -0.227928,0.2762 -0.433008,0.518 -0.45573,0.5374 -0.03298,0.028 -0.468388,-0.4038 -2.158919,-2.1414 z"
       id="path2626" />
    <g
       id="g914"
       transform="matrix(0.04728066,0,0,0.0485942,4.9381387,984.71709)"
       style="fill:#070c0f;stroke-width:22.079">
      <path
         inkscape:export-ydpi="1026.8827"
         inkscape:export-xdpi="1026.8827"
         inkscape:export-filename="/home/knome/Stuff/xubuntu-mouse-draft-2.png"
         style="display:inline;fill:#070c0f;fill-opacity:1;fill-rule:evenodd;stroke:none;stroke-width:0.121389pt;stroke-linecap:butt;stroke-linejoin:miter;stroke-opacity:1"
         id="path13-8"
         d="m 931.74544,775.79875 c -2.29194,-1.89582 -20.26506,26.46187 -16.29077,29.40465 2.38972,1.7878 17.31457,-28.39371 16.29077,-29.40465 z"
         inkscape:connector-curvature="0" />
      <path
         inkscape:export-ydpi="1026.8827"
         inkscape:export-xdpi="1026.8827"
         inkscape:export-filename="/home/knome/Stuff/xubuntu-mouse-draft-2.png"
         style="display:inline;fill:#070c0f;fill-opacity:1;fill-rule:evenodd;stroke:none;stroke-width:0.121389pt;stroke-linecap:butt;stroke-linejoin:miter;stroke-opacity:1"
         id="path18-8"
         d="m 911.08398,771.82541 c -1.13435,-1.31705 -7.15369,29.24258 -4.37043,30.59564 2.3897,1.7878 6.55183,-29.00592 4.37043,-30.59564 z"
         inkscape:connector-curvature="0" />
      <path
         id="path14-8"
         d="m 490.39251,737.47244 c -2.3537,1.28875 18.83363,15.10215 58.42225,31.40062 39.59117,16.29847 94.28195,57.60761 89.99375,64.27515 -12.85922,18.11199 -20.44376,39.77441 -15.20901,76.87813 0.94406,6.53121 -19.35566,17.87183 -17.87913,27.72653 1.23475,7.49842 22.68907,-7.4337 25.03505,-4.4858 1.4354,5.29135 -11.47809,32.07149 -6.25876,33.9853 3.81738,1.13442 37.3757,-31.84431 39.32554,-31.29382 55.34179,16.73062 127.34835,4.09717 128.74256,3.56728 -0.13122,-0.29067 51.81438,24.42083 56.32887,21.46778 11.38784,-12.3319 -21.58193,-29.7126 -16.08481,-36.65543 2.4103,-3.63474 40.15723,13.64662 42.01702,8.92889 2.70617,-8.16723 -17.52752,-25.31623 -20.57061,-30.39666 -2.64699,-4.68427 -3.22116,-12.24882 3.56728,-16.98197 6.79101,-4.73314 76.22275,-31.2899 73.31085,-51.84307 -5.03414,-37.34552 -88.0554,-39.77075 -89.39566,-42.91418 -0.63017,-1.47654 3.65331,-53.40369 -20.57061,-43.81135 -14.91457,5.55115 -2.73759,38.63636 -1.77296,42.91419 0.89001,3.93828 -6.63573,3.52294 -8.05308,1.79432 -3.16396,-3.86368 -13.6106,-38.3492 -25.93222,-32.19098 -17.2811,9.52802 -1.01748,39.25808 -4.46444,40.2227 -6.4026,3.57816 -6.0399,12.31819 -11.17179,19.43848 -8.46299,12.12868 -71.7872,-5.68106 -92.25802,-6.92095 -14.98659,-0.88489 -29.32133,11.41139 -30.67435,9.84741 -18.24833,-18.27405 -56.0023,-50.09534 -97.36328,-60.66515 -23.19496,-6.29458 -57.70051,-24.51893 -59.08444,-24.28742 z m 361.91887,69.87172 c 3.95743,0 7.15593,3.65412 7.15593,8.15989 10e-6,4.50575 -3.1985,8.15989 -7.15593,8.15989 -3.95744,0 -7.17728,-3.65414 -7.17728,-8.15989 10e-6,-4.50577 3.21984,-8.15989 7.17728,-8.15989 z m -16.08481,4.95575 c 3.04559,13.14733 7.79958,17.33717 22.06588,16.91788 -18.15827,16.65089 -29.19393,-11.87861 -22.06588,-16.91788 z m 39.26146,34.36979 c 0.74297,0.0282 1.31493,0.19751 1.68752,0.55539 7.15367,2.59296 -30.74272,16.23854 -30.99475,14.31185 -0.39407,-1.37542 22.12522,-15.13943 29.30723,-14.86724 z m 3.84499,8.73664 c 0.39154,-0.0303 0.73626,0.0219 1.02532,0.17089 6.75243,6.70871 -21.37827,21.58409 -21.06191,21.06191 -2.26689,-1.36979 14.16329,-20.77712 20.03659,-21.2328 z"
         style="display:inline;fill:#070c0f;fill-opacity:1;fill-rule:evenodd;stroke:none;stroke-width:0.202314pt;stroke-linecap:butt;stroke-linejoin:miter;stroke-opacity:1"
         inkscape:connector-curvature="0" />
    </g>
  </g>
</svg>
