<?xml version="1.0" encoding="UTF-8" standalone="no"?>
<svg
   inkscape:export-ydpi="144"
   inkscape:export-xdpi="144"
   inkscape:export-filename="/home/maug/Programming/xfce4-panem/48x48/org.xfce.panel.launcher.png"
   inkscape:version="1.2.2 (b0a8486541, 2022-12-01)"
   sodipodi:docname="org.xfce.panel.launcher.svg"
   viewBox="0 0 24 24"
   style="display:inline;enable-background:new"
   version="1.0"
   id="svg11300"
   height="24"
   width="24"
   xmlns:inkscape="http://www.inkscape.org/namespaces/inkscape"
   xmlns:sodipodi="http://sodipodi.sourceforge.net/DTD/sodipodi-0.dtd"
   xmlns="http://www.w3.org/2000/svg"
   xmlns:svg="http://www.w3.org/2000/svg"
   xmlns:rdf="http://www.w3.org/1999/02/22-rdf-syntax-ns#"
   xmlns:cc="http://creativecommons.org/ns#"
   xmlns:dc="http://purl.org/dc/elements/1.1/">
  <sodipodi:namedview
     inkscape:document-rotation="0"
     inkscape:guide-bbox="true"
     showguides="false"
     inkscape:lockguides="false"
     inkscape:current-layer="svg11300"
     inkscape:window-maximized="0"
     inkscape:window-y="454"
     inkscape:window-x="464"
     inkscape:cy="12.734142"
     inkscape:cx="15.04944"
     inkscape:zoom="9.5020145"
     showgrid="false"
     id="namedview44"
     inkscape:window-height="411"
     inkscape:window-width="1322"
     inkscape:pageshadow="2"
     inkscape:pageopacity="0"
     guidetolerance="10"
     gridtolerance="10"
     objecttolerance="10"
     borderopacity="1"
     bordercolor="#666666"
     pagecolor="#ffffff"
     inkscape:showpageshadow="2"
     inkscape:pagecheckerboard="0"
     inkscape:deskcolor="#d1d1d1">
    <inkscape:grid
       empspacing="4"
       id="grid4761"
       type="xygrid"
       originx="0"
       originy="0" />
  </sodipodi:namedview>
  <title
     id="title4162">Adwaita Icon Template</title>
  <defs
     id="defs3">
    <linearGradient
       id="linearGradient1020"
       inkscape:swatch="gradient">
      <stop
         id="stop1016"
         offset="0"
         style="stop-color:#ffffff;stop-opacity:1;" />
      <stop
         id="stop1018"
         offset="1"
         style="stop-color:#ffffff;stop-opacity:0.09411765" />
    </linearGradient>
  </defs>
  <metadata
     id="metadata4">
    <rdf:RDF>
      <cc:Work
         rdf:about="">
        <dc:title>Adwaita Icon Template</dc:title>
      </cc:Work>
    </rdf:RDF>
  </metadata>
  <g
     id="g1063"
     transform="matrix(0.72444442,0,0,0.72444442,0.40888893,-122.74666)"
     style="stroke-width:1.38037" />
  <rect
     rx="1.5"
     ry="1.5"
     y="1.483871"
     x="1.483871"
     height="21.032257"
     width="21.032257"
     id="rect929-36-9-9-2"
     style="display:inline;opacity:1;vector-effect:none;fill:#00aade;fill-opacity:1;stroke:#006888;stroke-width:0.967742;stroke-linecap:butt;stroke-linejoin:miter;stroke-miterlimit:4;stroke-dasharray:none;stroke-dashoffset:0;stroke-opacity:1;marker:none;marker-start:none;marker-mid:none;marker-end:none;paint-order:normal;enable-background:new" />
  <path
     id="path864"
     style="display:inline;fill:#c1ebf7;fill-opacity:1;stroke:#006888;stroke-width:0.7;stroke-miterlimit:4;stroke-dasharray:none;stroke-opacity:1;enable-background:new"
     d="M 10.763672 3.3496094 L 9.8027344 6.2324219 C 9.6915219 6.2744383 9.5813978 6.3197124 9.4726562 6.3691406 L 6.7578125 5.0097656 L 5.0097656 6.7578125 L 6.3710938 9.4765625 C 6.3201424 9.5847188 6.271154 9.6918049 6.2265625 9.8027344 L 3.3496094 10.763672 L 3.3496094 13.236328 L 6.2324219 14.197266 C 6.2744318 14.308469 6.3197108 14.418602 6.3691406 14.527344 L 5.0097656 17.242188 L 6.7578125 18.990234 L 9.4765625 17.628906 C 9.5840684 17.680816 9.691521 17.728948 9.8027344 17.773438 L 10.763672 20.650391 L 13.236328 20.650391 L 14.197266 17.767578 C 14.30848 17.725548 14.418604 17.680304 14.527344 17.630859 L 17.242188 18.990234 L 18.990234 17.242188 L 17.628906 14.523438 C 17.680806 14.415935 17.728948 14.30848 17.773438 14.197266 L 20.650391 13.236328 L 20.650391 10.763672 L 17.767578 9.8027344 C 17.725477 9.6910529 17.679356 9.5817082 17.630859 9.4726562 L 18.990234 6.7578125 L 17.242188 5.0097656 L 14.523438 6.3710938 C 14.41529 6.3201374 14.308197 6.2711481 14.197266 6.2265625 L 13.236328 3.3496094 L 10.763672 3.3496094 z M 12 8.75 A 3.25 3.25 0 0 1 15.25 12 A 3.25 3.25 0 0 1 12 15.25 A 3.25 3.25 0 0 1 8.75 12 A 3.25 3.25 0 0 1 12 8.75 z " />
</svg>
