<?xml version="1.0" encoding="UTF-8" standalone="no"?>
<!-- Created with Inkscape (http://www.inkscape.org/) -->

<svg
   width="96"
   height="96"
   id="svg2"
   sodipodi:version="0.32"
   inkscape:version="1.2.2 (b0a8486541, 2022-12-01)"
   version="1.0"
   sodipodi:docname="org.xfce.panel.applicationsmenu.svg"
   inkscape:output_extension="org.inkscape.output.svg.inkscape"
   inkscape:export-filename="org.xfce.panel.applicationsmenu.png"
   inkscape:export-xdpi="96"
   inkscape:export-ydpi="96"
   xmlns:inkscape="http://www.inkscape.org/namespaces/inkscape"
   xmlns:sodipodi="http://sodipodi.sourceforge.net/DTD/sodipodi-0.dtd"
   xmlns="http://www.w3.org/2000/svg"
   xmlns:svg="http://www.w3.org/2000/svg"
   xmlns:rdf="http://www.w3.org/1999/02/22-rdf-syntax-ns#"
   xmlns:cc="http://creativecommons.org/ns#"
   xmlns:dc="http://purl.org/dc/elements/1.1/">
  <defs
     id="defs4">
    <linearGradient
       id="linearGradient3961">
      <stop
         id="stop3963"
         offset="0"
         style="stop-color:#cecece;stop-opacity:0.7019608;" />
      <stop
         id="stop3965"
         offset="1"
         style="stop-color:#1d1d1d;stop-opacity:0;" />
    </linearGradient>
    <clipPath
       clipPathUnits="userSpaceOnUse"
       id="clipPath1126">
      <rect
         style="opacity:0.5;vector-effect:none;fill:#ffffff;fill-opacity:1;fill-rule:nonzero;stroke:none;stroke-width:3.02543;stroke-linecap:square;stroke-linejoin:miter;stroke-miterlimit:4;stroke-dasharray:none;stroke-dashoffset:0;stroke-opacity:1;paint-order:normal"
         id="rect1128"
         width="512"
         height="512"
         x="17.850052"
         y="549.14514" />
    </clipPath>
  </defs>
  <sodipodi:namedview
     id="base"
     pagecolor="#ffffff"
     bordercolor="#666666"
     borderopacity="1.0"
     gridtolerance="10000"
     guidetolerance="10"
     objecttolerance="10"
     inkscape:pageopacity="0.0"
     inkscape:pageshadow="2"
     inkscape:zoom="15.839192"
     inkscape:cx="7.449875"
     inkscape:cy="15.089154"
     inkscape:document-units="px"
     inkscape:current-layer="layer10"
     showgrid="true"
     inkscape:window-width="1920"
     inkscape:window-height="1023"
     inkscape:window-x="0"
     inkscape:window-y="0"
     inkscape:window-maximized="1"
     inkscape:showpageshadow="2"
     inkscape:pagecheckerboard="0"
     inkscape:deskcolor="#d1d1d1">
    <inkscape:grid
       type="xygrid"
       id="grid244"
       originx="0"
       originy="0" />
  </sodipodi:namedview>
  <metadata
     id="metadata7">
    <rdf:RDF>
      <cc:Work
         rdf:about="">
        <dc:format>image/svg+xml</dc:format>
        <dc:type
           rdf:resource="http://purl.org/dc/dcmitype/StillImage" />
      </cc:Work>
    </rdf:RDF>
  </metadata>
  <g
     inkscape:groupmode="layer"
     id="layer10"
     inkscape:label="Mouse_Path"
     style="display:inline"
     transform="translate(-27.365845,-1015.3254)">
    <path
       inkscape:connector-curvature="0"
       style="fill:#00aade;fill-opacity:1;stroke-width:2.89362"
       d="m 45.323431,1099.7546 -8.470428,-8.706 1.268316,-1.3422 c 1.413054,-1.4952 2.735196,-2.9214 5.689962,-6.1356 1.099362,-1.1958 3.011652,-3.2682 4.249536,-4.6044 1.237884,-1.3362 2.842956,-3.0744 3.566838,-3.8622 2.375238,-2.5842 5.046408,-5.4852 8.289846,-9.0042 l 3.19266,-3.4638 -0.847458,-0.894 c -0.46614,-0.492 -3.211164,-3.5274 -6.10014,-6.7452 -7.136172,-7.9502 -9.49239,-10.5722 -9.567942,-10.6454 -0.0354,-0.06 -1.65642,-1.8372 -3.60285,-4.008 l -3.53898,-3.9456 4.571796,-4.3932 c 9.107598,-8.7516 10.050324,-9.6594 12.041928,-11.592 l 2.02362,-1.965 0.96459,1.2174 c 0.53052,0.669 3.643806,4.6068 6.918402,8.7498 11.90202,15.0582 13.115622,16.5714 13.25322,16.5258 0.13098,-0.06 2.364012,-2.6244 9.451182,-10.923 3.102066,-3.6318 3.576924,-4.1862 3.775776,-4.4064 0.06864,-0.078 2.26575,-2.6466 4.88238,-5.712 l 4.757515,-5.574 2.44668,2.3412 c 1.34567,1.287 5.29986,5.0496 8.78709,8.3598 l 6.3404,6.0192 -2.22253,2.319 c -2.66306,2.7774 -6.08739,6.3774 -12.27478,12.903 -2.53152,2.6696 -5.924395,6.2288 -7.539721,7.91 -1.615332,1.6794 -3.013116,3.1626 -3.106188,3.2928 -0.1563,0.222 0.039,0.468 2.572926,3.2202 1.508166,1.6404 3.696123,4.0284 4.862103,5.3058 1.16599,1.2768 3.56051,3.888 5.32113,5.8008 1.76063,1.9128 3.96844,4.3176 4.90623,5.3436 1.78487,1.953 2.37983,2.5986 5.97902,6.4902 l 2.20029,2.379 -0.87486,0.8586 c -0.48114,0.474 -1.52901,1.479 -2.32855,2.2386 -5.39443,5.121 -12.05419,11.4726 -13.72094,13.0854 l -1.97022,1.9056 -0.88217,-1.0266 c -1.352367,-1.5744 -6.428679,-7.6686 -18.070545,-21.6954 -1.136754,-1.3698 -2.65881,-3.204 -3.382344,-4.0776 -0.72354,-0.8736 -1.359522,-1.5876 -1.413288,-1.5876 -0.0534,0 -1.559466,1.773 -3.346008,3.9408 -1.78653,2.1672 -3.785622,4.59 -4.442424,5.3844 -0.656814,0.7944 -1.700868,2.0616 -2.320146,2.8146 -1.180848,1.4364 -1.480272,1.7982 -6.843264,8.283 -1.832256,2.2152 -4.077342,4.932 -4.989066,6.0366 -0.911712,1.1046 -1.732032,2.0718 -1.82292,2.1498 -0.13194,0.114 -1.873554,-1.6152 -8.635674,-8.5656 z"
       id="path2626" />
    <g
       id="g914"
       transform="matrix(0.18912264,0,0,0.1943754,-62.344979,892.89302)"
       style="fill:#070c0f;stroke-width:22.079">
      <path
         inkscape:export-ydpi="1026.8827"
         inkscape:export-xdpi="1026.8827"
         inkscape:export-filename="/home/knome/Stuff/xubuntu-mouse-draft-2.png"
         style="display:inline;fill:#070c0f;fill-opacity:1;fill-rule:evenodd;stroke:none;stroke-width:0.121389pt;stroke-linecap:butt;stroke-linejoin:miter;stroke-opacity:1"
         id="path13-8"
         d="m 931.74544,775.79875 c -2.29194,-1.89582 -20.26506,26.46187 -16.29077,29.40465 2.38972,1.7878 17.31457,-28.39371 16.29077,-29.40465 z"
         inkscape:connector-curvature="0" />
      <path
         inkscape:export-ydpi="1026.8827"
         inkscape:export-xdpi="1026.8827"
         inkscape:export-filename="/home/knome/Stuff/xubuntu-mouse-draft-2.png"
         style="display:inline;fill:#070c0f;fill-opacity:1;fill-rule:evenodd;stroke:none;stroke-width:0.121389pt;stroke-linecap:butt;stroke-linejoin:miter;stroke-opacity:1"
         id="path18-8"
         d="m 911.08398,771.82541 c -1.13435,-1.31705 -7.15369,29.24258 -4.37043,30.59564 2.3897,1.7878 6.55183,-29.00592 4.37043,-30.59564 z"
         inkscape:connector-curvature="0" />
      <path
         id="path14-8"
         d="m 490.39251,737.47244 c -2.3537,1.28875 18.83363,15.10215 58.42225,31.40062 39.59117,16.29847 94.28195,57.60761 89.99375,64.27515 -12.85922,18.11199 -20.44376,39.77441 -15.20901,76.87813 0.94406,6.53121 -19.35566,17.87183 -17.87913,27.72653 1.23475,7.49842 22.68907,-7.4337 25.03505,-4.4858 1.4354,5.29135 -11.47809,32.07149 -6.25876,33.9853 3.81738,1.13442 37.3757,-31.84431 39.32554,-31.29382 55.34179,16.73062 127.34835,4.09717 128.74256,3.56728 -0.13122,-0.29067 51.81438,24.42083 56.32887,21.46778 11.38784,-12.3319 -21.58193,-29.7126 -16.08481,-36.65543 2.4103,-3.63474 40.15723,13.64662 42.01702,8.92889 2.70617,-8.16723 -17.52752,-25.31623 -20.57061,-30.39666 -2.64699,-4.68427 -3.22116,-12.24882 3.56728,-16.98197 6.79101,-4.73314 76.22275,-31.2899 73.31085,-51.84307 -5.03414,-37.34552 -88.0554,-39.77075 -89.39566,-42.91418 -0.63017,-1.47654 3.65331,-53.40369 -20.57061,-43.81135 -14.91457,5.55115 -2.73759,38.63636 -1.77296,42.91419 0.89001,3.93828 -6.63573,3.52294 -8.05308,1.79432 -3.16396,-3.86368 -13.6106,-38.3492 -25.93222,-32.19098 -17.2811,9.52802 -1.01748,39.25808 -4.46444,40.2227 -6.4026,3.57816 -6.0399,12.31819 -11.17179,19.43848 -8.46299,12.12868 -71.7872,-5.68106 -92.25802,-6.92095 -14.98659,-0.88489 -29.32133,11.41139 -30.67435,9.84741 -18.24833,-18.27405 -56.0023,-50.09534 -97.36328,-60.66515 -23.19496,-6.29458 -57.70051,-24.51893 -59.08444,-24.28742 z m 361.91887,69.87172 c 3.95743,0 7.15593,3.65412 7.15593,8.15989 10e-6,4.50575 -3.1985,8.15989 -7.15593,8.15989 -3.95744,0 -7.17728,-3.65414 -7.17728,-8.15989 10e-6,-4.50577 3.21984,-8.15989 7.17728,-8.15989 z m -16.08481,4.95575 c 3.04559,13.14733 7.79958,17.33717 22.06588,16.91788 -18.15827,16.65089 -29.19393,-11.87861 -22.06588,-16.91788 z m 39.26146,34.36979 c 0.74297,0.0282 1.31493,0.19751 1.68752,0.55539 7.15367,2.59296 -30.74272,16.23854 -30.99475,14.31185 -0.39407,-1.37542 22.12522,-15.13943 29.30723,-14.86724 z m 3.84499,8.73664 c 0.39154,-0.0303 0.73626,0.0219 1.02532,0.17089 6.75243,6.70871 -21.37827,21.58409 -21.06191,21.06191 -2.26689,-1.36979 14.16329,-20.77712 20.03659,-21.2328 z"
         style="display:inline;fill:#070c0f;fill-opacity:1;fill-rule:evenodd;stroke:none;stroke-width:0.202314pt;stroke-linecap:butt;stroke-linejoin:miter;stroke-opacity:1"
         inkscape:connector-curvature="0" />
    </g>
  </g>
</svg>
