<?xml version="1.0" encoding="UTF-8" standalone="no"?>
<!-- Created with Inkscape (http://www.inkscape.org/) -->

<svg
   width="96"
   height="96"
   id="svg2"
   sodipodi:version="0.32"
   inkscape:version="1.2.2 (b0a8486541, 2022-12-01)"
   version="1.0"
   sodipodi:docname="org.xfce.panel.applicationsmenu.svg"
   inkscape:output_extension="org.inkscape.output.svg.inkscape"
   inkscape:export-filename="org.xfce.panel.applicationsmenu.png"
   inkscape:export-xdpi="96"
   inkscape:export-ydpi="96"
   xmlns:inkscape="http://www.inkscape.org/namespaces/inkscape"
   xmlns:sodipodi="http://sodipodi.sourceforge.net/DTD/sodipodi-0.dtd"
   xmlns="http://www.w3.org/2000/svg"
   xmlns:svg="http://www.w3.org/2000/svg"
   xmlns:rdf="http://www.w3.org/1999/02/22-rdf-syntax-ns#"
   xmlns:cc="http://creativecommons.org/ns#"
   xmlns:dc="http://purl.org/dc/elements/1.1/">
  <defs
     id="defs4" />
  <sodipodi:namedview
     id="base"
     pagecolor="#ffffff"
     bordercolor="#666666"
     borderopacity="1.0"
     gridtolerance="10000"
     guidetolerance="10"
     objecttolerance="10"
     inkscape:pageopacity="0.0"
     inkscape:pageshadow="2"
     inkscape:zoom="11.2"
     inkscape:cx="45.714286"
     inkscape:cy="34.375"
     inkscape:document-units="px"
     inkscape:current-layer="layer10"
     showgrid="true"
     inkscape:window-width="1322"
     inkscape:window-height="411"
     inkscape:window-x="496"
     inkscape:window-y="505"
     inkscape:window-maximized="0"
     inkscape:showpageshadow="2"
     inkscape:pagecheckerboard="0"
     inkscape:deskcolor="#d1d1d1">
    <inkscape:grid
       type="xygrid"
       id="grid244"
       originx="0"
       originy="0" />
  </sodipodi:namedview>
  <metadata
     id="metadata7">
    <rdf:RDF>
      <cc:Work
         rdf:about="">
        <dc:format>image/svg+xml</dc:format>
        <dc:type
           rdf:resource="http://purl.org/dc/dcmitype/StillImage" />
      </cc:Work>
    </rdf:RDF>
  </metadata>
  <g
     inkscape:groupmode="layer"
     id="layer10"
     inkscape:label="Mouse_Path"
     style="display:inline"
     transform="translate(-27.365845,-1015.3254)">
    <path
       inkscape:connector-curvature="0"
       style="fill:#00aade;fill-opacity:1;stroke:none;stroke-width:1;stroke-dasharray:none"
       d="m 44.298915,1097.326 -7.905734,-8.1256 1.183762,-1.2528 c 1.31885,-1.3954 2.55285,-2.7266 5.310632,-5.7264 1.02607,-1.1162 2.810874,-3.0504 3.966234,-4.2976 1.155358,-1.247 2.653424,-2.8694 3.329048,-3.6046 2.21689,-2.412 4.709982,-5.1196 7.73719,-8.404 l 2.979816,-3.2328 -0.79096,-0.8344 c -0.435064,-0.4592 -2.997086,-3.2922 -5.693464,-6.2956 -6.660428,-7.4202 -8.859566,-9.8674 -8.93008,-9.9356 -0.03304,-0.056 -1.545992,-1.7148 -3.36266,-3.7408 l -3.30305,-3.6826 4.26701,-4.1004 c 8.500426,-8.1682 9.380304,-9.0154 11.239134,-10.8192 l 1.888712,-1.834 0.900284,1.1362 c 0.495152,0.6244 3.400886,4.2998 6.457176,8.1666 11.108554,14.0542 12.241248,15.4666 12.369674,15.424 0.12224,-0.056 2.20641,-2.4494 8.821104,-10.1948 2.895262,-3.3896 3.338462,-3.907 3.524058,-4.1126 0.06406,-0.072 2.1147,-2.4702 4.556888,-5.3312 l 4.440346,-5.2024 2.283568,2.1852 c 1.255967,1.2012 4.946537,4.7128 8.201287,7.8024 l 5.91771,5.618 -2.07437,2.1644 c -2.48551,2.5922 -5.68156,5.9522 -11.45646,12.0428 -2.362749,2.4916 -5.529431,5.8134 -7.037069,7.3826 -1.507644,1.5674 -2.812242,2.9518 -2.899108,3.0732 -0.14588,0.2072 0.0364,0.4368 2.401396,3.0056 1.407622,1.531 3.449714,3.7598 4.537966,4.952 1.088254,1.1918 3.323135,3.6288 4.966385,5.4142 1.64326,1.7852 3.70388,4.0298 4.57915,4.9874 1.66588,1.8228 2.22118,2.4252 5.58042,6.0574 l 2.0536,2.2204 -0.81653,0.8014 c -0.44907,0.4424 -1.42708,1.3804 -2.17332,2.0894 -5.0348,4.7796 -11.25058,10.7078 -12.806207,12.213 l -1.838872,1.7786 -0.823358,-0.9582 c -1.262212,-1.4694 -6.000104,-7.1574 -16.865846,-20.249 -1.06097,-1.2786 -2.481556,-2.9904 -3.156854,-3.8058 -0.675304,-0.8154 -1.268888,-1.4818 -1.31907,-1.4818 -0.04984,0 -1.4555,1.6548 -3.12294,3.6782 -1.667428,2.0226 -3.533248,4.284 -4.146262,5.0254 -0.613028,0.7414 -1.587478,1.9242 -2.16547,2.627 -1.102126,1.3406 -1.381588,1.6782 -6.387048,7.7308 -1.710106,2.0674 -3.80552,4.6032 -4.656462,5.634 -0.85093,1.031 -1.616562,1.9338 -1.701392,2.0066 -0.12314,0.106 -1.74865,-1.5076 -8.059964,-7.9946 z"
       id="path2626" />
    <circle
       style="fill:#ffffff;fill-rule:evenodd;stroke:none;stroke-width:1;stroke-linecap:square;stroke-dasharray:none;stop-color:#000000"
       id="path5701"
       cx="97.365845"
       cy="1059.3254"
       r="8" />
    <g
       id="g914"
       transform="matrix(0.19022586,0,0,0.19550912,-65.885795,895.10596)"
       style="fill:#070c0f;stroke-width:10.9755">
      <path
         inkscape:export-ydpi="1026.8827"
         inkscape:export-xdpi="1026.8827"
         inkscape:export-filename="/home/knome/Stuff/xubuntu-mouse-draft-2.png"
         style="display:inline;fill:#070c0f;fill-opacity:1;fill-rule:evenodd;stroke:none;stroke-width:0.0603425pt;stroke-linecap:butt;stroke-linejoin:miter;stroke-opacity:1"
         id="path13-8"
         d="m 931.74544,775.79875 c -2.29194,-1.89582 -20.26506,26.46187 -16.29077,29.40465 2.38972,1.7878 17.31457,-28.39371 16.29077,-29.40465 z"
         inkscape:connector-curvature="0" />
      <path
         inkscape:export-ydpi="1026.8827"
         inkscape:export-xdpi="1026.8827"
         inkscape:export-filename="/home/knome/Stuff/xubuntu-mouse-draft-2.png"
         style="display:inline;fill:#070c0f;fill-opacity:1;fill-rule:evenodd;stroke:none;stroke-width:0.0603425pt;stroke-linecap:butt;stroke-linejoin:miter;stroke-opacity:1"
         id="path18-8"
         d="m 911.08398,771.82541 c -1.13435,-1.31705 -7.15369,29.24258 -4.37043,30.59564 2.3897,1.7878 6.55183,-29.00592 4.37043,-30.59564 z"
         inkscape:connector-curvature="0" />
      <path
         id="path14-8"
         d="m 490.39251,737.47244 c -2.3537,1.28875 18.83363,15.10215 58.42225,31.40062 39.59117,16.29847 94.28195,57.60761 89.99375,64.27515 -12.85922,18.11199 -20.44376,39.77441 -15.20901,76.87813 0.94406,6.53121 -19.35566,17.87183 -17.87913,27.72653 1.23475,7.49842 22.68907,-7.4337 25.03505,-4.4858 1.4354,5.29135 -11.47809,32.07149 -6.25876,33.9853 3.81738,1.13442 37.3757,-31.84431 39.32554,-31.29382 55.34179,16.73062 127.34835,4.09717 128.74256,3.56728 -0.13122,-0.29067 51.81438,24.42083 56.32887,21.46778 11.38784,-12.3319 -21.58193,-29.7126 -16.08481,-36.65543 2.4103,-3.63474 40.15723,13.64662 42.01702,8.92889 2.70617,-8.16723 -17.52752,-25.31623 -20.57061,-30.39666 -2.64699,-4.68427 -3.22116,-12.24882 3.56728,-16.98197 6.79101,-4.73314 76.22275,-31.2899 73.31085,-51.84307 -5.03414,-37.34552 -88.0554,-39.77075 -89.39566,-42.91418 -0.63017,-1.47654 3.65331,-53.40369 -20.57061,-43.81135 -14.91457,5.55115 -2.73759,38.63636 -1.77296,42.91419 0.89001,3.93828 -6.63573,3.52294 -8.05308,1.79432 -3.16396,-3.86368 -13.6106,-38.3492 -25.93222,-32.19098 -17.2811,9.52802 -1.01748,39.25808 -4.46444,40.2227 -6.4026,3.57816 -6.0399,12.31819 -11.17179,19.43848 -8.46299,12.12868 -71.7872,-5.68106 -92.25802,-6.92095 -14.98659,-0.88489 -29.32133,11.41139 -30.67435,9.84741 -18.24833,-18.27405 -56.0023,-50.09534 -97.36328,-60.66515 -23.19496,-6.29458 -57.70051,-24.51893 -59.08444,-24.28742 z m 361.91887,69.87172 c 3.95743,0 7.15593,3.65412 7.15593,8.15989 10e-6,4.50575 -3.1985,8.15989 -7.15593,8.15989 -3.95744,0 -7.17728,-3.65414 -7.17728,-8.15989 10e-6,-4.50577 3.21984,-8.15989 7.17728,-8.15989 z m -16.08481,4.95575 c 3.04559,13.14733 7.79958,17.33717 22.06588,16.91788 -18.15827,16.65089 -29.19393,-11.87861 -22.06588,-16.91788 z m 39.26146,34.36979 c 0.74297,0.0282 1.31493,0.19751 1.68752,0.55539 7.15367,2.59296 -30.74272,16.23854 -30.99475,14.31185 -0.39407,-1.37542 22.12522,-15.13943 29.30723,-14.86724 z m 3.84499,8.73664 c 0.39154,-0.0303 0.73626,0.0219 1.02532,0.17089 6.75243,6.70871 -21.37827,21.58409 -21.06191,21.06191 -2.26689,-1.36979 14.16329,-20.77712 20.03659,-21.2328 z"
         style="display:inline;fill:#070c0f;fill-opacity:1;fill-rule:evenodd;stroke:none;stroke-width:5.1854;stroke-linecap:butt;stroke-linejoin:miter;stroke-dasharray:none;stroke-opacity:1"
         inkscape:connector-curvature="0" />
    </g>
  </g>
</svg>
