/* XPM */
static char *file2_xpm[] = {
  "48 48 10 1",
  "+ c none",
  ". c #bebebe",
  "# c #a2a2a2",
  "a c #183c59",
  "b c #595959",
  "c c #ffffff",
  "d c #ff00ff",
  "e c #797979",
  "f c #0000ff",
  "g c #00ff00",
  "+++++++++++++++++++............+++++++++++++++++",
  "+++++++++#####a++++.##########ab+++++++++cddb#++",
  "+++++++++e#cccab+++.baaaaaaaa#ab#+++++++cdddab#+",
  "+++++++++#ccccab#++.bafafafa.#ab#++++++cddddab#+",
  "+++++++++e##ccab#++.bafafaaf.#ab#+++++cagddab#++",
  "+++++++++#ccccab#++.ba.......#ab#++++cgcagab#+++",
  "++bbbbbbbe#cccabbbb.b#.##.##.#abbbbbcgggcbb#++++",
  "++bbbbbbb#ccccabbbb.b..b..b..#abbbbcgggcbb#+++++",
  "++bbbbbbbe##ccabbbb.bbbbbbbbb#abbbcgggcab#++++++",
  "++bbbbbbb#ccccabbbb.b#.##.##.#abbcgggcab#+++++++",
  "++b#bbbbbe#cccabbbb.b..b..b..#abcgggcab#++++++++",
  "++b##bbbb#ccccabbbb.bbbbbbbbb#acgggcabb+++++++++",
  "++b###bbbe##ccabbbb.b#########aaaaaabbb+++++++++",
  "++b##ccccccccccccccccccccccccccccccccccccc++++++",
  "++b##c###################################a++++++",
  "++b##c###################################a++++++",
  "++bb#c###################################a++++++",
  "++bbbc###################################a++++++",
  "++bbbc###################################a++++++",
  "++bbbc###################################a++++++",
  "++bbbc##########ccccccccccccccc##########a#+++++",
  "++b#bc##########c#############cb#########a##++++",
  "++b##c##########c#ggggggggggggcb#########a###+++",
  "++b##c##########c#ggggggggggggcb#########ab###++",
  "++b##c##########c#ggggggggggggcb#########abb###+",
  "++b##c##########caaaaaaaaaaaaacb#########abbb##+",
  "++b##c##########cabbbbbbbbbbbbcb#########abbb##+",
  "++bb#c##########ca############cb#########abbb##+",
  "++bbbc##########cccccccccccccccb#########abbb##+",
  "++bbbc###########bbbbbbbbbbbbbbb#########abbb##+",
  "++bbbc###################################abbb##+",
  "++bbbc###################################abbb##+",
  "++b#bc###################################abbb##+",
  "++b##c###################################abbb##+",
  "++b##c###################################abbb##+",
  "++b##c###################################abbb##+",
  "++b##c###################################abbb##+",
  "+++##c###################################abbb##+",
  "++++#c###################################abbb##+",
  "+++++c###################################abbb##+",
  "+++++c###################################abbb##+",
  "+++++c###################################abbb##+",
  "+++++caaaaaaaaaaaaaaaaaaaaaaaaaaaaaaaaaaaabbb##+",
  "+++++++++###bbbbbbbbbbbbbbbbbbbbbbbbbbbbbbbbb##+",
  "++++++++++###bbbbbbbbbbbbbbbbbbbbbbbbbbbbbbbb##+",
  "+++++++++++###bbbbbbbbbbbbbbbbbbbbbbbbbbbbbbb##+",
  "++++++++++++###################################+",
  "+++++++++++++##################################+"
};
