/* XPM */
static char *network_xpm[] = {
  "48 48 9 1",
  ". c none",
  "# c #ffffff",
  "a c #a2a2a2",
  "b c #797979",
  "c c #183c59",
  "d c #595959",
  "e c #ff6145",
  "f c #bebebe",
  "g c #ffff00",
  "................................................",
  "................................................",
  ".......#aaaaab..................................",
  "..#################.............................",
  "..#bbbbbbbbbbbbbbbb.............................",
  "..#bccccccccccccc#b.............................",
  "..#bcbbcbcbbccccc#b.............................",
  "..#bccccccccccccc#b.............................",
  "..#bcbcbbcccccccc#bdddddddd.....................",
  "..#bccccccccccccc#beeffffffddd..................",
  "..#bcbcbccccccccc#beegggggffffdd................",
  "..#bccccccccccccc#beedddddgggffadb..............",
  "..#bcbbbcbccccccc#b######ddddggfaab.............",
  "..#bccccccccccccc#b......###dddggaaf............",
  "..#bccccccccccccc#b.........##dddgaaf...........",
  "..#b##############b...........##bbgabf..........",
  "..#bbbbbbbbbbbbbbbb.............#ffgb#..........",
  "......ddddddddd..................bfgb#..........",
  ".....##aaaaaaabb.................bfgb#..........",
  "...##c#c#c#c#c#cbb..............bbfgb#..........",
  ".##ac#c#c#c#cac#cabb..........ddfffgb#..........",
  ".aaaaaaaaaaaaaaaaaab.....dddddfffggbb#..........",
  ".ddddddddddddddddddddddddffffffggbbb#...........",
  ".............ddddfffffffffgggggbbb##............",
  "...........ddfffffggggggggbbbbbb##..............",
  ".........ddfffggggddddddddd#####.#aaaaab........",
  "........dfffggdddd#########.#################...",
  ".......dffggdd####..........#bbbbbbbbbbbbbbbb...",
  "......dffgdd##..............#bccccccccccccc#b...",
  "......dfgdd#................#bcbbcbcbbccccc#b...",
  "......dfgd#.................#bccccccccccccc#b...",
  "......dfgd#.................#bcbcbbcccccccc#b...",
  "......dfgdbd................#bccccccccccccc#b...",
  "......dffgbbd...............#bcbcbccccccccc#b...",
  ".......aaagbbddd............#bccccccccccccc#b...",
  "........faaggbbbdd..........#bcbbbcbccccccc#b...",
  ".........fbbbggfffdddd......#bccccccccccccc#b...",
  "..........f#bbbggfffffdddddd#bccccccccccccc#b...",
  "............##bbbggggfffffee#b##############b...",
  "..............##bbbbbgggggee#bbbbbbbbbbbbbbbb...",
  "................####bbbbbbee....ddddddddd.......",
  "....................########...##aaaaaaabb......",
  ".............................##c#c#c#c#c#cbb....",
  "...........................##ac#c#c#c#cac#cabb..",
  "...........................aaaaaaaaaaaaaaaaaab..",
  "...........................ddddddddddddddddddd..",
  "................................................",
  "................................................"
};
