/* XPM */
static char *sound_xpm[] = {
  "48 48 10 1",
  ". c none",
  "# c #000000",
  "a c #ffffff",
  "b c #a2a2a2",
  "c c #bebebe",
  "d c #797979",
  "e c #ff0000",
  "f c #595959",
  "g c #ffff00",
  "h c #0000ff",
  "................................................",
  "................................................",
  ".......#####....................................",
  "......#abaca#...................................",
  ".....#ababada#................##................",
  "....#ababada#c#..............#aa#........e......",
  "...#ababada#c#c#............#a#f#a.....eeed.....",
  "..#ababada#a#b#fa..........#ac#f#a...eeeeed.....",
  "..#cabada#a#c#dfa..........#a#fff#aeeeeeeed.....",
  "..#abada#a#c#b#fa.........#ac#fffeeeeeeeeed.....",
  "..#cada#a#c#b#dfa........#acc#feeeeeeddeeed.....",
  "..#ada#a#c#b#d#fa.......#accceeeeeedd..eeed.....",
  "..#ca#c#c#b#d#dfa.......#acceeeee#b....eeed.....",
  "...a#c#c#b#d#dfa.......#accceee###a....eeed.....",
  "....a#c#b#d#dfa.......#acccceee#ffa....eeed.....",
  ".....a#d#d#dfa.......#accccceee#ffa...eeeed.....",
  "......#fffffa.......#acccccceee#ff#a.eeeeed.....",
  "......#acbdfa.......#acccccbeee#ff#a.eeeeec.....",
  "......#acedfa#######accccbbeeee#ff#a.eeeeec.....",
  "......#acedfaccaaaaaccccbbeeeee#ff#a..eeedg.....",
  "......#achdfabbccccccccbbbeeeee#ff#a..gdd.gg....",
  "......#achdfabbccccccbbbbbeeeee#ff#a..gg...g....",
  "......#acbdfaddbbbbbbbbbbbbeee###f#a...g...g....",
  "......#acbdfaddbbbbbbbbbbbbb##f##f#a...g...g....",
  "......#acbdfaffdddddbbbbbbbb#ff##f#a...g...g....",
  "......#acbdfaffdddddddbbbbbb#ff#ff#a..gg...g....",
  "......#acbdfafffffffddddbbbb#fffff#a..g...gg....",
  "......#acbdfa#######fdddddbb#fffff#a..g...g.....",
  ".......cabfdaaaaaaaa#fdddddd#fffff#a......g.....",
  ".......babfb........a#fddddd#fffff#a.....gg.....",
  ".......dabfc.........a#fdddd#fffff#a....gg......",
  ".......fabfa.........a#ffddd#fffff#a...gg.......",
  ".......#abfa..........a#ffdd#fffff#a...g........",
  ".......#abfa...........a#ffdd#fff#a.............",
  ".......#abfa............a#ffd#fff#a.............",
  ".......#abfa.............#fff#fff#a.............",
  ".......#abfa.............a#ff#fff#a.............",
  ".......#abfa..............a#f#fff#a.............",
  ".......#abfa...............a##fff#a.............",
  ".......#abfa...............a#f#f##a.............",
  ".......#fffa................a##f#a..............",
  ".......aa#aa.................a###a..............",
  ".........#....................aaa...............",
  "..........##....................................",
  "............##..................................",
  "..............####..............................",
  "..................#######.......................",
  "................................................"
};
