/* XPM */
static char * trash_empty_xpm[] = {
"53 53 11 1",
" 	c None",
".	c #4E4E4E",
"+	c #D1D1D1",
"@	c #969696",
"#	c #E1E1E1",
"$	c #AFAFAF",
"%	c #C8C8C8",
"&	c #4B4B4B",
"*	c #000000",
"=	c #7D7D7D",
"-	c #989999",
"                                                     ",
"          ............................+++            ",
"          .@#######################$@@...+           ",
"          .@#######################$@@...+           ",
"          .#@@#########################@@.+          ",
"          .#%%#%%%%%%%%%%%%%%%%%%%%%%%%##&+          ",
"          .#%%#%%%%%%%%%%%%%%%%%%%%%%%%##&+          ",
"          .#%%#%%%%%%%%%%%%%%%%%%%%%%%%##&+          ",
"          .&%%#%%%%%%%%%%%%%%%%%%%%%%%%##&+          ",
"          .&%%#%%%%%%%%%%%%%%%%%%%%%%%%##&+          ",
"          .#&&&&&&&&&&&&&&&&&&&&&&&&&&&&&&+          ",
"          .$##%%%%%%%%%%%%%%%%%%%%%%%%%%%&+          ",
"          .$##%%%%%%%%%%%%%%%%%%%%%%%%%%%&+          ",
"          .@$$%@@@@@@@@@@@@@@@@@@@@@@@@@@&+          ",
"          .@$$%@@@@@@@@@@@@@@@@@@@@@@@@@@&+          ",
"          .@$$%@@@@@@@@@@@@@@@@@@@@@@@@@@&+          ",
"          .$$$%@@@@@@@@@@@@@@@@@@@@@@@@@@&+          ",
"          .$$$%@@@@@@@@@@@@@@@@@@@@@@@@@@&+          ",
"          .@$$%@@@@@@@@@@@@@@@@@@@@@@@@@@&+          ",
"          .$$$%@@@@@@@@@@@@@@@@@@@@@@@@@@&+          ",
"          .$$$%@@@@@@@@@@@@@@@@@@@@@@@@@@&+          ",
"          .@$$%@@@@@@@@@@@@@@@@@@@@@@@@@@&+          ",
"          .$$$%@@@@@@@@@@@@@@@@@@@@@@@@@@&+          ",
"          .$$$%@@@@@@@@@@@@@@@@@@@@@@@@@@&+          ",
"          .@$$%@@@@@@@@@@@@@@@@@@@@@@@@@@&+          ",
"          .$$$%@@@@@@@@@@@@@@@@@@@@@@@@@@&+          ",
"          .$$$%@@@@@@@@@@@@@@@@@@@@@@@@@@&+          ",
"          .@$$%@@@@@@@@@@@@@@@@@@@@@@@@@@&+          ",
"          .$$$%@@@@@@@@@@@@@@@@@@@@@@@@@@&+          ",
"          .$$$%@@@@@@@@@@@@@@@@@@@@@@@@@@&+          ",
"          .@$$%@@@@@@@@@@@@@@@@@@@@@@@@@@&+          ",
"          .$$$%@@@@@@@@@@@@@@@@@@@@@@@@@@&+          ",
"          .$$$%@@@@@@@@@@@@@@@@@@@@@@@@@@&+          ",
"          .@$$%@@@@@@@@@@@@@@@@@@@@@@@@@@&+          ",
"          .$$$%@@@@@@@@@@@@@@@@@@@@@@@@@@&+          ",
"          .$$$%@@@@@@@@@@@@@@@@@@@@@@@@@@&+          ",
"          .@$$%@@@@@@@@@@@@@@@@@@@@@@@@@@&+          ",
"          .$$$%@@@@@@@@@@@@@@@@@@@@@@@@@@&+          ",
"          .$$$%@@@@@@@@@@@@@@@@@@@@@@@@@@&+          ",
"          .@$$%@@@@@@@@@@@@@@@@@@@@@@@@@@&+          ",
"          .$$$%@@@@@@@@@@@@@@@@@@@@@@@@@@&+          ",
"          .$$$%@@@@@@@@@@@@@@@@@@@@@@@@@@&+          ",
"          .@$$%@@@@@@@@@@@@@@@@@@@@@@@@@@&+          ",
"          .$$$%@@@@@@@@@@@@@@@@@@@@@@@@@@&+          ",
"          .$$$%@@@@@@@@@@@@@@@@@@@@@@@@@@&+          ",
"          .@$$%@@@@@@@@*********@@@@@@@@@&+          ",
"          +*$$%@@@@@@@@*#########==@@@@@@&+          ",
"          +*$$%@@@@@@@@*#########==@@@@@@&+          ",
"           +**%@@@@@@@@*********===@@@@@@&+          ",
"            ++****************************+          ",
"            ++****************************+          ",
"              ++++++++++--------+++++++++++          ",
"                                                     "};
