/* XPM */
static char *unknown_xpm[] = {
  "48 48 17 1",
  " 	c None",
  ".	c #111256",
  "+	c #04801F",
  "@	c #971305",
  "#	c #024711",
  "$	c #5C0D08",
  "%	c #022E0C",
  "&	c #D11A04",
  "*	c #3231DD",
  "=	c #02BE2F",
  "-	c #02681A",
  ";	c #AE460C",
  ">	c #492C90",
  ",	c #119E27",
  "'	c #02D836",
  ")	c #4A400C",
  "!	c #300812",
  "                                                ",
  "                                                ",
  "                      $                         ",
  "                   !&$$&!$@                     ",
  "                  $$@&@&@@&  $                  ",
  "       .*        !&&@&&&&&&@@@                  ",
  "     *..**  .   !@$&&&&&@&@&&&$                 ",
  "    ..*.*****.  $@@@&&&&&&&@&@@@@               ",
  "    ..********  !@&&&&&&&&&&@&&@&               ",
  "     .** ....* .$@@&&&&&&@&&&@&@&$              ",
  "   .****    ..***$@@&&&&&&&@&&&@&@&@            ",
  "   ..***     .>**@&&&&&&&&&&&@&@&&@@            ",
  "    ...*      .*.$&&&&&&&&&@$@&&@&&@            ",
  "      .*.     ..*>@@&&&&&&&@@@@@&@&@@$          ",
  "      ***      .***$&&&&&&&@@@@@&&&&&@$         ",
  "     ..***.    .***@&&&&&&&@ @@@@@&@&@          ",
  "     .....**   ***!@&&&&&&&& $@@@&&@&&          ",
  "         .********$$@@&&&&&&&$@$@&&&@&@@        ",
  "         .***.**.**$$$@&&&&&&&&&&&&&&&@@        ",
  "         .....**.. !$$&&&&&&&&&&&&&@&&&         ",
  "          .  ..*    !!&&&&&&&&&&&&&&&@&@        ",
  "              .     $$$$@&&&&&&&&&&&&&&@@       ",
  "                    $!$$$@&&&&&&&&&&&&&@!       ",
  "                       $$@&&&&&&&&&&&&&@        ",
  "                       !$$&@@&&&&&&&&&@@@       ",
  "                       $$!$$@&&&&&&&&&&$        ",
  "                        ! !$$&&$&;&+,@&         ",
  "                           $$$@$-',+')$         ",
  "                           $! )--,'=', ,        ",
  "                             #-+++''''''-       ",
  "                            ---+'''''''=+       ",
  "                            ---#,''''''==       ",
  "                            -#%#%+'''++'='=     ",
  "                           ##%###-'''--=='=     ",
  "                           %####-'''''+,='+     ",
  "                            %##-#=''''=='==     ",
  "                             ####%#-''''''='    ",
  "                            %##%%%%#''''''=+-   ",
  "                            ##%%%%++='''='=%    ",
  "                             ..%--+-,=#='+=-    ",
  "                               -+-#%%--+'--=    ",
  "                               +-#%#-+--=+%     ",
  "                               #%.-----#%%      ",
  "                                  #+--%%        ",
  "                                   -%           ",
  "                                                ",
  "                                                ",
  "                                                "
};
