<?xml version="1.0" encoding="UTF-8" standalone="no"?>
<!-- Created with Inkscape (http://www.inkscape.org/) -->

<svg
   xmlns:dc="http://purl.org/dc/elements/1.1/"
   xmlns:cc="http://creativecommons.org/ns#"
   xmlns:rdf="http://www.w3.org/1999/02/22-rdf-syntax-ns#"
   xmlns:svg="http://www.w3.org/2000/svg"
   xmlns="http://www.w3.org/2000/svg"
   xmlns:sodipodi="http://sodipodi.sourceforge.net/DTD/sodipodi-0.dtd"
   xmlns:inkscape="http://www.inkscape.org/namespaces/inkscape"
   width="16"
   height="16"
   id="svg2"
   sodipodi:version="0.32"
   inkscape:version="0.92.4 (5da689c313, 2019-01-14)"
   version="1.0"
   sodipodi:docname="org.xfce.panel.applicationsmenu.svg"
   inkscape:output_extension="org.inkscape.output.svg.inkscape"
   inkscape:export-filename="/home/knome/xfce_logo.png"
   inkscape:export-xdpi="96"
   inkscape:export-ydpi="96">
  <defs
     id="defs4">
    <linearGradient
       id="linearGradient3961">
      <stop
         id="stop3963"
         offset="0"
         style="stop-color:#cecece;stop-opacity:0.7019608;" />
      <stop
         id="stop3965"
         offset="1"
         style="stop-color:#1d1d1d;stop-opacity:0;" />
    </linearGradient>
    <clipPath
       clipPathUnits="userSpaceOnUse"
       id="clipPath1126">
      <rect
         style="opacity:0.5;vector-effect:none;fill:#ffffff;fill-opacity:1;fill-rule:nonzero;stroke:none;stroke-width:3.02543163;stroke-linecap:square;stroke-linejoin:miter;stroke-miterlimit:4;stroke-dasharray:none;stroke-dashoffset:0;stroke-opacity:1;paint-order:normal"
         id="rect1128"
         width="512"
         height="512"
         x="17.850052"
         y="549.14514" />
    </clipPath>
  </defs>
  <sodipodi:namedview
     id="base"
     pagecolor="#ffffff"
     bordercolor="#666666"
     borderopacity="1.0"
     gridtolerance="10000"
     guidetolerance="10"
     objecttolerance="10"
     inkscape:pageopacity="0.0"
     inkscape:pageshadow="2"
     inkscape:zoom="11.2"
     inkscape:cx="2.0173893"
     inkscape:cy="29.493206"
     inkscape:document-units="px"
     inkscape:current-layer="layer10"
     showgrid="false"
     inkscape:window-width="1617"
     inkscape:window-height="1109"
     inkscape:window-x="461"
     inkscape:window-y="206"
     inkscape:window-maximized="0" />
  <metadata
     id="metadata7">
    <rdf:RDF>
      <cc:Work
         rdf:about="">
        <dc:format>image/svg+xml</dc:format>
        <dc:type
           rdf:resource="http://purl.org/dc/dcmitype/StillImage" />
        <dc:title></dc:title>
      </cc:Work>
    </rdf:RDF>
  </metadata>
  <g
     inkscape:groupmode="layer"
     id="layer10"
     inkscape:label="Mouse_Path"
     style="display:inline"
     transform="translate(-27.365845,-1023.3254)">
    <path
       inkscape:connector-curvature="0"
       style="fill:#00aade;fill-opacity:1;stroke-width:0.68355101"
       d="m 29.785818,1037.2674 -1.419973,-1.42 0.212619,-0.2189 c 0.236883,-0.2439 0.458526,-0.4765 0.953859,-1.0008 0.184296,-0.1951 0.50487,-0.533 0.712388,-0.751 0.207517,-0.218 0.47659,-0.5014 0.59794,-0.6299 0.398183,-0.4215 0.845975,-0.8947 1.389701,-1.4687 l 0.535214,-0.565 -0.142067,-0.1458 c -0.07814,-0.08 -0.538316,-0.5753 -1.02262,-1.1002 -1.196301,-1.2968 -1.591294,-1.7244 -1.60396,-1.7364 -0.0059,-0.01 -0.27768,-0.2997 -0.603977,-0.6537 l -0.593271,-0.6436 0.766411,-0.7165 c 1.526787,-1.4275 1.684825,-1.5756 2.018695,-1.8909 l 0.339237,-0.3204 0.161703,0.1985 c 0.08894,0.1092 0.610843,0.7515 1.159793,1.4272 1.995242,2.4561 2.198689,2.7029 2.221756,2.6955 0.02195,-0.01 0.3963,-0.4281 1.584385,-1.7816 0.520027,-0.5924 0.599632,-0.6828 0.632967,-0.7187 0.01151,-0.013 0.379828,-0.4317 0.818477,-0.9317 l 0.797545,-0.9092 0.410158,0.3819 c 0.225587,0.21 0.888463,0.8236 1.473058,1.3636 l 1.062898,0.9817 -0.372584,0.3782 c -0.446431,0.4531 -1.020482,1.0403 -2.05773,2.1046 -0.42438,0.4355 -0.993158,1.0161 -1.26395,1.2902 -0.270793,0.2741 -0.505115,0.5159 -0.520717,0.5372 -0.0262,0.036 0.0066,0.076 0.431322,0.5253 0.252828,0.2675 0.619614,0.6569 0.815078,0.8653 0.195465,0.2083 0.596878,0.6342 0.892028,0.9462 0.29515,0.312 0.665264,0.7042 0.822475,0.8716 0.299213,0.3185 0.398952,0.4238 1.002315,1.0586 l 0.368854,0.388 -0.146659,0.14 c -0.08066,0.077 -0.256323,0.2413 -0.390356,0.3652 -0.904317,0.8353 -2.020752,1.8713 -2.300163,2.1343 l -0.330285,0.3108 -0.147886,-0.1674 c -0.22671,-0.2568 -1.077697,-1.2509 -3.029327,-3.5387 -0.190564,-0.2234 -0.445719,-0.5226 -0.567012,-0.6651 -0.121294,-0.1424 -0.227909,-0.2589 -0.236922,-0.2589 -0.009,0 -0.261427,0.2892 -0.560921,0.6427 -0.299492,0.3535 -0.634617,0.7487 -0.744723,0.8783 -0.110107,0.1296 -0.285132,0.3362 -0.388947,0.459 -0.197956,0.2343 -0.248151,0.2934 -1.147197,1.3511 -0.307158,0.3613 -0.683521,0.8044 -0.836361,0.9846 -0.152839,0.1802 -0.290357,0.338 -0.305593,0.3506 -0.02211,0.018 -0.31408,-0.2634 -1.447675,-1.3971 z"
       id="path2626" />
    <g
       id="g914"
       transform="matrix(0.03170431,0,0,0.03170431,11.627479,1003.7656)"
       style="fill:#070c0f;stroke-width:31.54145432">
      <path
         inkscape:export-ydpi="1026.8827"
         inkscape:export-xdpi="1026.8827"
         inkscape:export-filename="/home/knome/Stuff/xubuntu-mouse-draft-2.png"
         style="display:inline;fill:#070c0f;fill-opacity:1;fill-rule:evenodd;stroke:none;stroke-width:0.17341236pt;stroke-linecap:butt;stroke-linejoin:miter;stroke-opacity:1"
         id="path13-8"
         d="m 931.74544,775.79875 c -2.29194,-1.89582 -20.26506,26.46187 -16.29077,29.40465 2.38972,1.7878 17.31457,-28.39371 16.29077,-29.40465 z"
         inkscape:connector-curvature="0" />
      <path
         inkscape:export-ydpi="1026.8827"
         inkscape:export-xdpi="1026.8827"
         inkscape:export-filename="/home/knome/Stuff/xubuntu-mouse-draft-2.png"
         style="display:inline;fill:#070c0f;fill-opacity:1;fill-rule:evenodd;stroke:none;stroke-width:0.17341236pt;stroke-linecap:butt;stroke-linejoin:miter;stroke-opacity:1"
         id="path18-8"
         d="m 911.08398,771.82541 c -1.13435,-1.31705 -7.15369,29.24258 -4.37043,30.59564 2.3897,1.7878 6.55183,-29.00592 4.37043,-30.59564 z"
         inkscape:connector-curvature="0" />
      <path
         id="path14-8"
         d="m 490.39251,737.47244 c -2.3537,1.28875 18.83363,15.10215 58.42225,31.40062 39.59117,16.29847 94.28195,57.60761 89.99375,64.27515 -12.85922,18.11199 -20.44376,39.77441 -15.20901,76.87813 0.94406,6.53121 -19.35566,17.87183 -17.87913,27.72653 1.23475,7.49842 22.68907,-7.4337 25.03505,-4.4858 1.4354,5.29135 -11.47809,32.07149 -6.25876,33.9853 3.81738,1.13442 37.3757,-31.84431 39.32554,-31.29382 55.34179,16.73062 127.34835,4.09717 128.74256,3.56728 -0.13122,-0.29067 51.81438,24.42083 56.32887,21.46778 11.38784,-12.3319 -21.58193,-29.7126 -16.08481,-36.65543 2.4103,-3.63474 40.15723,13.64662 42.01702,8.92889 2.70617,-8.16723 -17.52752,-25.31623 -20.57061,-30.39666 -2.64699,-4.68427 -3.22116,-12.24882 3.56728,-16.98197 6.79101,-4.73314 76.22275,-31.2899 73.31085,-51.84307 -5.03414,-37.34552 -88.0554,-39.77075 -89.39566,-42.91418 -0.63017,-1.47654 3.65331,-53.40369 -20.57061,-43.81135 -14.91457,5.55115 -2.73759,38.63636 -1.77296,42.91419 0.89001,3.93828 -6.63573,3.52294 -8.05308,1.79432 -3.16396,-3.86368 -13.6106,-38.3492 -25.93222,-32.19098 -17.2811,9.52802 -1.01748,39.25808 -4.46444,40.2227 -6.4026,3.57816 -6.0399,12.31819 -11.17179,19.43848 -8.46299,12.12868 -71.7872,-5.68106 -92.25802,-6.92095 -14.98659,-0.88489 -29.32133,11.41139 -30.67435,9.84741 -18.24833,-18.27405 -56.0023,-50.09534 -97.36328,-60.66515 -23.19496,-6.29458 -57.70051,-24.51893 -59.08444,-24.28742 z m 361.91887,69.87172 c 3.95743,0 7.15593,3.65412 7.15593,8.15989 10e-6,4.50575 -3.1985,8.15989 -7.15593,8.15989 -3.95744,0 -7.17728,-3.65414 -7.17728,-8.15989 10e-6,-4.50577 3.21984,-8.15989 7.17728,-8.15989 z m -16.08481,4.95575 c 3.04559,13.14733 7.79958,17.33717 22.06588,16.91788 -18.15827,16.65089 -29.19393,-11.87861 -22.06588,-16.91788 z m 39.26146,34.36979 c 0.74297,0.0282 1.31493,0.19751 1.68752,0.55539 7.15367,2.59296 -30.74272,16.23854 -30.99475,14.31185 -0.39407,-1.37542 22.12522,-15.13943 29.30723,-14.86724 z m 3.84499,8.73664 c 0.39154,-0.0303 0.73626,0.0219 1.02532,0.17089 6.75243,6.70871 -21.37827,21.58409 -21.06191,21.06191 -2.26689,-1.36979 14.16329,-20.77712 20.03659,-21.2328 z"
         style="display:inline;fill:#070c0f;fill-opacity:1;fill-rule:evenodd;stroke:none;stroke-width:0.28902034pt;stroke-linecap:butt;stroke-linejoin:miter;stroke-opacity:1"
         inkscape:connector-curvature="0" />
    </g>
  </g>
</svg>
