<?xml version="1.0" encoding="UTF-8" standalone="no"?>
<!-- Created with Inkscape (http://www.inkscape.org/) -->

<svg
   width="16"
   height="16"
   id="svg2"
   sodipodi:version="0.32"
   inkscape:version="1.2.2 (b0a8486541, 2022-12-01)"
   version="1.0"
   sodipodi:docname="org.xfce.panel.applicationsmenu.svg"
   inkscape:output_extension="org.inkscape.output.svg.inkscape"
   inkscape:export-filename="/home/ochosi/Nerdstuff/xfce/xfce4-panel/icons/16x16/org.xfce.panel.applicationsmenu.png"
   inkscape:export-xdpi="96"
   inkscape:export-ydpi="96"
   xmlns:inkscape="http://www.inkscape.org/namespaces/inkscape"
   xmlns:sodipodi="http://sodipodi.sourceforge.net/DTD/sodipodi-0.dtd"
   xmlns="http://www.w3.org/2000/svg"
   xmlns:svg="http://www.w3.org/2000/svg"
   xmlns:rdf="http://www.w3.org/1999/02/22-rdf-syntax-ns#"
   xmlns:cc="http://creativecommons.org/ns#"
   xmlns:dc="http://purl.org/dc/elements/1.1/">
  <defs
     id="defs4" />
  <sodipodi:namedview
     id="base"
     pagecolor="#ffffff"
     bordercolor="#666666"
     borderopacity="1.0"
     gridtolerance="10000"
     guidetolerance="10"
     objecttolerance="10"
     inkscape:pageopacity="0.0"
     inkscape:pageshadow="2"
     inkscape:zoom="126.71354"
     inkscape:cx="11.439188"
     inkscape:cy="8.5784048"
     inkscape:document-units="px"
     inkscape:current-layer="layer10"
     showgrid="true"
     inkscape:window-width="1322"
     inkscape:window-height="411"
     inkscape:window-x="304"
     inkscape:window-y="539"
     inkscape:window-maximized="0"
     inkscape:showpageshadow="2"
     inkscape:pagecheckerboard="0"
     inkscape:deskcolor="#d1d1d1">
    <inkscape:grid
       type="xygrid"
       id="grid244"
       originx="0"
       originy="0" />
  </sodipodi:namedview>
  <metadata
     id="metadata7">
    <rdf:RDF>
      <cc:Work
         rdf:about="">
        <dc:format>image/svg+xml</dc:format>
        <dc:type
           rdf:resource="http://purl.org/dc/dcmitype/StillImage" />
      </cc:Work>
    </rdf:RDF>
  </metadata>
  <g
     inkscape:groupmode="layer"
     id="layer10"
     inkscape:label="Mouse_Path"
     style="display:inline"
     transform="translate(-27.365845,-1015.3254)">
    <path
       inkscape:connector-curvature="0"
       style="fill:#00aade;fill-opacity:1;stroke-width:0.482273"
       d="m 29.448362,1029.8017 -1.505848,-1.5477 0.225478,-0.2386 c 0.251208,-0.2659 0.486255,-0.5194 1.011544,-1.0908 0.195442,-0.2126 0.535403,-0.581 0.75547,-0.8186 0.220067,-0.2375 0.505412,-0.5465 0.634102,-0.6866 0.422262,-0.4594 0.897135,-0.9751 1.473744,-1.6007 l 0.567581,-0.6158 -0.150658,-0.1589 c -0.08287,-0.087 -0.570871,-0.6271 -1.084466,-1.1992 -1.268647,-1.4134 -1.687529,-1.8795 -1.700959,-1.8926 -0.0063,-0.011 -0.294473,-0.3266 -0.640504,-0.7125 l -0.62915,-0.7014 0.81276,-0.781 c 1.619123,-1.5559 1.786717,-1.7173 2.140779,-2.0608 l 0.359752,-0.3494 0.171482,0.2165 c 0.09431,0.1189 0.647785,0.819 1.229933,1.5555 2.115905,2.677 2.331657,2.946 2.356117,2.9379 0.02329,-0.011 0.420267,-0.4666 1.680203,-1.9419 0.551476,-0.6456 0.635895,-0.7442 0.671246,-0.7833 0.0122,-0.014 0.402799,-0.4705 0.867975,-1.0155 l 0.845777,-0.9909 0.434963,0.4162 c 0.23923,0.2288 0.942193,0.8977 1.562143,1.4862 l 1.127178,1.07 -0.395116,0.4123 c -0.47343,0.4938 -1.082197,1.1338 -2.182173,2.2939 -0.450046,0.4746 -1.053221,1.1074 -1.340389,1.4063 -0.287169,0.2985 -0.535663,0.5622 -0.552209,0.5853 -0.02779,0.04 0.0069,0.083 0.457407,0.5725 0.268117,0.2916 0.657085,0.7162 0.864371,0.9433 0.207285,0.227 0.632975,0.6912 0.945973,1.0312 0.313001,0.3401 0.705498,0.7676 0.872216,0.95 0.31731,0.3472 0.42308,0.462 1.062931,1.1538 l 0.391161,0.4229 -0.155529,0.1527 c -0.08554,0.084 -0.271824,0.2629 -0.413963,0.3979 -0.959006,0.9104 -2.142958,2.0396 -2.439267,2.3263 l -0.35026,0.3388 -0.156829,-0.1825 c -0.24042,-0.2799 -1.142872,-1.3633 -3.212528,-3.857 -0.202089,-0.2435 -0.472675,-0.5696 -0.601303,-0.7249 -0.128629,-0.1553 -0.241692,-0.2822 -0.25125,-0.2822 -0.0095,0 -0.277237,0.3152 -0.594843,0.7006 -0.317604,0.3853 -0.672997,0.816 -0.789761,0.9572 -0.116767,0.1412 -0.302375,0.3665 -0.412469,0.5004 -0.209927,0.2553 -0.263158,0.3197 -1.216575,1.4725 -0.325733,0.3938 -0.724857,0.8768 -0.886941,1.0732 -0.162081,0.1963 -0.307915,0.3683 -0.324073,0.3822 -0.02346,0.02 -0.333075,-0.2872 -1.535223,-1.5228 z"
       id="path2626" />
    <circle
       style="fill:#ffffff;fill-rule:evenodd;stroke-width:1;stroke-linecap:square;stop-color:#000000;fill-opacity:1"
       id="path2396"
       cx="39.365845"
       cy="1022.5754"
       r="1.5" />
    <g
       id="g914"
       transform="matrix(0.0362335,0,0,0.03724003,8.4742895,991.34762)"
       style="fill:#070c0f;stroke-width:19.2071">
      <path
         inkscape:export-ydpi="1026.8827"
         inkscape:export-xdpi="1026.8827"
         inkscape:export-filename="/home/knome/Stuff/xubuntu-mouse-draft-2.png"
         style="display:inline;fill:#070c0f;fill-opacity:1;fill-rule:evenodd;stroke:none;stroke-width:0.105599pt;stroke-linecap:butt;stroke-linejoin:miter;stroke-opacity:1"
         id="path13-8"
         d="m 931.74544,775.79875 c -2.29194,-1.89582 -20.26506,26.46187 -16.29077,29.40465 2.38972,1.7878 17.31457,-28.39371 16.29077,-29.40465 z"
         inkscape:connector-curvature="0" />
      <path
         inkscape:export-ydpi="1026.8827"
         inkscape:export-xdpi="1026.8827"
         inkscape:export-filename="/home/knome/Stuff/xubuntu-mouse-draft-2.png"
         style="display:inline;fill:#070c0f;fill-opacity:1;fill-rule:evenodd;stroke:none;stroke-width:0.105599pt;stroke-linecap:butt;stroke-linejoin:miter;stroke-opacity:1"
         id="path18-8"
         d="m 911.08398,771.82541 c -1.13435,-1.31705 -7.15369,29.24258 -4.37043,30.59564 2.3897,1.7878 6.55183,-29.00592 4.37043,-30.59564 z"
         inkscape:connector-curvature="0" />
      <path
         id="path14-8"
         d="m 490.39251,737.47244 c -2.3537,1.28875 18.83363,15.10215 58.42225,31.40062 39.59117,16.29847 94.28195,57.60761 89.99375,64.27515 -12.85922,18.11199 -20.44376,39.77441 -15.20901,76.87813 0.94406,6.53121 -19.35566,17.87183 -17.87913,27.72653 1.23475,7.49842 22.68907,-7.4337 25.03505,-4.4858 1.4354,5.29135 -11.47809,32.07149 -6.25876,33.9853 3.81738,1.13442 37.3757,-31.84431 39.32554,-31.29382 55.34179,16.73062 127.34835,4.09717 128.74256,3.56728 -0.13122,-0.29067 51.81438,24.42083 56.32887,21.46778 11.38784,-12.3319 -21.58193,-29.7126 -16.08481,-36.65543 2.4103,-3.63474 40.15723,13.64662 42.01702,8.92889 2.70617,-8.16723 -17.52752,-25.31623 -20.57061,-30.39666 -2.64699,-4.68427 -3.22116,-12.24882 3.56728,-16.98197 6.79101,-4.73314 76.22275,-31.2899 73.31085,-51.84307 -5.03414,-37.34552 -88.0554,-39.77075 -89.39566,-42.91418 -0.63017,-1.47654 3.65331,-53.40369 -20.57061,-43.81135 -14.91457,5.55115 -2.73759,38.63636 -1.77296,42.91419 0.89001,3.93828 -6.63573,3.52294 -8.05308,1.79432 -3.16396,-3.86368 -13.6106,-38.3492 -25.93222,-32.19098 -17.2811,9.52802 -1.01748,39.25808 -4.46444,40.2227 -6.4026,3.57816 -6.0399,12.31819 -11.17179,19.43848 -8.46299,12.12868 -71.7872,-5.68106 -92.25802,-6.92095 -14.98659,-0.88489 -29.32133,11.41139 -30.67435,9.84741 -18.24833,-18.27405 -56.0023,-50.09534 -97.36328,-60.66515 -23.19496,-6.29458 -57.70051,-24.51893 -59.08444,-24.28742 z m 361.91887,69.87172 c 3.95743,0 7.15593,3.65412 7.15593,8.15989 10e-6,4.50575 -3.1985,8.15989 -7.15593,8.15989 -3.95744,0 -7.17728,-3.65414 -7.17728,-8.15989 10e-6,-4.50577 3.21984,-8.15989 7.17728,-8.15989 z m -16.08481,4.95575 c 3.04559,13.14733 7.79958,17.33717 22.06588,16.91788 -18.15827,16.65089 -29.19393,-11.87861 -22.06588,-16.91788 z m 39.26146,34.36979 c 0.74297,0.0282 1.31493,0.19751 1.68752,0.55539 7.15367,2.59296 -30.74272,16.23854 -30.99475,14.31185 -0.39407,-1.37542 22.12522,-15.13943 29.30723,-14.86724 z m 3.84499,8.73664 c 0.39154,-0.0303 0.73626,0.0219 1.02532,0.17089 6.75243,6.70871 -21.37827,21.58409 -21.06191,21.06191 -2.26689,-1.36979 14.16329,-20.77712 20.03659,-21.2328 z"
         style="display:inline;fill:#070c0f;fill-opacity:1;fill-rule:evenodd;stroke:none;stroke-width:0.175998pt;stroke-linecap:butt;stroke-linejoin:miter;stroke-opacity:1"
         inkscape:connector-curvature="0" />
    </g>
  </g>
</svg>
