<?xml version="1.0" encoding="UTF-8" standalone="no"?>
<!-- Created with Inkscape (http://www.inkscape.org/) -->

<svg
   width="16"
   height="16"
   id="svg2"
   sodipodi:version="0.32"
   inkscape:version="1.2.2 (b0a8486541, 2022-12-01)"
   version="1.0"
   sodipodi:docname="org.xfce.panel.applicationsmenu.svg"
   inkscape:output_extension="org.inkscape.output.svg.inkscape"
   inkscape:export-filename="/home/ochosi/Nerdstuff/xfce/xfce4-panel/icons/16x16/org.xfce.panel.applicationsmenu.png"
   inkscape:export-xdpi="96"
   inkscape:export-ydpi="96"
   xmlns:inkscape="http://www.inkscape.org/namespaces/inkscape"
   xmlns:sodipodi="http://sodipodi.sourceforge.net/DTD/sodipodi-0.dtd"
   xmlns="http://www.w3.org/2000/svg"
   xmlns:svg="http://www.w3.org/2000/svg"
   xmlns:rdf="http://www.w3.org/1999/02/22-rdf-syntax-ns#"
   xmlns:cc="http://creativecommons.org/ns#"
   xmlns:dc="http://purl.org/dc/elements/1.1/">
  <defs
     id="defs4">
    <linearGradient
       id="linearGradient3961">
      <stop
         id="stop3963"
         offset="0"
         style="stop-color:#cecece;stop-opacity:0.7019608;" />
      <stop
         id="stop3965"
         offset="1"
         style="stop-color:#1d1d1d;stop-opacity:0;" />
    </linearGradient>
    <clipPath
       clipPathUnits="userSpaceOnUse"
       id="clipPath1126">
      <rect
         style="opacity:0.5;vector-effect:none;fill:#ffffff;fill-opacity:1;fill-rule:nonzero;stroke:none;stroke-width:3.02543;stroke-linecap:square;stroke-linejoin:miter;stroke-miterlimit:4;stroke-dasharray:none;stroke-dashoffset:0;stroke-opacity:1;paint-order:normal"
         id="rect1128"
         width="512"
         height="512"
         x="17.850052"
         y="549.14514" />
    </clipPath>
  </defs>
  <sodipodi:namedview
     id="base"
     pagecolor="#ffffff"
     bordercolor="#666666"
     borderopacity="1.0"
     gridtolerance="10000"
     guidetolerance="10"
     objecttolerance="10"
     inkscape:pageopacity="0.0"
     inkscape:pageshadow="2"
     inkscape:zoom="31.678384"
     inkscape:cx="14.331539"
     inkscape:cy="6.502857"
     inkscape:document-units="px"
     inkscape:current-layer="layer10"
     showgrid="true"
     inkscape:window-width="1920"
     inkscape:window-height="1023"
     inkscape:window-x="0"
     inkscape:window-y="0"
     inkscape:window-maximized="1"
     inkscape:showpageshadow="2"
     inkscape:pagecheckerboard="0"
     inkscape:deskcolor="#d1d1d1">
    <inkscape:grid
       type="xygrid"
       id="grid244"
       originx="0"
       originy="0" />
  </sodipodi:namedview>
  <metadata
     id="metadata7">
    <rdf:RDF>
      <cc:Work
         rdf:about="">
        <dc:format>image/svg+xml</dc:format>
        <dc:type
           rdf:resource="http://purl.org/dc/dcmitype/StillImage" />
      </cc:Work>
    </rdf:RDF>
  </metadata>
  <g
     inkscape:groupmode="layer"
     id="layer10"
     inkscape:label="Mouse_Path"
     style="display:inline"
     transform="translate(-27.365845,-1015.3254)">
    <path
       inkscape:connector-curvature="0"
       style="fill:#00aade;fill-opacity:1;stroke-width:0.482273"
       d="m 30.358776,1029.397 -1.411738,-1.451 0.211386,-0.2237 c 0.235509,-0.2492 0.455866,-0.4869 0.948327,-1.0226 0.183227,-0.1993 0.501942,-0.5447 0.708256,-0.7674 0.206314,-0.2227 0.473826,-0.5124 0.594473,-0.6437 0.395873,-0.4307 0.841068,-0.9142 1.381641,-1.5007 l 0.53211,-0.5773 -0.141243,-0.149 c -0.07769,-0.082 -0.535194,-0.5879 -1.01669,-1.1242 -1.189362,-1.3251 -1.582065,-1.7621 -1.594657,-1.7743 -0.0059,-0.01 -0.27607,-0.3062 -0.600475,-0.668 l -0.58983,-0.6576 0.761966,-0.7322 c 1.517933,-1.4586 1.675054,-1.6099 2.006988,-1.932 l 0.33727,-0.3275 0.160765,0.2029 c 0.08842,0.1115 0.607301,0.7678 1.153067,1.4583 1.98367,2.5097 2.185937,2.7619 2.20887,2.7543 0.02183,-0.01 0.394002,-0.4374 1.575197,-1.8205 0.517011,-0.6053 0.596154,-0.6977 0.629296,-0.7344 0.01144,-0.013 0.377625,-0.4411 0.81373,-0.952 l 0.792919,-0.929 0.40778,0.3902 c 0.224279,0.2145 0.88331,0.8416 1.464515,1.3933 l 1.056734,1.0032 -0.370423,0.3865 c -0.443842,0.4629 -1.014564,1.0629 -2.045796,2.1505 -0.42192,0.445 -0.987399,1.0382 -1.25662,1.3184 -0.269222,0.2799 -0.502186,0.5271 -0.517698,0.5488 -0.02605,0.037 0.0065,0.078 0.428821,0.5367 0.251361,0.2734 0.61602,0.6714 0.810351,0.8843 0.194331,0.2128 0.593417,0.648 0.886854,0.9668 0.293439,0.3188 0.661407,0.7196 0.817706,0.8906 0.297478,0.3255 0.396638,0.4331 0.996502,1.0817 l 0.366715,0.3965 -0.145809,0.1431 c -0.08019,0.079 -0.254836,0.2465 -0.388092,0.3731 -0.899072,0.8535 -2.009032,1.9121 -2.286823,2.1809 l -0.32837,0.3176 -0.147028,-0.1711 c -0.225395,-0.2624 -1.071447,-1.2781 -3.011758,-3.6159 -0.189459,-0.2283 -0.443135,-0.534 -0.563724,-0.6796 -0.12059,-0.1456 -0.226587,-0.2646 -0.235548,-0.2646 -0.0089,0 -0.259911,0.2955 -0.557668,0.6568 -0.297755,0.3612 -0.630937,0.765 -0.740404,0.8974 -0.109469,0.1324 -0.283478,0.3436 -0.386691,0.4691 -0.196808,0.2394 -0.246712,0.2997 -1.140544,1.3805 -0.305376,0.3692 -0.679557,0.822 -0.831511,1.0061 -0.151952,0.1841 -0.288672,0.3453 -0.30382,0.3583 -0.02199,0.019 -0.312259,-0.2692 -1.439279,-1.4276 z"
       id="path2626" />
    <g
       id="g914"
       transform="matrix(0.03152044,0,0,0.03239605,12.414041,994.91991)"
       style="fill:#070c0f;stroke-width:22.079">
      <path
         inkscape:export-ydpi="1026.8827"
         inkscape:export-xdpi="1026.8827"
         inkscape:export-filename="/home/knome/Stuff/xubuntu-mouse-draft-2.png"
         style="display:inline;fill:#070c0f;fill-opacity:1;fill-rule:evenodd;stroke:none;stroke-width:0.121389pt;stroke-linecap:butt;stroke-linejoin:miter;stroke-opacity:1"
         id="path13-8"
         d="m 931.74544,775.79875 c -2.29194,-1.89582 -20.26506,26.46187 -16.29077,29.40465 2.38972,1.7878 17.31457,-28.39371 16.29077,-29.40465 z"
         inkscape:connector-curvature="0" />
      <path
         inkscape:export-ydpi="1026.8827"
         inkscape:export-xdpi="1026.8827"
         inkscape:export-filename="/home/knome/Stuff/xubuntu-mouse-draft-2.png"
         style="display:inline;fill:#070c0f;fill-opacity:1;fill-rule:evenodd;stroke:none;stroke-width:0.121389pt;stroke-linecap:butt;stroke-linejoin:miter;stroke-opacity:1"
         id="path18-8"
         d="m 911.08398,771.82541 c -1.13435,-1.31705 -7.15369,29.24258 -4.37043,30.59564 2.3897,1.7878 6.55183,-29.00592 4.37043,-30.59564 z"
         inkscape:connector-curvature="0" />
      <path
         id="path14-8"
         d="m 490.39251,737.47244 c -2.3537,1.28875 18.83363,15.10215 58.42225,31.40062 39.59117,16.29847 94.28195,57.60761 89.99375,64.27515 -12.85922,18.11199 -20.44376,39.77441 -15.20901,76.87813 0.94406,6.53121 -19.35566,17.87183 -17.87913,27.72653 1.23475,7.49842 22.68907,-7.4337 25.03505,-4.4858 1.4354,5.29135 -11.47809,32.07149 -6.25876,33.9853 3.81738,1.13442 37.3757,-31.84431 39.32554,-31.29382 55.34179,16.73062 127.34835,4.09717 128.74256,3.56728 -0.13122,-0.29067 51.81438,24.42083 56.32887,21.46778 11.38784,-12.3319 -21.58193,-29.7126 -16.08481,-36.65543 2.4103,-3.63474 40.15723,13.64662 42.01702,8.92889 2.70617,-8.16723 -17.52752,-25.31623 -20.57061,-30.39666 -2.64699,-4.68427 -3.22116,-12.24882 3.56728,-16.98197 6.79101,-4.73314 76.22275,-31.2899 73.31085,-51.84307 -5.03414,-37.34552 -88.0554,-39.77075 -89.39566,-42.91418 -0.63017,-1.47654 3.65331,-53.40369 -20.57061,-43.81135 -14.91457,5.55115 -2.73759,38.63636 -1.77296,42.91419 0.89001,3.93828 -6.63573,3.52294 -8.05308,1.79432 -3.16396,-3.86368 -13.6106,-38.3492 -25.93222,-32.19098 -17.2811,9.52802 -1.01748,39.25808 -4.46444,40.2227 -6.4026,3.57816 -6.0399,12.31819 -11.17179,19.43848 -8.46299,12.12868 -71.7872,-5.68106 -92.25802,-6.92095 -14.98659,-0.88489 -29.32133,11.41139 -30.67435,9.84741 -18.24833,-18.27405 -56.0023,-50.09534 -97.36328,-60.66515 -23.19496,-6.29458 -57.70051,-24.51893 -59.08444,-24.28742 z m 361.91887,69.87172 c 3.95743,0 7.15593,3.65412 7.15593,8.15989 10e-6,4.50575 -3.1985,8.15989 -7.15593,8.15989 -3.95744,0 -7.17728,-3.65414 -7.17728,-8.15989 10e-6,-4.50577 3.21984,-8.15989 7.17728,-8.15989 z m -16.08481,4.95575 c 3.04559,13.14733 7.79958,17.33717 22.06588,16.91788 -18.15827,16.65089 -29.19393,-11.87861 -22.06588,-16.91788 z m 39.26146,34.36979 c 0.74297,0.0282 1.31493,0.19751 1.68752,0.55539 7.15367,2.59296 -30.74272,16.23854 -30.99475,14.31185 -0.39407,-1.37542 22.12522,-15.13943 29.30723,-14.86724 z m 3.84499,8.73664 c 0.39154,-0.0303 0.73626,0.0219 1.02532,0.17089 6.75243,6.70871 -21.37827,21.58409 -21.06191,21.06191 -2.26689,-1.36979 14.16329,-20.77712 20.03659,-21.2328 z"
         style="display:inline;fill:#070c0f;fill-opacity:1;fill-rule:evenodd;stroke:none;stroke-width:0.202314pt;stroke-linecap:butt;stroke-linejoin:miter;stroke-opacity:1"
         inkscape:connector-curvature="0" />
    </g>
  </g>
</svg>
