<?xml version="1.0" encoding="UTF-8" standalone="no"?>
<!-- Created with Inkscape (http://www.inkscape.org/) -->

<svg
   width="64"
   height="64"
   id="svg2"
   sodipodi:version="0.32"
   inkscape:version="1.2.2 (b0a8486541, 2022-12-01)"
   version="1.0"
   sodipodi:docname="org.xfce.panel.applicationsmenu.svg"
   inkscape:output_extension="org.inkscape.output.svg.inkscape"
   inkscape:export-filename="org.xfce.panel.applicationsmenu.png"
   inkscape:export-xdpi="96"
   inkscape:export-ydpi="96"
   xmlns:inkscape="http://www.inkscape.org/namespaces/inkscape"
   xmlns:sodipodi="http://sodipodi.sourceforge.net/DTD/sodipodi-0.dtd"
   xmlns="http://www.w3.org/2000/svg"
   xmlns:svg="http://www.w3.org/2000/svg"
   xmlns:rdf="http://www.w3.org/1999/02/22-rdf-syntax-ns#"
   xmlns:cc="http://creativecommons.org/ns#"
   xmlns:dc="http://purl.org/dc/elements/1.1/">
  <defs
     id="defs4" />
  <sodipodi:namedview
     id="base"
     pagecolor="#ffffff"
     bordercolor="#666666"
     borderopacity="1.0"
     gridtolerance="10000"
     guidetolerance="10"
     objecttolerance="10"
     inkscape:pageopacity="0.0"
     inkscape:pageshadow="2"
     inkscape:zoom="11.2"
     inkscape:cx="27.991071"
     inkscape:cy="26.071428"
     inkscape:document-units="px"
     inkscape:current-layer="layer10"
     showgrid="true"
     inkscape:window-width="1322"
     inkscape:window-height="411"
     inkscape:window-x="247"
     inkscape:window-y="334"
     inkscape:window-maximized="0"
     inkscape:showpageshadow="2"
     inkscape:pagecheckerboard="0"
     inkscape:deskcolor="#d1d1d1">
    <inkscape:grid
       type="xygrid"
       id="grid244"
       originx="0"
       originy="0" />
  </sodipodi:namedview>
  <metadata
     id="metadata7">
    <rdf:RDF>
      <cc:Work
         rdf:about="">
        <dc:format>image/svg+xml</dc:format>
        <dc:type
           rdf:resource="http://purl.org/dc/dcmitype/StillImage" />
      </cc:Work>
    </rdf:RDF>
  </metadata>
  <g
     inkscape:groupmode="layer"
     id="layer10"
     inkscape:label="Mouse_Path"
     style="display:inline"
     transform="translate(-27.365845,-1015.3254)">
    <path
       inkscape:connector-curvature="0"
       style="fill:#00aade;fill-opacity:1;stroke-width:1.92908"
       d="m 37.914858,1070.802 -5.458724,-5.6105 0.81736,-0.865 c 0.910635,-0.9636 1.762683,-1.8827 3.666867,-3.9541 0.708478,-0.7706 1.940843,-2.1061 2.738591,-2.9672 0.797748,-0.8612 1.832129,-1.9813 2.298631,-2.489 1.53071,-1.6654 3.252131,-3.5349 5.342348,-5.8027 l 2.057494,-2.2323 -0.54614,-0.5761 c -0.300402,-0.3171 -2.069418,-2.2732 -3.931204,-4.3469 -4.59887,-5.1234 -6.117322,-6.8132 -6.166011,-6.8603 -0.02281,-0.039 -1.067472,-1.184 -2.321838,-2.583 l -2.280678,-2.5427 2.946271,-2.8312 c 5.869344,-5.6399 6.476879,-6.2249 7.760358,-7.4704 l 1.304112,-1.2663 0.621625,0.7845 c 0.341891,0.4312 2.348232,2.9689 4.458528,5.6388 7.670196,9.7042 8.452296,10.6793 8.54097,10.65 0.08441,-0.039 1.523475,-1.6913 6.090766,-7.0393 1.99911,-2.3405 2.30513,-2.6978 2.433279,-2.8397 0.04424,-0.05 1.460151,-1.7056 3.146425,-3.6811 l 3.065955,-3.5921 1.57675,1.5088 c 0.867213,0.8294 3.415468,3.2542 5.662795,5.3874 l 4.086041,3.879 -1.432303,1.4945 c -1.71619,1.7899 -3.922983,4.1099 -7.910416,8.3153 -1.631425,1.7204 -3.817946,4.0141 -4.858934,5.0975 -1.040992,1.0823 -1.941787,2.0381 -2.001767,2.122 -0.100727,0.1431 0.02513,0.3016 1.658109,2.0753 0.97193,1.0571 2.381946,2.5961 3.133359,3.4193 0.751414,0.8228 2.294547,2.5056 3.429171,3.7383 1.134632,1.2327 2.557442,2.7824 3.161799,3.4436 1.150249,1.2586 1.533668,1.6747 3.853143,4.1826 l 1.417966,1.5331 -0.563795,0.5534 c -0.310068,0.3054 -0.985367,0.9531 -1.500624,1.4426 -3.476414,3.3002 -7.768262,7.3935 -8.842388,8.4328 l -1.269698,1.2281 -0.568508,-0.6616 c -0.871528,-1.0146 -4.142931,-4.942 -11.645472,-13.9815 -0.732575,-0.8827 -1.713457,-2.0648 -2.179734,-2.6278 -0.466282,-0.563 -0.876137,-1.0231 -0.910787,-1.0231 -0.03441,0 -1.004989,1.1426 -2.156317,2.5396 -1.15132,1.3967 -2.439625,2.958 -2.862898,3.47 -0.42328,0.5119 -1.096115,1.3286 -1.495206,1.8138 -0.760991,0.9257 -0.953953,1.1589 -4.410106,5.338 -1.180788,1.4275 -2.627622,3.1784 -3.215178,3.8902 -0.587548,0.7119 -1.116199,1.3352 -1.174771,1.3855 -0.08503,0.073 -1.207403,-1.041 -5.565216,-5.5201 z"
       id="path2626" />
    <ellipse
       style="fill:#ffffff;fill-rule:evenodd;stroke-width:2;stop-color:#000000;fill-opacity:1"
       id="path16520"
       cx="73.365845"
       cy="1044.8254"
       rx="5"
       ry="5.5" />
    <g
       id="g914"
       transform="matrix(0.12681724,0,0,0.13033942,-34.801915,935.20395)"
       style="fill:#070c0f;stroke-width:21.951">
      <path
         inkscape:export-ydpi="1026.8827"
         inkscape:export-xdpi="1026.8827"
         inkscape:export-filename="/home/knome/Stuff/xubuntu-mouse-draft-2.png"
         style="display:inline;fill:#070c0f;fill-opacity:1;fill-rule:evenodd;stroke:none;stroke-width:0.120685pt;stroke-linecap:butt;stroke-linejoin:miter;stroke-opacity:1"
         id="path13-8"
         d="m 931.74544,775.79875 c -2.29194,-1.89582 -20.26506,26.46187 -16.29077,29.40465 2.38972,1.7878 17.31457,-28.39371 16.29077,-29.40465 z"
         inkscape:connector-curvature="0" />
      <path
         inkscape:export-ydpi="1026.8827"
         inkscape:export-xdpi="1026.8827"
         inkscape:export-filename="/home/knome/Stuff/xubuntu-mouse-draft-2.png"
         style="display:inline;fill:#070c0f;fill-opacity:1;fill-rule:evenodd;stroke:none;stroke-width:0.120685pt;stroke-linecap:butt;stroke-linejoin:miter;stroke-opacity:1"
         id="path18-8"
         d="m 911.08398,771.82541 c -1.13435,-1.31705 -7.15369,29.24258 -4.37043,30.59564 2.3897,1.7878 6.55183,-29.00592 4.37043,-30.59564 z"
         inkscape:connector-curvature="0" />
      <path
         id="path14-8"
         d="m 490.39251,737.47244 c -2.3537,1.28875 18.83363,15.10215 58.42225,31.40062 39.59117,16.29847 94.28195,57.60761 89.99375,64.27515 -12.85922,18.11199 -20.44376,39.77441 -15.20901,76.87813 0.94406,6.53121 -19.35566,17.87183 -17.87913,27.72653 1.23475,7.49842 22.68907,-7.4337 25.03505,-4.4858 1.4354,5.29135 -11.47809,32.07149 -6.25876,33.9853 3.81738,1.13442 37.3757,-31.84431 39.32554,-31.29382 55.34179,16.73062 127.34835,4.09717 128.74256,3.56728 -0.13122,-0.29067 51.81438,24.42083 56.32887,21.46778 11.38784,-12.3319 -21.58193,-29.7126 -16.08481,-36.65543 2.4103,-3.63474 40.15723,13.64662 42.01702,8.92889 2.70617,-8.16723 -17.52752,-25.31623 -20.57061,-30.39666 -2.64699,-4.68427 -3.22116,-12.24882 3.56728,-16.98197 6.79101,-4.73314 76.22275,-31.2899 73.31085,-51.84307 -5.03414,-37.34552 -88.0554,-39.77075 -89.39566,-42.91418 -0.63017,-1.47654 3.65331,-53.40369 -20.57061,-43.81135 -14.91457,5.55115 -2.73759,38.63636 -1.77296,42.91419 0.89001,3.93828 -6.63573,3.52294 -8.05308,1.79432 -3.16396,-3.86368 -13.6106,-38.3492 -25.93222,-32.19098 -17.2811,9.52802 -1.01748,39.25808 -4.46444,40.2227 -6.4026,3.57816 -6.0399,12.31819 -11.17179,19.43848 -8.46299,12.12868 -71.7872,-5.68106 -92.25802,-6.92095 -14.98659,-0.88489 -29.32133,11.41139 -30.67435,9.84741 -18.24833,-18.27405 -56.0023,-50.09534 -97.36328,-60.66515 -23.19496,-6.29458 -57.70051,-24.51893 -59.08444,-24.28742 z m 361.91887,69.87172 c 3.95743,0 7.15593,3.65412 7.15593,8.15989 10e-6,4.50575 -3.1985,8.15989 -7.15593,8.15989 -3.95744,0 -7.17728,-3.65414 -7.17728,-8.15989 10e-6,-4.50577 3.21984,-8.15989 7.17728,-8.15989 z m -16.08481,4.95575 c 3.04559,13.14733 7.79958,17.33717 22.06588,16.91788 -18.15827,16.65089 -29.19393,-11.87861 -22.06588,-16.91788 z m 39.26146,34.36979 c 0.74297,0.0282 1.31493,0.19751 1.68752,0.55539 7.15367,2.59296 -30.74272,16.23854 -30.99475,14.31185 -0.39407,-1.37542 22.12522,-15.13943 29.30723,-14.86724 z m 3.84499,8.73664 c 0.39154,-0.0303 0.73626,0.0219 1.02532,0.17089 6.75243,6.70871 -21.37827,21.58409 -21.06191,21.06191 -2.26689,-1.36979 14.16329,-20.77712 20.03659,-21.2328 z"
         style="display:inline;fill:#070c0f;fill-opacity:1;fill-rule:evenodd;stroke:none;stroke-width:0.201141pt;stroke-linecap:butt;stroke-linejoin:miter;stroke-opacity:1"
         inkscape:connector-curvature="0" />
    </g>
  </g>
</svg>
