<?xml version="1.0" encoding="UTF-8" standalone="no"?>
<!-- Created with Inkscape (http://www.inkscape.org/) -->

<svg
   width="32"
   height="32"
   id="svg2"
   sodipodi:version="0.32"
   inkscape:version="1.2.2 (b0a8486541, 2022-12-01)"
   version="1.0"
   sodipodi:docname="org.xfce.panel.applicationsmenu.svg"
   inkscape:output_extension="org.inkscape.output.svg.inkscape"
   inkscape:export-filename="/home/knome/xfce_logo.png"
   inkscape:export-xdpi="96"
   inkscape:export-ydpi="96"
   xmlns:inkscape="http://www.inkscape.org/namespaces/inkscape"
   xmlns:sodipodi="http://sodipodi.sourceforge.net/DTD/sodipodi-0.dtd"
   xmlns="http://www.w3.org/2000/svg"
   xmlns:svg="http://www.w3.org/2000/svg"
   xmlns:rdf="http://www.w3.org/1999/02/22-rdf-syntax-ns#"
   xmlns:cc="http://creativecommons.org/ns#">
  <defs
     id="defs4" />
  <sodipodi:namedview
     id="base"
     pagecolor="#ffffff"
     bordercolor="#666666"
     borderopacity="1.0"
     gridtolerance="10000"
     guidetolerance="10"
     objecttolerance="10"
     inkscape:pageopacity="0.0"
     inkscape:pageshadow="2"
     inkscape:zoom="11.2"
     inkscape:cx="8.125"
     inkscape:cy="20.223214"
     inkscape:document-units="px"
     inkscape:current-layer="layer10"
     showgrid="false"
     inkscape:window-width="1617"
     inkscape:window-height="714"
     inkscape:window-x="203"
     inkscape:window-y="313"
     inkscape:window-maximized="0"
     inkscape:showpageshadow="2"
     inkscape:pagecheckerboard="0"
     inkscape:deskcolor="#d1d1d1" />
  <metadata
     id="metadata7">
    <rdf:RDF>
      <cc:Work
         rdf:about="" />
    </rdf:RDF>
  </metadata>
  <g
     inkscape:groupmode="layer"
     id="layer10"
     inkscape:label="Mouse_Path"
     style="display:inline"
     transform="translate(-27.365845,-1007.3254)">
    <path
       inkscape:connector-curvature="0"
       style="fill:#00aade;fill-opacity:1;stroke-width:1;stroke-dasharray:none"
       d="m 32.722589,1034.659 -2.708434,-2.7086 0.405545,-0.4175 c 0.451827,-0.4652 0.874587,-0.9088 1.819377,-1.9088 0.351522,-0.3722 0.96298,-1.0168 1.358797,-1.4325 0.395815,-0.4158 0.909041,-0.9564 1.140502,-1.2014 0.759487,-0.804 1.613599,-1.7066 2.650694,-2.8014 l 1.020859,-1.0777 -0.270977,-0.2781 c -0.149037,-0.1529 -1.026775,-1.0973 -1.950529,-2.0986 -2.281808,-2.4734 -3.03521,-3.289 -3.059369,-3.3119 -0.01123,-0.01 -0.529643,-0.5717 -1.152016,-1.2468 l -1.131595,-1.2276 1.461839,-1.3668 c 2.912171,-2.7227 3.213609,-3.0051 3.850428,-3.6066 l 0.647055,-0.6112 0.30843,0.3788 c 0.169636,0.2082 1.165113,1.4333 2.212171,2.7222 3.805693,4.6847 4.193745,5.1554 4.237741,5.1412 0.04186,-0.014 0.755897,-0.8164 3.022031,-3.3981 0.991892,-1.13 1.143729,-1.3024 1.207313,-1.3709 0.02196,-0.024 0.724477,-0.8233 1.56115,-1.7771 l 1.521224,-1.7342 0.78233,0.7284 c 0.43028,0.4006 1.694639,1.571 2.809687,2.6009 l 2.027355,1.8725 -0.710661,0.7215 c -0.851516,0.8642 -1.946452,1.9842 -3.924881,4.0143 -0.809457,0.8305 -1.894334,1.938 -2.41084,2.4609 -0.516505,0.5228 -0.963448,0.984 -0.993206,1.0246 -0.04998,0.069 0.01262,0.1447 0.822697,1.0019 0.48224,0.5103 1.181841,1.253 1.554667,1.6505 0.372825,0.3973 1.138474,1.2096 1.701439,1.8048 0.562965,0.5951 1.268914,1.3432 1.568776,1.6624 0.570715,0.6075 0.760955,0.8084 1.9118,2.0191 l 0.703547,0.7402 -0.279736,0.267 c -0.153855,0.1469 -0.488906,0.4603 -0.744559,0.6965 -1.72488,1.5933 -3.854352,3.5693 -4.387295,4.0709 l -0.62998,0.593 -0.282077,-0.3194 c -0.432422,-0.4898 -2.055582,-2.3859 -5.778091,-6.7496 -0.363477,-0.4261 -0.850157,-0.9969 -1.081509,-1.2686 -0.231354,-0.2716 -0.43471,-0.4938 -0.451901,-0.4938 -0.0172,0 -0.498643,0.5516 -1.069891,1.2258 -0.571247,0.6742 -1.21046,1.4281 -1.420475,1.6753 -0.210014,0.2472 -0.543855,0.6413 -0.741869,0.8755 -0.377579,0.4469 -0.47332,0.5596 -2.188146,2.577 -0.58587,0.6892 -1.303738,1.5343 -1.595263,1.878 -0.291523,0.3438 -0.553822,0.6447 -0.582884,0.6688 -0.04218,0.035 -0.59907,-0.5024 -2.76127,-2.6648 z"
       id="path2626" />
    <ellipse
       style="fill:#f1f3f5;fill-rule:evenodd;stroke-width:0.999997;stroke-linecap:square;stop-color:#000000"
       id="path6518"
       cx="50.615845"
       cy="1022.4504"
       rx="2.25"
       ry="2.625" />
    <g
       id="g914"
       transform="matrix(0.06340862,0,0,0.06340862,-3.7180351,969.27744)"
       style="fill:#070c0f;stroke-width:15.77072716">
      <path
         inkscape:export-ydpi="1026.8827"
         inkscape:export-xdpi="1026.8827"
         inkscape:export-filename="/home/knome/Stuff/xubuntu-mouse-draft-2.png"
         style="display:inline;fill:#070c0f;fill-opacity:1;fill-rule:evenodd;stroke:none;stroke-width:0.08670618pt;stroke-linecap:butt;stroke-linejoin:miter;stroke-opacity:1"
         id="path13-8"
         d="m 931.74544,775.79875 c -2.29194,-1.89582 -20.26506,26.46187 -16.29077,29.40465 2.38972,1.7878 17.31457,-28.39371 16.29077,-29.40465 z"
         inkscape:connector-curvature="0" />
      <path
         inkscape:export-ydpi="1026.8827"
         inkscape:export-xdpi="1026.8827"
         inkscape:export-filename="/home/knome/Stuff/xubuntu-mouse-draft-2.png"
         style="display:inline;fill:#070c0f;fill-opacity:1;fill-rule:evenodd;stroke:none;stroke-width:0.08670618pt;stroke-linecap:butt;stroke-linejoin:miter;stroke-opacity:1"
         id="path18-8"
         d="m 911.08398,771.82541 c -1.13435,-1.31705 -7.15369,29.24258 -4.37043,30.59564 2.3897,1.7878 6.55183,-29.00592 4.37043,-30.59564 z"
         inkscape:connector-curvature="0" />
      <path
         id="path14-8"
         d="m 490.39251,737.47244 c -2.3537,1.28875 18.83363,15.10215 58.42225,31.40062 39.59117,16.29847 94.28195,57.60761 89.99375,64.27515 -12.85922,18.11199 -20.44376,39.77441 -15.20901,76.87813 0.94406,6.53121 -19.35566,17.87183 -17.87913,27.72653 1.23475,7.49842 22.68907,-7.4337 25.03505,-4.4858 1.4354,5.29135 -11.47809,32.07149 -6.25876,33.9853 3.81738,1.13442 37.3757,-31.84431 39.32554,-31.29382 55.34179,16.73062 127.34835,4.09717 128.74256,3.56728 -0.13122,-0.29067 51.81438,24.42083 56.32887,21.46778 11.38784,-12.3319 -21.58193,-29.7126 -16.08481,-36.65543 2.4103,-3.63474 40.15723,13.64662 42.01702,8.92889 2.70617,-8.16723 -17.52752,-25.31623 -20.57061,-30.39666 -2.64699,-4.68427 -3.22116,-12.24882 3.56728,-16.98197 6.79101,-4.73314 76.22275,-31.2899 73.31085,-51.84307 -5.03414,-37.34552 -88.0554,-39.77075 -89.39566,-42.91418 -0.63017,-1.47654 3.65331,-53.40369 -20.57061,-43.81135 -14.91457,5.55115 -2.73759,38.63636 -1.77296,42.91419 0.89001,3.93828 -6.63573,3.52294 -8.05308,1.79432 -3.16396,-3.86368 -13.6106,-38.3492 -25.93222,-32.19098 -17.2811,9.52802 -1.01748,39.25808 -4.46444,40.2227 -6.4026,3.57816 -6.0399,12.31819 -11.17179,19.43848 -8.46299,12.12868 -71.7872,-5.68106 -92.25802,-6.92095 -14.98659,-0.88489 -29.32133,11.41139 -30.67435,9.84741 -18.24833,-18.27405 -56.0023,-50.09534 -97.36328,-60.66515 -23.19496,-6.29458 -57.70051,-24.51893 -59.08444,-24.28742 z m 361.91887,69.87172 c 3.95743,0 7.15593,3.65412 7.15593,8.15989 10e-6,4.50575 -3.1985,8.15989 -7.15593,8.15989 -3.95744,0 -7.17728,-3.65414 -7.17728,-8.15989 10e-6,-4.50577 3.21984,-8.15989 7.17728,-8.15989 z m -16.08481,4.95575 c 3.04559,13.14733 7.79958,17.33717 22.06588,16.91788 -18.15827,16.65089 -29.19393,-11.87861 -22.06588,-16.91788 z m 39.26146,34.36979 c 0.74297,0.0282 1.31493,0.19751 1.68752,0.55539 7.15367,2.59296 -30.74272,16.23854 -30.99475,14.31185 -0.39407,-1.37542 22.12522,-15.13943 29.30723,-14.86724 z m 3.84499,8.73664 c 0.39154,-0.0303 0.73626,0.0219 1.02532,0.17089 6.75243,6.70871 -21.37827,21.58409 -21.06191,21.06191 -2.26689,-1.36979 14.16329,-20.77712 20.03659,-21.2328 z"
         style="display:inline;fill:#070c0f;fill-opacity:1;fill-rule:evenodd;stroke:none;stroke-width:0.14451017pt;stroke-linecap:butt;stroke-linejoin:miter;stroke-opacity:1"
         inkscape:connector-curvature="0" />
    </g>
  </g>
</svg>
