<?xml version="1.0" encoding="UTF-8" standalone="no"?>
<!-- Created with Inkscape (http://www.inkscape.org/) -->

<svg
   xmlns:dc="http://purl.org/dc/elements/1.1/"
   xmlns:cc="http://creativecommons.org/ns#"
   xmlns:rdf="http://www.w3.org/1999/02/22-rdf-syntax-ns#"
   xmlns:svg="http://www.w3.org/2000/svg"
   xmlns="http://www.w3.org/2000/svg"
   xmlns:sodipodi="http://sodipodi.sourceforge.net/DTD/sodipodi-0.dtd"
   xmlns:inkscape="http://www.inkscape.org/namespaces/inkscape"
   width="32"
   height="32"
   id="svg2"
   sodipodi:version="0.32"
   inkscape:version="0.92.4 (5da689c313, 2019-01-14)"
   version="1.0"
   sodipodi:docname="org.xfce.panel.applicationsmenu.svg"
   inkscape:output_extension="org.inkscape.output.svg.inkscape"
   inkscape:export-filename="/home/knome/xfce_logo.png"
   inkscape:export-xdpi="96"
   inkscape:export-ydpi="96">
  <defs
     id="defs4">
    <linearGradient
       id="linearGradient3961">
      <stop
         id="stop3963"
         offset="0"
         style="stop-color:#cecece;stop-opacity:0.7019608;" />
      <stop
         id="stop3965"
         offset="1"
         style="stop-color:#1d1d1d;stop-opacity:0;" />
    </linearGradient>
    <clipPath
       clipPathUnits="userSpaceOnUse"
       id="clipPath1126">
      <rect
         style="opacity:0.5;vector-effect:none;fill:#ffffff;fill-opacity:1;fill-rule:nonzero;stroke:none;stroke-width:3.02543163;stroke-linecap:square;stroke-linejoin:miter;stroke-miterlimit:4;stroke-dasharray:none;stroke-dashoffset:0;stroke-opacity:1;paint-order:normal"
         id="rect1128"
         width="512"
         height="512"
         x="17.850052"
         y="549.14514" />
    </clipPath>
  </defs>
  <sodipodi:namedview
     id="base"
     pagecolor="#ffffff"
     bordercolor="#666666"
     borderopacity="1.0"
     gridtolerance="10000"
     guidetolerance="10"
     objecttolerance="10"
     inkscape:pageopacity="0.0"
     inkscape:pageshadow="2"
     inkscape:zoom="11.2"
     inkscape:cx="18.981675"
     inkscape:cy="40.921777"
     inkscape:document-units="px"
     inkscape:current-layer="layer10"
     showgrid="false"
     inkscape:window-width="1617"
     inkscape:window-height="1109"
     inkscape:window-x="461"
     inkscape:window-y="206"
     inkscape:window-maximized="0" />
  <metadata
     id="metadata7">
    <rdf:RDF>
      <cc:Work
         rdf:about="">
        <dc:format>image/svg+xml</dc:format>
        <dc:type
           rdf:resource="http://purl.org/dc/dcmitype/StillImage" />
        <dc:title></dc:title>
      </cc:Work>
    </rdf:RDF>
  </metadata>
  <g
     inkscape:groupmode="layer"
     id="layer10"
     inkscape:label="Mouse_Path"
     style="display:inline"
     transform="translate(-27.365845,-1007.3254)">
    <path
       inkscape:connector-curvature="0"
       style="fill:#00aade;fill-opacity:1;stroke-width:0.68355101"
       d="m 32.205791,1035.2093 -2.839946,-2.8401 0.425237,-0.4378 c 0.473766,-0.4878 0.917053,-0.9529 1.907719,-2.0015 0.368591,-0.3902 1.009739,-1.0661 1.424775,-1.502 0.415035,-0.436 0.953181,-1.0029 1.195881,-1.2598 0.796365,-0.843 1.691949,-1.7894 2.779402,-2.9374 l 1.070428,-1.13 -0.284134,-0.2916 c -0.156274,-0.1603 -1.076632,-1.1506 -2.04524,-2.2005 -2.392603,-2.5935 -3.182588,-3.4487 -3.207921,-3.4727 -0.01178,-0.011 -0.55536,-0.5995 -1.207954,-1.3074 l -1.186541,-1.2872 1.532821,-1.4331 c 3.053575,-2.855 3.36965,-3.1511 4.037391,-3.7818 l 0.678473,-0.6408 0.323406,0.3971 c 0.177873,0.2184 1.221687,1.5029 2.319586,2.8544 3.990484,4.9122 4.397378,5.4058 4.443512,5.3909 0.04389,-0.015 0.7926,-0.8561 3.16877,-3.5631 1.040054,-1.1849 1.199264,-1.3657 1.265935,-1.4375 0.02303,-0.025 0.759655,-0.8633 1.636954,-1.8634 l 1.595089,-1.8184 0.820317,0.7638 c 0.451173,0.42 1.776925,1.6473 2.946115,2.7272 l 2.125796,1.9634 -0.745168,0.7565 c -0.892862,0.9062 -2.040964,2.0806 -4.115459,4.2092 -0.848761,0.8709 -1.986316,2.0321 -2.527901,2.5804 -0.541585,0.5482 -1.01023,1.0318 -1.041433,1.0744 -0.05241,0.072 0.01323,0.1517 0.862644,1.0505 0.505656,0.5351 1.239227,1.3139 1.630156,1.7307 0.390929,0.4166 1.193755,1.2683 1.784055,1.8924 0.590301,0.624 1.330528,1.4084 1.64495,1.7431 0.598427,0.637 0.797904,0.8477 2.00463,2.1172 l 0.737709,0.7761 -0.293319,0.28 c -0.161326,0.154 -0.512646,0.4826 -0.780712,0.7303 -1.808634,1.6707 -4.041505,3.7426 -4.600326,4.2686 l -0.66057,0.6217 -0.295773,-0.3349 c -0.453419,-0.5135 -2.155394,-2.5017 -6.058654,-7.0773 -0.381127,-0.4468 -0.891438,-1.0453 -1.134024,-1.3302 -0.242587,-0.2848 -0.455817,-0.5178 -0.473843,-0.5178 -0.01803,0 -0.522855,0.5784 -1.121841,1.2854 -0.598985,0.7069 -1.269236,1.4974 -1.489448,1.7566 -0.220212,0.2592 -0.570263,0.6724 -0.777892,0.918 -0.395913,0.4686 -0.496302,0.5868 -2.294394,2.7021 -0.614318,0.7227 -1.367043,1.6088 -1.672723,1.9692 -0.305679,0.3605 -0.580714,0.676 -0.611187,0.7013 -0.04423,0.037 -0.628159,-0.5268 -2.895348,-2.7942 z"
       id="path2626" />
    <g
       id="g914"
       transform="matrix(0.06340862,0,0,0.06340862,-3.7180351,969.27744)"
       style="fill:#070c0f;stroke-width:15.77072716">
      <path
         inkscape:export-ydpi="1026.8827"
         inkscape:export-xdpi="1026.8827"
         inkscape:export-filename="/home/knome/Stuff/xubuntu-mouse-draft-2.png"
         style="display:inline;fill:#070c0f;fill-opacity:1;fill-rule:evenodd;stroke:none;stroke-width:0.08670618pt;stroke-linecap:butt;stroke-linejoin:miter;stroke-opacity:1"
         id="path13-8"
         d="m 931.74544,775.79875 c -2.29194,-1.89582 -20.26506,26.46187 -16.29077,29.40465 2.38972,1.7878 17.31457,-28.39371 16.29077,-29.40465 z"
         inkscape:connector-curvature="0" />
      <path
         inkscape:export-ydpi="1026.8827"
         inkscape:export-xdpi="1026.8827"
         inkscape:export-filename="/home/knome/Stuff/xubuntu-mouse-draft-2.png"
         style="display:inline;fill:#070c0f;fill-opacity:1;fill-rule:evenodd;stroke:none;stroke-width:0.08670618pt;stroke-linecap:butt;stroke-linejoin:miter;stroke-opacity:1"
         id="path18-8"
         d="m 911.08398,771.82541 c -1.13435,-1.31705 -7.15369,29.24258 -4.37043,30.59564 2.3897,1.7878 6.55183,-29.00592 4.37043,-30.59564 z"
         inkscape:connector-curvature="0" />
      <path
         id="path14-8"
         d="m 490.39251,737.47244 c -2.3537,1.28875 18.83363,15.10215 58.42225,31.40062 39.59117,16.29847 94.28195,57.60761 89.99375,64.27515 -12.85922,18.11199 -20.44376,39.77441 -15.20901,76.87813 0.94406,6.53121 -19.35566,17.87183 -17.87913,27.72653 1.23475,7.49842 22.68907,-7.4337 25.03505,-4.4858 1.4354,5.29135 -11.47809,32.07149 -6.25876,33.9853 3.81738,1.13442 37.3757,-31.84431 39.32554,-31.29382 55.34179,16.73062 127.34835,4.09717 128.74256,3.56728 -0.13122,-0.29067 51.81438,24.42083 56.32887,21.46778 11.38784,-12.3319 -21.58193,-29.7126 -16.08481,-36.65543 2.4103,-3.63474 40.15723,13.64662 42.01702,8.92889 2.70617,-8.16723 -17.52752,-25.31623 -20.57061,-30.39666 -2.64699,-4.68427 -3.22116,-12.24882 3.56728,-16.98197 6.79101,-4.73314 76.22275,-31.2899 73.31085,-51.84307 -5.03414,-37.34552 -88.0554,-39.77075 -89.39566,-42.91418 -0.63017,-1.47654 3.65331,-53.40369 -20.57061,-43.81135 -14.91457,5.55115 -2.73759,38.63636 -1.77296,42.91419 0.89001,3.93828 -6.63573,3.52294 -8.05308,1.79432 -3.16396,-3.86368 -13.6106,-38.3492 -25.93222,-32.19098 -17.2811,9.52802 -1.01748,39.25808 -4.46444,40.2227 -6.4026,3.57816 -6.0399,12.31819 -11.17179,19.43848 -8.46299,12.12868 -71.7872,-5.68106 -92.25802,-6.92095 -14.98659,-0.88489 -29.32133,11.41139 -30.67435,9.84741 -18.24833,-18.27405 -56.0023,-50.09534 -97.36328,-60.66515 -23.19496,-6.29458 -57.70051,-24.51893 -59.08444,-24.28742 z m 361.91887,69.87172 c 3.95743,0 7.15593,3.65412 7.15593,8.15989 10e-6,4.50575 -3.1985,8.15989 -7.15593,8.15989 -3.95744,0 -7.17728,-3.65414 -7.17728,-8.15989 10e-6,-4.50577 3.21984,-8.15989 7.17728,-8.15989 z m -16.08481,4.95575 c 3.04559,13.14733 7.79958,17.33717 22.06588,16.91788 -18.15827,16.65089 -29.19393,-11.87861 -22.06588,-16.91788 z m 39.26146,34.36979 c 0.74297,0.0282 1.31493,0.19751 1.68752,0.55539 7.15367,2.59296 -30.74272,16.23854 -30.99475,14.31185 -0.39407,-1.37542 22.12522,-15.13943 29.30723,-14.86724 z m 3.84499,8.73664 c 0.39154,-0.0303 0.73626,0.0219 1.02532,0.17089 6.75243,6.70871 -21.37827,21.58409 -21.06191,21.06191 -2.26689,-1.36979 14.16329,-20.77712 20.03659,-21.2328 z"
         style="display:inline;fill:#070c0f;fill-opacity:1;fill-rule:evenodd;stroke:none;stroke-width:0.14451017pt;stroke-linecap:butt;stroke-linejoin:miter;stroke-opacity:1"
         inkscape:connector-curvature="0" />
    </g>
  </g>
</svg>
