<?xml version="1.0" encoding="UTF-8" standalone="no"?>
<!-- Created with Inkscape (http://www.inkscape.org/) -->

<svg
   xmlns:dc="http://purl.org/dc/elements/1.1/"
   xmlns:cc="http://creativecommons.org/ns#"
   xmlns:rdf="http://www.w3.org/1999/02/22-rdf-syntax-ns#"
   xmlns:svg="http://www.w3.org/2000/svg"
   xmlns="http://www.w3.org/2000/svg"
   xmlns:sodipodi="http://sodipodi.sourceforge.net/DTD/sodipodi-0.dtd"
   xmlns:inkscape="http://www.inkscape.org/namespaces/inkscape"
   width="48"
   height="48"
   id="svg2"
   sodipodi:version="0.32"
   inkscape:version="0.92.4 (5da689c313, 2019-01-14)"
   version="1.0"
   sodipodi:docname="org.xfce.panel.applicationsmenu.svg"
   inkscape:output_extension="org.inkscape.output.svg.inkscape"
   inkscape:export-filename="/home/ochosi/Nerdstuff/xfce/xfce4-panel/icons/24x24/org.xfce.panel.applicationsmenu.png"
   inkscape:export-xdpi="96"
   inkscape:export-ydpi="96">
  <defs
     id="defs4">
    <linearGradient
       id="linearGradient3961">
      <stop
         id="stop3963"
         offset="0"
         style="stop-color:#cecece;stop-opacity:0.7019608;" />
      <stop
         id="stop3965"
         offset="1"
         style="stop-color:#1d1d1d;stop-opacity:0;" />
    </linearGradient>
    <clipPath
       clipPathUnits="userSpaceOnUse"
       id="clipPath1126">
      <rect
         style="opacity:0.5;vector-effect:none;fill:#ffffff;fill-opacity:1;fill-rule:nonzero;stroke:none;stroke-width:3.02543163;stroke-linecap:square;stroke-linejoin:miter;stroke-miterlimit:4;stroke-dasharray:none;stroke-dashoffset:0;stroke-opacity:1;paint-order:normal"
         id="rect1128"
         width="512"
         height="512"
         x="17.850052"
         y="549.14514" />
    </clipPath>
  </defs>
  <sodipodi:namedview
     id="base"
     pagecolor="#ffffff"
     bordercolor="#666666"
     borderopacity="1.0"
     gridtolerance="10000"
     guidetolerance="10"
     objecttolerance="10"
     inkscape:pageopacity="0.0"
     inkscape:pageshadow="2"
     inkscape:zoom="11.2"
     inkscape:cx="2.0173893"
     inkscape:cy="29.493206"
     inkscape:document-units="px"
     inkscape:current-layer="layer10"
     showgrid="false"
     inkscape:window-width="1617"
     inkscape:window-height="1109"
     inkscape:window-x="461"
     inkscape:window-y="206"
     inkscape:window-maximized="0" />
  <metadata
     id="metadata7">
    <rdf:RDF>
      <cc:Work
         rdf:about="">
        <dc:format>image/svg+xml</dc:format>
        <dc:type
           rdf:resource="http://purl.org/dc/dcmitype/StillImage" />
        <dc:title></dc:title>
      </cc:Work>
    </rdf:RDF>
  </metadata>
  <g
     inkscape:groupmode="layer"
     id="layer10"
     inkscape:label="Mouse_Path"
     style="display:inline"
     transform="translate(-27.365845,-991.3254)">
    <path
       inkscape:connector-curvature="0"
       style="fill:#00aade;fill-opacity:1;stroke-width:0.68355101"
       d="m 35.422911,1032.3024 -4.057066,-4.0572 0.607482,-0.6254 c 0.67681,-0.6968 1.310074,-1.3614 2.725312,-2.8594 0.52656,-0.5574 1.442486,-1.523 2.035394,-2.1458 0.592906,-0.6228 1.361686,-1.4326 1.7084,-1.7996 1.137666,-1.2044 2.417072,-2.5564 3.970574,-4.1964 l 1.529184,-1.6142 -0.405906,-0.4166 c -0.223258,-0.2286 -1.538046,-1.6438 -2.921772,-3.1434 -3.418002,-3.7052 -4.546554,-4.927 -4.582742,-4.9612 -0.0168,-0.028 -0.793372,-0.8562 -1.72565,-1.8678 l -1.69506,-1.8388 2.189746,-2.0472 c 4.36225,-4.07836 4.813786,-4.50156 5.7677,-5.40236 l 0.96925,-0.9156 0.462008,0.5672 c 0.254114,0.312 1.745266,2.1472 3.313694,4.0778 5.700692,7.01736 6.281968,7.72256 6.347874,7.70136 0.06272,-0.028 1.132286,-1.2232 4.526814,-5.0904 1.485792,-1.69236 1.713234,-1.95076 1.808478,-2.05336 0.03288,-0.038 1.085222,-1.2334 2.338504,-2.662 l 2.2787,-2.5976 1.17188,1.091 c 0.644536,0.6 2.538466,2.3532 4.208738,3.896 l 3.036852,2.80496 -1.064526,1.0806 c -1.275518,1.2944 -2.915664,2.9722 -5.879228,6.013 -1.212516,1.2444 -2.837596,2.9032 -3.611286,3.6864 -0.773694,0.783 -1.443186,1.474 -1.487764,1.5348 -0.07486,0.102 0.0188,0.2172 1.23235,1.5008 0.722364,0.7644 1.770324,1.877 2.328794,2.4724 0.55847,0.595 1.705366,1.812 2.54865,2.7034 0.843286,0.8914 1.900756,2.012 2.34993,2.4902 0.854894,0.91 1.139862,1.211 2.863756,3.0246 l 1.05387,1.1086 -0.419026,0.4 c -0.230458,0.22 -0.732352,0.6894 -1.115304,1.0434 -2.583762,2.3866 -5.773576,5.3466 -6.571894,6.098 l -0.943672,0.888 -0.42253,-0.4782 c -0.647744,-0.7338 -3.079134,-3.574 -8.65522,-10.1106 -0.544468,-0.6384 -1.273484,-1.4932 -1.620034,-1.9004 -0.346554,-0.4068 -0.65117,-0.7396 -0.67692,-0.7396 -0.02572,0 -0.746934,0.8262 -1.602632,1.8362 -0.855692,1.01 -1.813192,2.1392 -2.12778,2.5094 -0.314592,0.3704 -0.814662,0.9606 -1.111278,1.3116 -0.565588,0.6694 -0.709002,0.8382 -3.277704,3.8602 -0.877594,1.0322 -1.952918,2.2982 -2.389604,2.8132 -0.436682,0.5148 -0.82959,0.9656 -0.873122,1.0016 -0.06318,0.052 -0.897372,-0.7526 -4.136214,-3.9916 z"
       id="path2626" />
    <path
       style="fill:#fafcfd;fill-rule:evenodd;stroke:#ffffff;stroke-width:1px;stroke-linecap:butt;stroke-linejoin:miter;stroke-opacity:1;fill-opacity:1"
       d="m 62.633702,1009.0575 -3.482143,0.3572 0.714286,2.9464 2.395369,-1.1334 z"
       id="path863"
       inkscape:connector-curvature="0" />
    <g
       id="g914"
       transform="matrix(0.09058374,0,0,0.09058374,-15.486126,936.11403)"
       style="fill:#070c0f;stroke-width:11.03950882">
      <path
         inkscape:export-ydpi="1026.8827"
         inkscape:export-xdpi="1026.8827"
         inkscape:export-filename="/home/knome/Stuff/xubuntu-mouse-draft-2.png"
         style="display:inline;fill:#070c0f;fill-opacity:1;fill-rule:evenodd;stroke:none;stroke-width:0.06069433pt;stroke-linecap:butt;stroke-linejoin:miter;stroke-opacity:1"
         id="path13-8"
         d="m 931.74544,775.79875 c -2.29194,-1.89582 -20.26506,26.46187 -16.29077,29.40465 2.38972,1.7878 17.31457,-28.39371 16.29077,-29.40465 z"
         inkscape:connector-curvature="0" />
      <path
         inkscape:export-ydpi="1026.8827"
         inkscape:export-xdpi="1026.8827"
         inkscape:export-filename="/home/knome/Stuff/xubuntu-mouse-draft-2.png"
         style="display:inline;fill:#070c0f;fill-opacity:1;fill-rule:evenodd;stroke:none;stroke-width:0.06069433pt;stroke-linecap:butt;stroke-linejoin:miter;stroke-opacity:1"
         id="path18-8"
         d="m 911.08398,771.82541 c -1.13435,-1.31705 -7.15369,29.24258 -4.37043,30.59564 2.3897,1.7878 6.55183,-29.00592 4.37043,-30.59564 z"
         inkscape:connector-curvature="0" />
      <path
         id="path14-8"
         d="m 490.39251,737.47244 c -2.3537,1.28875 18.83363,15.10215 58.42225,31.40062 39.59117,16.29847 94.28195,57.60761 89.99375,64.27515 -12.85922,18.11199 -20.44376,39.77441 -15.20901,76.87813 0.94406,6.53121 -19.35566,17.87183 -17.87913,27.72653 1.23475,7.49842 22.68907,-7.4337 25.03505,-4.4858 1.4354,5.29135 -11.47809,32.07149 -6.25876,33.9853 3.81738,1.13442 37.3757,-31.84431 39.32554,-31.29382 55.34179,16.73062 127.34835,4.09717 128.74256,3.56728 -0.13122,-0.29067 51.81438,24.42083 56.32887,21.46778 11.38784,-12.3319 -21.58193,-29.7126 -16.08481,-36.65543 2.4103,-3.63474 40.15723,13.64662 42.01702,8.92889 2.70617,-8.16723 -17.52752,-25.31623 -20.57061,-30.39666 -2.64699,-4.68427 -3.22116,-12.24882 3.56728,-16.98197 6.79101,-4.73314 76.22275,-31.2899 73.31085,-51.84307 -5.03414,-37.34552 -88.0554,-39.77075 -89.39566,-42.91418 -0.63017,-1.47654 3.65331,-53.40369 -20.57061,-43.81135 -14.91457,5.55115 -2.73759,38.63636 -1.77296,42.91419 0.89001,3.93828 -6.63573,3.52294 -8.05308,1.79432 -3.16396,-3.86368 -13.6106,-38.3492 -25.93222,-32.19098 -17.2811,9.52802 -1.01748,39.25808 -4.46444,40.2227 -6.4026,3.57816 -6.0399,12.31819 -11.17179,19.43848 -8.46299,12.12868 -71.7872,-5.68106 -92.25802,-6.92095 -14.98659,-0.88489 -29.32133,11.41139 -30.67435,9.84741 -18.24833,-18.27405 -56.0023,-50.09534 -97.36328,-60.66515 -23.19496,-6.29458 -57.70051,-24.51893 -59.08444,-24.28742 z m 361.91887,69.87172 c 3.95743,0 7.15593,3.65412 7.15593,8.15989 10e-6,4.50575 -3.1985,8.15989 -7.15593,8.15989 -3.95744,0 -7.17728,-3.65414 -7.17728,-8.15989 10e-6,-4.50577 3.21984,-8.15989 7.17728,-8.15989 z m -16.08481,4.95575 c 3.04559,13.14733 7.79958,17.33717 22.06588,16.91788 -18.15827,16.65089 -29.19393,-11.87861 -22.06588,-16.91788 z m 39.26146,34.36979 c 0.74297,0.0282 1.31493,0.19751 1.68752,0.55539 7.15367,2.59296 -30.74272,16.23854 -30.99475,14.31185 -0.39407,-1.37542 22.12522,-15.13943 29.30723,-14.86724 z m 3.84499,8.73664 c 0.39154,-0.0303 0.73626,0.0219 1.02532,0.17089 6.75243,6.70871 -21.37827,21.58409 -21.06191,21.06191 -2.26689,-1.36979 14.16329,-20.77712 20.03659,-21.2328 z"
         style="display:inline;fill:#070c0f;fill-opacity:1;fill-rule:evenodd;stroke:none;stroke-width:0.10115712pt;stroke-linecap:butt;stroke-linejoin:miter;stroke-opacity:1"
         inkscape:connector-curvature="0" />
    </g>
  </g>
</svg>
