<?xml version="1.0" encoding="UTF-8" standalone="no"?>
<!-- Created with Inkscape (http://www.inkscape.org/) -->

<svg
   width="48"
   height="48"
   id="svg2"
   sodipodi:version="0.32"
   inkscape:version="1.2.2 (b0a8486541, 2022-12-01)"
   version="1.0"
   sodipodi:docname="org.xfce.panel.applicationsmenu.svg"
   inkscape:output_extension="org.inkscape.output.svg.inkscape"
   inkscape:export-filename="org.xfce.panel.applicationsmenu.png"
   inkscape:export-xdpi="96"
   inkscape:export-ydpi="96"
   xmlns:inkscape="http://www.inkscape.org/namespaces/inkscape"
   xmlns:sodipodi="http://sodipodi.sourceforge.net/DTD/sodipodi-0.dtd"
   xmlns="http://www.w3.org/2000/svg"
   xmlns:svg="http://www.w3.org/2000/svg"
   xmlns:rdf="http://www.w3.org/1999/02/22-rdf-syntax-ns#"
   xmlns:cc="http://creativecommons.org/ns#"
   xmlns:dc="http://purl.org/dc/elements/1.1/">
  <defs
     id="defs4" />
  <sodipodi:namedview
     id="base"
     pagecolor="#ffffff"
     bordercolor="#666666"
     borderopacity="1.0"
     gridtolerance="10000"
     guidetolerance="10"
     objecttolerance="10"
     inkscape:pageopacity="0.0"
     inkscape:pageshadow="2"
     inkscape:zoom="44.8"
     inkscape:cx="36.595982"
     inkscape:cy="24.6875"
     inkscape:document-units="px"
     inkscape:current-layer="layer10"
     showgrid="true"
     inkscape:window-width="1322"
     inkscape:window-height="411"
     inkscape:window-x="441"
     inkscape:window-y="473"
     inkscape:window-maximized="0"
     inkscape:showpageshadow="2"
     inkscape:pagecheckerboard="0"
     inkscape:deskcolor="#d1d1d1">
    <inkscape:grid
       type="xygrid"
       id="grid244"
       originx="0"
       originy="0" />
  </sodipodi:namedview>
  <metadata
     id="metadata7">
    <rdf:RDF>
      <cc:Work
         rdf:about="">
        <dc:format>image/svg+xml</dc:format>
        <dc:type
           rdf:resource="http://purl.org/dc/dcmitype/StillImage" />
      </cc:Work>
    </rdf:RDF>
  </metadata>
  <g
     inkscape:groupmode="layer"
     id="layer10"
     inkscape:label="Mouse_Path"
     style="display:inline"
     transform="translate(-27.365845,-1015.3254)">
    <path
       inkscape:connector-curvature="0"
       style="fill:#00aade;fill-opacity:1;stroke-width:1;stroke-dasharray:none;stroke:none"
       d="m 35.83238,1056.3257 -3.952867,-4.0628 0.591881,-0.6264 c 0.659425,-0.6977 1.276425,-1.3633 2.655316,-2.8632 0.513035,-0.5581 1.405437,-1.5252 1.983117,-2.1488 0.577679,-0.6235 1.326712,-1.4347 1.664524,-1.8023 1.108445,-1.206 2.354991,-2.5598 3.868595,-4.202 l 1.489908,-1.6164 -0.39548,-0.4172 c -0.217532,-0.2296 -1.498543,-1.6461 -2.846732,-3.1478 -3.330214,-3.7101 -4.429783,-4.9337 -4.46504,-4.9678 -0.01652,-0.028 -0.772996,-0.8574 -1.68133,-1.8704 l -1.651525,-1.8413 2.133505,-2.0502 c 4.250213,-4.0841 4.690152,-4.5077 5.619567,-5.4096 l 0.944356,-0.917 0.450142,0.5681 c 0.247576,0.3122 1.700443,2.1499 3.228588,4.0833 5.554277,7.0271 6.120624,7.7333 6.184837,7.712 0.06112,-0.028 1.103205,-1.2247 4.410552,-5.0974 1.447631,-1.6948 1.669231,-1.9535 1.762029,-2.0563 0.03203,-0.036 1.05735,-1.2351 2.278444,-2.6656 l 2.220173,-2.6012 1.141784,1.0926 c 0.627982,0.6006 2.473268,2.3564 4.100643,3.9012 l 2.958855,2.809 -1.037184,1.0822 c -1.242757,1.2961 -2.84078,2.9761 -5.728229,6.0214 -1.181376,1.2458 -2.764717,2.9067 -3.518536,3.6913 -0.753822,0.7837 -1.406121,1.4759 -1.449554,1.5366 -0.07294,0.1036 0.0182,0.2184 1.200698,1.5028 0.703811,0.7655 1.724857,1.8799 2.268983,2.476 0.544127,0.5959 1.661568,1.8144 2.483192,2.7071 0.821629,0.8926 1.85194,2.0149 2.289576,2.4937 0.832939,0.9114 1.110587,1.2126 2.790207,3.0287 l 1.026802,1.1102 -0.408266,0.4007 c -0.224532,0.2212 -0.71354,0.6902 -1.086657,1.0447 -2.517402,2.3898 -5.62529,5.3539 -6.403105,6.1065 l -0.919436,0.8893 -0.411679,-0.4791 c -0.631106,-0.7347 -3.000052,-3.5787 -8.432923,-10.1245 -0.530485,-0.6393 -1.240778,-1.4952 -1.578427,-1.9029 -0.337652,-0.4077 -0.634444,-0.7409 -0.659535,-0.7409 -0.02492,0 -0.72775,0.8274 -1.56147,1.8391 -0.833714,1.0113 -1.766624,2.142 -2.073131,2.5127 -0.306514,0.3707 -0.793739,0.9621 -1.082735,1.3135 -0.551063,0.6703 -0.690794,0.8391 -3.193524,3.8654 -0.855053,1.0337 -1.90276,2.3016 -2.328231,2.817 -0.425465,0.5155 -0.808281,0.9669 -0.850696,1.0033 -0.06157,0.053 -0.874325,-0.7538 -4.029982,-3.9973 z"
       id="path2626" />
    <circle
       style="fill:#ffffff;fill-rule:evenodd;stroke-linecap:square;stop-color:#000000;stroke-width:1;stroke-dasharray:none;stroke:none"
       id="path5701"
       cx="62.365845"
       cy="1037.3254"
       r="4" />
    <g
       id="g914"
       transform="matrix(0.09511293,0,0,0.09775456,-19.259975,955.21568)"
       style="fill:#070c0f;stroke-width:21.951">
      <path
         inkscape:export-ydpi="1026.8827"
         inkscape:export-xdpi="1026.8827"
         inkscape:export-filename="/home/knome/Stuff/xubuntu-mouse-draft-2.png"
         style="display:inline;fill:#070c0f;fill-opacity:1;fill-rule:evenodd;stroke:none;stroke-width:0.120685pt;stroke-linecap:butt;stroke-linejoin:miter;stroke-opacity:1"
         id="path13-8"
         d="m 931.74544,775.79875 c -2.29194,-1.89582 -20.26506,26.46187 -16.29077,29.40465 2.38972,1.7878 17.31457,-28.39371 16.29077,-29.40465 z"
         inkscape:connector-curvature="0" />
      <path
         inkscape:export-ydpi="1026.8827"
         inkscape:export-xdpi="1026.8827"
         inkscape:export-filename="/home/knome/Stuff/xubuntu-mouse-draft-2.png"
         style="display:inline;fill:#070c0f;fill-opacity:1;fill-rule:evenodd;stroke:none;stroke-width:0.120685pt;stroke-linecap:butt;stroke-linejoin:miter;stroke-opacity:1"
         id="path18-8"
         d="m 911.08398,771.82541 c -1.13435,-1.31705 -7.15369,29.24258 -4.37043,30.59564 2.3897,1.7878 6.55183,-29.00592 4.37043,-30.59564 z"
         inkscape:connector-curvature="0" />
      <path
         id="path14-8"
         d="m 490.39251,737.47244 c -2.3537,1.28875 18.83363,15.10215 58.42225,31.40062 39.59117,16.29847 94.28195,57.60761 89.99375,64.27515 -12.85922,18.11199 -20.44376,39.77441 -15.20901,76.87813 0.94406,6.53121 -19.35566,17.87183 -17.87913,27.72653 1.23475,7.49842 22.68907,-7.4337 25.03505,-4.4858 1.4354,5.29135 -11.47809,32.07149 -6.25876,33.9853 3.81738,1.13442 37.3757,-31.84431 39.32554,-31.29382 55.34179,16.73062 127.34835,4.09717 128.74256,3.56728 -0.13122,-0.29067 51.81438,24.42083 56.32887,21.46778 11.38784,-12.3319 -21.58193,-29.7126 -16.08481,-36.65543 2.4103,-3.63474 40.15723,13.64662 42.01702,8.92889 2.70617,-8.16723 -17.52752,-25.31623 -20.57061,-30.39666 -2.64699,-4.68427 -3.22116,-12.24882 3.56728,-16.98197 6.79101,-4.73314 76.22275,-31.2899 73.31085,-51.84307 -5.03414,-37.34552 -88.0554,-39.77075 -89.39566,-42.91418 -0.63017,-1.47654 3.65331,-53.40369 -20.57061,-43.81135 -14.91457,5.55115 -2.73759,38.63636 -1.77296,42.91419 0.89001,3.93828 -6.63573,3.52294 -8.05308,1.79432 -3.16396,-3.86368 -13.6106,-38.3492 -25.93222,-32.19098 -17.2811,9.52802 -1.01748,39.25808 -4.46444,40.2227 -6.4026,3.57816 -6.0399,12.31819 -11.17179,19.43848 -8.46299,12.12868 -71.7872,-5.68106 -92.25802,-6.92095 -14.98659,-0.88489 -29.32133,11.41139 -30.67435,9.84741 -18.24833,-18.27405 -56.0023,-50.09534 -97.36328,-60.66515 -23.19496,-6.29458 -57.70051,-24.51893 -59.08444,-24.28742 z m 361.91887,69.87172 c 3.95743,0 7.15593,3.65412 7.15593,8.15989 10e-6,4.50575 -3.1985,8.15989 -7.15593,8.15989 -3.95744,0 -7.17728,-3.65414 -7.17728,-8.15989 10e-6,-4.50577 3.21984,-8.15989 7.17728,-8.15989 z m -16.08481,4.95575 c 3.04559,13.14733 7.79958,17.33717 22.06588,16.91788 -18.15827,16.65089 -29.19393,-11.87861 -22.06588,-16.91788 z m 39.26146,34.36979 c 0.74297,0.0282 1.31493,0.19751 1.68752,0.55539 7.15367,2.59296 -30.74272,16.23854 -30.99475,14.31185 -0.39407,-1.37542 22.12522,-15.13943 29.30723,-14.86724 z m 3.84499,8.73664 c 0.39154,-0.0303 0.73626,0.0219 1.02532,0.17089 6.75243,6.70871 -21.37827,21.58409 -21.06191,21.06191 -2.26689,-1.36979 14.16329,-20.77712 20.03659,-21.2328 z"
         style="display:inline;fill:#070c0f;fill-opacity:1;fill-rule:evenodd;stroke:none;stroke-width:10.37078682;stroke-linecap:butt;stroke-linejoin:miter;stroke-opacity:1;stroke-dasharray:none"
         inkscape:connector-curvature="0" />
    </g>
  </g>
</svg>
