<?xml version="1.0" encoding="UTF-8" standalone="no"?>
<!-- Created with Inkscape (http://www.inkscape.org/) -->

<svg
   width="128"
   height="128"
   id="svg2"
   sodipodi:version="0.32"
   inkscape:version="1.2.2 (b0a8486541, 2022-12-01)"
   version="1.0"
   sodipodi:docname="org.xfce.panel.applicationsmenu.svg"
   inkscape:output_extension="org.inkscape.output.svg.inkscape"
   inkscape:export-filename="org.xfce.panel.applicationsmenu.png"
   inkscape:export-xdpi="96"
   inkscape:export-ydpi="96"
   xmlns:inkscape="http://www.inkscape.org/namespaces/inkscape"
   xmlns:sodipodi="http://sodipodi.sourceforge.net/DTD/sodipodi-0.dtd"
   xmlns="http://www.w3.org/2000/svg"
   xmlns:svg="http://www.w3.org/2000/svg"
   xmlns:rdf="http://www.w3.org/1999/02/22-rdf-syntax-ns#"
   xmlns:cc="http://creativecommons.org/ns#"
   xmlns:dc="http://purl.org/dc/elements/1.1/">
  <defs
     id="defs4" />
  <sodipodi:namedview
     id="base"
     pagecolor="#ffffff"
     bordercolor="#666666"
     borderopacity="1.0"
     gridtolerance="10000"
     guidetolerance="10"
     objecttolerance="10"
     inkscape:pageopacity="0.0"
     inkscape:pageshadow="2"
     inkscape:zoom="22.4"
     inkscape:cx="88.191964"
     inkscape:cy="56.026786"
     inkscape:document-units="px"
     inkscape:current-layer="layer10"
     showgrid="true"
     inkscape:window-width="1322"
     inkscape:window-height="411"
     inkscape:window-x="344"
     inkscape:window-y="468"
     inkscape:window-maximized="0"
     inkscape:showpageshadow="2"
     inkscape:pagecheckerboard="0"
     inkscape:deskcolor="#d1d1d1">
    <inkscape:grid
       type="xygrid"
       id="grid244"
       originx="0"
       originy="0" />
  </sodipodi:namedview>
  <metadata
     id="metadata7">
    <rdf:RDF>
      <cc:Work
         rdf:about="">
        <dc:format>image/svg+xml</dc:format>
        <dc:type
           rdf:resource="http://purl.org/dc/dcmitype/StillImage" />
      </cc:Work>
    </rdf:RDF>
  </metadata>
  <g
     inkscape:groupmode="layer"
     id="layer10"
     inkscape:label="Mouse_Path"
     style="display:inline"
     transform="translate(-27.365845,-1015.3254)">
    <path
       inkscape:connector-curvature="0"
       style="fill:#00aade;fill-opacity:1;stroke-width:3.85816"
       d="m 48.463871,1126.2786 -10.917448,-11.221 1.63472,-1.73 c 1.82127,-1.9272 3.525366,-3.7654 7.333734,-7.9082 1.416956,-1.5412 3.881686,-4.2122 5.477182,-5.9344 1.595496,-1.7224 3.664258,-3.9626 4.597262,-4.978 3.06142,-3.3308 6.504262,-7.0698 10.684696,-11.6054 l 4.114988,-4.4646 -1.09228,-1.1522 c -0.600804,-0.6342 -4.138836,-4.5464 -7.862408,-8.6938 -9.19774,-10.2468 -12.234644,-13.6264 -12.332022,-13.7206 -0.04562,-0.078 -2.134944,-2.368 -4.643676,-5.166 l -4.561356,-5.0854 5.892542,-5.6624 c 11.738688,-11.2798 12.953758,-12.4498 15.520716,-14.9408 l 2.608224,-2.5326 1.24325,1.569 c 0.683782,0.8624 4.696464,5.9378 8.917056,11.2776 15.340392,19.4084 16.904592,21.3586 17.08194,21.3 0.16882,-0.078 3.04695,-3.3826 12.181529,-14.0786 3.99822,-4.681 4.61026,-5.3956 4.86656,-5.6794 0.0885,-0.1 2.9203,-3.4112 6.29285,-7.3622 l 6.13191,-7.1842 3.1535,3.0176 c 1.73443,1.6588 6.83094,6.5084 11.32559,10.7748 l 8.17208,7.758 -2.8646,2.989 c -3.43238,3.5798 -7.84597,8.2198 -15.82083,16.6306 -3.26285,3.4408 -7.6359,8.0282 -9.71787,10.195 -2.08199,2.1646 -3.88358,4.0762 -4.00354,4.244 -0.20145,0.2862 0.0503,0.6032 3.31622,4.1506 1.94386,2.1142 4.76389,5.1922 6.26672,6.8386 1.50283,1.6456 4.58909,5.0112 6.85834,7.4766 2.26926,2.4654 5.11488,5.5648 6.3236,6.8872 2.3005,2.5172 3.06733,3.3494 7.70628,8.3652 l 2.83594,3.0662 -1.12759,1.1068 c -0.62014,0.6108 -1.97074,1.9062 -3.00125,2.8852 -6.95283,6.6004 -15.53653,14.787 -17.68478,16.8656 l -2.53939,2.4562 -1.13702,-1.3232 c -1.74305,-2.0292 -8.28586,-9.884 -23.290943,-27.963 -1.46515,-1.7654 -3.426914,-4.1296 -4.359468,-5.2556 -0.932564,-1.126 -1.752274,-2.0462 -1.821574,-2.0462 -0.06882,0 -2.009978,2.2852 -4.312634,5.0792 -2.30264,2.7934 -4.87925,5.916 -5.725796,6.94 -0.84656,1.0238 -2.19223,2.6572 -2.990412,3.6276 -1.521982,1.8514 -1.907906,2.3178 -8.820212,10.676 -2.361576,2.855 -5.255244,6.3568 -6.430356,7.7804 -1.175096,1.4238 -2.232398,2.6704 -2.349542,2.771 -0.17006,0.146 -2.414806,-2.082 -11.130432,-11.0402 z"
       id="path2626" />
    <ellipse
       style="fill:#ffffff;fill-opacity:1;fill-rule:evenodd;stroke-width:4;stop-color:#000000"
       id="path16520"
       cx="119.36584"
       cy="1074.3254"
       rx="10"
       ry="11" />
    <g
       id="g914"
       transform="matrix(0.25363448,0,0,0.26067884,-96.969675,855.0825)"
       style="fill:#070c0f;stroke-width:21.951">
      <path
         inkscape:export-ydpi="1026.8827"
         inkscape:export-xdpi="1026.8827"
         inkscape:export-filename="/home/knome/Stuff/xubuntu-mouse-draft-2.png"
         style="display:inline;fill:#070c0f;fill-opacity:1;fill-rule:evenodd;stroke:none;stroke-width:0.120685pt;stroke-linecap:butt;stroke-linejoin:miter;stroke-opacity:1"
         id="path13-8"
         d="m 931.74544,775.79875 c -2.29194,-1.89582 -20.26506,26.46187 -16.29077,29.40465 2.38972,1.7878 17.31457,-28.39371 16.29077,-29.40465 z"
         inkscape:connector-curvature="0" />
      <path
         inkscape:export-ydpi="1026.8827"
         inkscape:export-xdpi="1026.8827"
         inkscape:export-filename="/home/knome/Stuff/xubuntu-mouse-draft-2.png"
         style="display:inline;fill:#070c0f;fill-opacity:1;fill-rule:evenodd;stroke:none;stroke-width:0.120685pt;stroke-linecap:butt;stroke-linejoin:miter;stroke-opacity:1"
         id="path18-8"
         d="m 911.08398,771.82541 c -1.13435,-1.31705 -7.15369,29.24258 -4.37043,30.59564 2.3897,1.7878 6.55183,-29.00592 4.37043,-30.59564 z"
         inkscape:connector-curvature="0" />
      <path
         id="path14-8"
         d="m 490.39251,737.47244 c -2.3537,1.28875 18.83363,15.10215 58.42225,31.40062 39.59117,16.29847 94.28195,57.60761 89.99375,64.27515 -12.85922,18.11199 -20.44376,39.77441 -15.20901,76.87813 0.94406,6.53121 -19.35566,17.87183 -17.87913,27.72653 1.23475,7.49842 22.68907,-7.4337 25.03505,-4.4858 1.4354,5.29135 -11.47809,32.07149 -6.25876,33.9853 3.81738,1.13442 37.3757,-31.84431 39.32554,-31.29382 55.34179,16.73062 127.34835,4.09717 128.74256,3.56728 -0.13122,-0.29067 51.81438,24.42083 56.32887,21.46778 11.38784,-12.3319 -21.58193,-29.7126 -16.08481,-36.65543 2.4103,-3.63474 40.15723,13.64662 42.01702,8.92889 2.70617,-8.16723 -17.52752,-25.31623 -20.57061,-30.39666 -2.64699,-4.68427 -3.22116,-12.24882 3.56728,-16.98197 6.79101,-4.73314 76.22275,-31.2899 73.31085,-51.84307 -5.03414,-37.34552 -88.0554,-39.77075 -89.39566,-42.91418 -0.63017,-1.47654 3.65331,-53.40369 -20.57061,-43.81135 -14.91457,5.55115 -2.73759,38.63636 -1.77296,42.91419 0.89001,3.93828 -6.63573,3.52294 -8.05308,1.79432 -3.16396,-3.86368 -13.6106,-38.3492 -25.93222,-32.19098 -17.2811,9.52802 -1.01748,39.25808 -4.46444,40.2227 -6.4026,3.57816 -6.0399,12.31819 -11.17179,19.43848 -8.46299,12.12868 -71.7872,-5.68106 -92.25802,-6.92095 -14.98659,-0.88489 -29.32133,11.41139 -30.67435,9.84741 -18.24833,-18.27405 -56.0023,-50.09534 -97.36328,-60.66515 -23.19496,-6.29458 -57.70051,-24.51893 -59.08444,-24.28742 z m 361.91887,69.87172 c 3.95743,0 7.15593,3.65412 7.15593,8.15989 10e-6,4.50575 -3.1985,8.15989 -7.15593,8.15989 -3.95744,0 -7.17728,-3.65414 -7.17728,-8.15989 10e-6,-4.50577 3.21984,-8.15989 7.17728,-8.15989 z m -16.08481,4.95575 c 3.04559,13.14733 7.79958,17.33717 22.06588,16.91788 -18.15827,16.65089 -29.19393,-11.87861 -22.06588,-16.91788 z m 39.26146,34.36979 c 0.74297,0.0282 1.31493,0.19751 1.68752,0.55539 7.15367,2.59296 -30.74272,16.23854 -30.99475,14.31185 -0.39407,-1.37542 22.12522,-15.13943 29.30723,-14.86724 z m 3.84499,8.73664 c 0.39154,-0.0303 0.73626,0.0219 1.02532,0.17089 6.75243,6.70871 -21.37827,21.58409 -21.06191,21.06191 -2.26689,-1.36979 14.16329,-20.77712 20.03659,-21.2328 z"
         style="display:inline;fill:#070c0f;fill-opacity:1;fill-rule:evenodd;stroke:none;stroke-width:0.201141pt;stroke-linecap:butt;stroke-linejoin:miter;stroke-opacity:1"
         inkscape:connector-curvature="0" />
    </g>
  </g>
</svg>
